{
.appVersion = "1075";
copyright = "Digitized data copyright (C) 2010-2011, Google Corporation.";
customParameters = (
{
name = vendorID;
value = "1ASC";
},
{
name = license;
value = "This Font Software is licensed under the SIL Open Font License, Version 1.1. This license is available with a FAQ at: http://scripts.sil.org/OFL";
},
{
name = licenseURL;
value = "http://scripts.sil.org/OFL";
},
{
name = fsType;
value = (
);
},
{
name = "Disable Last Change";
value = 1;
},
{
name = "Use Line Breaks";
value = 1;
}
);
date = "2017-11-07 16:50:35 +0000";
designerURL = "http://www.ascendercorp.com/typedesigners.html";
disablesNiceNames = 1;
familyName = "Open Sans";
featurePrefixes = (
{
automatic = 1;
code = "languagesystem DFLT dflt;
languagesystem latn dflt;
languagesystem hebr dflt;
languagesystem latn CAT;
languagesystem latn ROM;
languagesystem latn MOL;
";
name = Languagesystems;
}
);
features = (
{
automatic = 1;
code = "script latn;
language CAT;
sub  l' periodcentered' l by ldot;
sub  L' periodcentered' L by Ldot;
language ROM;
sub Scedilla by Scommaaccent;
sub scedilla by scommaaccent;
language MOL;
sub Scedilla by Scommaaccent;
sub scedilla by scommaaccent;
";
name = locl;
},
{
automatic = 1;
code = "sub one.osf by one.lf;
";
name = lnum;
},
{
automatic = 1;
code = "sub one by one.lf;
";
name = pnum;
},
{
automatic = 1;
code = "sub zero by zero.osf;
sub one by one.osf;
sub two by two.osf;
sub three by three.osf;
sub four by four.osf;
sub five by five.osf;
sub six by six.osf;
sub seven by seven.osf;
sub eight by eight.osf;
sub nine by nine.osf;
sub one.lf by one.osf;
";
name = onum;
},
{
automatic = 1;
code = "sub f f l by f_f_l;
sub f f i by f_f_i;
sub f f by f_f;
sub f i by fi;
sub f l by fl;
";
name = liga;
},
{
automatic = 1;
code = "sub I by I.ss01;
sub IJ by IJ.ss01;
sub Iacute by Iacute.ss01;
sub Ibreve by Ibreve.ss01;
sub Icircumflex by Icircumflex.ss01;
sub Idotaccent by Idotaccent.ss01;
sub Idotbelow by Idotbelow.ss01;
sub Igrave by Igrave.ss01;

glyphs = (
{
glyphname = A;
layers = (
{
anchors = (
{
name = bottom;
position = "{453, 0}";
},
{
name = ogonek;
position = "{907, 10}";
},
{
name = top;
position = "{763, 1462}";
}
);
layerId = "6AA17817-FAD2-45D4-8E70-7A3A6A841083";
paths = (
{
closed = 1;
nodes = (
"1040 0 LINE",
"856 1462 LINE",
"682 1462 LINE",
"-117 0 LINE",
"72 0 LINE",
"317 465 LINE",
"813 465 LINE",
"870 0 LINE"
);
},
{
closed = 1;
nodes = (
"538 879 OFFCURVE",
"622 1037 OFFCURVE",
"651 1095 CURVE SMOOTH",
"680 1153 OFFCURVE",
"706 1211 OFFCURVE",
"731 1270 CURVE",
"734 1156 OFFCURVE",
"744 1039 OFFCURVE",
"760 920 CURVE SMOOTH",
"795 621 LINE",
"401 621 LINE"
);
}
);
width = 1137;
},
{
anchors = (
{
name = bottom;
position = "{414, 0}";
},
{
name = ogonek;
position = "{837, 10}";
},
{
name = top;
position = "{725, 1462}";
}
);
layerId = "4C802D5D-2BAD-4759-8C93-835BB7B64EA1";
paths = (
{
closed = 1;
nodes = (
"979 0 LINE",
"778 1468 LINE",
"711 1468 LINE",
"-111 0 LINE",
"6 0 LINE",
"293 520 LINE",
"805 520 LINE",
"874 0 LINE"
);
},
{
closed = 1;
nodes = (
"525 943 OFFCURVE",
"628 1130 OFFCURVE",
"651 1175 CURVE SMOOTH",
"674 1220 OFFCURVE",
"695 1263 OFFCURVE",
"715 1305 CURVE",
"720 1198 OFFCURVE",
"733 1064 OFFCURVE",
"754 903 CURVE SMOOTH",
"793 612 LINE",
"344 612 LINE"
);
}
);
width = 1059;
},
{
anchors = (
{
name = bottom;
position = "{524, 0}";
},
{
name = ogonek;
position = "{1038, 10}";
},
{
name = top;
position = "{835, 1462}";
}
);
layerId = "80F7B5CA-46F0-48DD-AF7A-0C2E2531FBA7";
paths = (
{
closed = 1;
nodes = (
"1163 0 LINE",
"1016 1468 LINE",
"643 1468 LINE",
"-123 0 LINE",
"197 0 LINE",
"369 348 LINE",
"842 348 LINE",
"866 0 LINE"
);
},
{
closed = 1;
nodes = (
"682 993 LINE SMOOTH",
"725 1082 OFFCURVE",
"762 1167 OFFCURVE",
"791 1247 CURVE",
"791 1211 LINE SMOOTH",
"791 1130 OFFCURVE",
"794 1045 OFFCURVE",
"801 958 CURVE SMOOTH",
"827 608 LINE",
"494 608 LINE"
);
}
);
width = 1286;
},
{
anchors = (
{
name = bottom;
position = "{572, 0}";
},
{
name = ogonek;
position = "{1126, 10}";
},
{
name = top;
position = "{882, 1462}";
}
);
layerId = "0B5E954E-D3E5-4A16-AD17-8B1BCB8BDBD4";
paths = (
{
closed = 1;
nodes = (
"1249 0 LINE",
"1126 1462 LINE",
"623 1462 LINE",
"-121 0 LINE",
"285 0 LINE",
"410 274 LINE",
"858 274 LINE",
"868 0 LINE"
);
},
{
closed = 1;
nodes = (
"795 1114 OFFCURVE",
"815 1170 OFFCURVE",
"831 1227 CURVE",
"828 1190 OFFCURVE",
"827 1146 OFFCURVE",
"827 1096 CURVE SMOOTH",
"829 1010 LINE",
"846 586 LINE",
"553 586 LINE",
"770 1061 LINE SMOOTH"
);
}
);
width = 1384;
},
{
anchors = (
{
name = bottom;
position = "{487, 0}";
},
{
name = ogonek;
position = "{971, 10}";
},
{
name = top;
position = "{798, 1462}";
}
);
layerId = "2317BC77-1FCA-42D3-9CA3-F7C1C5BFA6BA";
paths = (
{
closed = 1;
nodes = (
"1102 0 LINE",
"936 1464 LINE",
"662 1464 LINE",
"-121 0 LINE",
"133 0 LINE",
"342 406 LINE",
"827 406 LINE",
"868 0 LINE"
);
},
{
closed = 1;
nodes = (
"618 950 LINE SMOOTH",
"676 1062 OFFCURVE",
"723 1164 OFFCURVE",
"760 1257 CURVE",
"760 1222 OFFCURVE",
"762 1176 OFFCURVE",
"766 1118 CURVE SMOOTH",
"769 1059 OFFCURVE",
"784 891 OFFCURVE",
"811 614 CURVE",
"446 614 LINE"
);
}
);
width = 1210;
}
);
note = A;
unicode = 0041;
},
{
glyphname = Aacute;
layers = (
{
background = {
paths = (
{
closed = 1;
nodes = (
"1040 0 LINE",
"856 1462 LINE",
"682 1462 LINE",
"-117 0 LINE",
"72 0 LINE",
"317 465 LINE",
"813 465 LINE",
"870 0 LINE"
);
},
{
closed = 1;
nodes = (
"538 879 OFFCURVE",
"622 1037 OFFCURVE",
"651 1095 CURVE SMOOTH",
"680 1153 OFFCURVE",
"706 1211 OFFCURVE",
"731 1270 CURVE",
"734 1156 OFFCURVE",
"744 1039 OFFCURVE",
"760 920 CURVE SMOOTH",
"795 621 LINE",
"401 621 LINE"
);
},
{
closed = 1;
nodes = (
"784 1579 LINE",
"884 1651 OFFCURVE",
"1050 1821 OFFCURVE",
"1101 1886 CURVE",
"1101 1907 LINE",
"911 1907 LINE",
"862 1830 OFFCURVE",
"754 1686 OFFCURVE",
"679 1606 CURVE",
"679 1579 LINE"
);
}
);
};
components = (
{
alignment = -1;
name = A;
},
{
alignment = -1;
name = acute;
transform = "{1, 0, 0, 1, 147, 338}";
}
);
layerId = "6AA17817-FAD2-45D4-8E70-7A3A6A841083";
width = 1137;
},
{
background = {
paths = (
{
closed = 1;
nodes = (
"979 0 LINE",
"778 1468 LINE",
"711 1468 LINE",
"-111 0 LINE",
"6 0 LINE",
"293 520 LINE",
"805 520 LINE",
"874 0 LINE"
);
},
{
closed = 1;
nodes = (
"525 943 OFFCURVE",
"628 1130 OFFCURVE",
"651 1175 CURVE SMOOTH",
"674 1220 OFFCURVE",
"695 1263 OFFCURVE",
"715 1305 CURVE",
"720 1198 OFFCURVE",
"733 1064 OFFCURVE",
"754 903 CURVE SMOOTH",
"793 612 LINE",
"344 612 LINE"
);
},
{
closed = 1;
nodes = (
"735 1579 LINE",
"850 1651 OFFCURVE",
"1017 1796 OFFCURVE",
"1085 1884 CURVE",
"1085 1907 LINE",
"948 1907 LINE",
"888 1808 OFFCURVE",
"756 1668 OFFCURVE",
"668 1600 CURVE",
"668 1579 LINE"
);
}
);
};
components = (
{
alignment = -1;
name = A;
},
{
alignment = -1;
name = acute;
transform = "{1, 0, 0, 1, 88, 338}";
}
);
layerId = "4C802D5D-2BAD-4759-8C93-835BB7B64EA1";
width = 1059;
},
{
background = {
paths = (
{
closed = 1;
nodes = (
"1163 0 LINE",
"1016 1468 LINE",
"643 1468 LINE",
"-123 0 LINE",
"197 0 LINE",
"369 348 LINE",
"842 348 LINE",
"866 0 LINE"
);
},
{
closed = 1;
nodes = (
"682 993 LINE SMOOTH",
"725 1082 OFFCURVE",
"762 1167 OFFCURVE",
"791 1247 CURVE",
"791 1211 LINE SMOOTH",
"791 1130 OFFCURVE",
"794 1045 OFFCURVE",
"801 958 CURVE SMOOTH",
"827 608 LINE",
"494 608 LINE"
);
},
{
closed = 1;
nodes = (
"944 1579 LINE",
"1059 1662 OFFCURVE",
"1231 1815 OFFCURVE",
"1292 1890 CURVE",
"1292 1907 LINE",
"957 1907 LINE",
"862 1764 OFFCURVE",
"788 1663 OFFCURVE",
"735 1604 CURVE",
"735 1579 LINE"
);
}
);
};
components = (
{
alignment = -1;
name = A;
},
{
alignment = -1;
name = acute;
transform = "{1, 0, 0, 1, 252, 338}";
}
);
layerId = "80F7B5CA-46F0-48DD-AF7A-0C2E2531FBA7";
width = 1286;
},
{
background = {
paths = (
{
closed = 1;
nodes = (
"1249 0 LINE",
"1126 1462 LINE",
"623 1462 LINE",
"-121 0 LINE",
"285 0 LINE",
"410 274 LINE",
"858 274 LINE",
"868 0 LINE"
);
},
{
closed = 1;
nodes = (
"795 1114 OFFCURVE",
"815 1170 OFFCURVE",
"831 1227 CURVE",
"828 1190 OFFCURVE",
"827 1146 OFFCURVE",
"827 1096 CURVE SMOOTH",
"829 1010 LINE",
"846 586 LINE",
"553 586 LINE",
"770 1061 LINE SMOOTH"
);
},
{
closed = 1;
nodes = (
"993 1579 LINE",
"1125 1650 OFFCURVE",
"1370 1820 OFFCURVE",
"1430 1892 CURVE",
"1430 1907 LINE",
"991 1907 LINE",
"885 1772 OFFCURVE",
"791 1670 OFFCURVE",
"709 1602 CURVE",
"709 1579 LINE"
);
}
);
};
components = (
{
alignment = -1;
name = A;
},
{
alignment = -1;
name = acute;
transform = "{1, 0, 0, 1, 256, 338}";
}
);
layerId = "0B5E954E-D3E5-4A16-AD17-8B1BCB8BDBD4";
width = 1384;
},
{
components = (
{
name = A;
},
{
name = acute;
transform = "{1, 0, 0, 1, 199, 338}";
}
);
layerId = "2317BC77-1FCA-42D3-9CA3-F7C1C5BFA6BA";
width = 1210;
}
);
note = Aacute;
unicode = 00C1;
},
{
glyphname = Abreve;
layers = (
{
background = {
paths = (
{
closed = 1;
nodes = (
"1040 0 LINE",
"856 1462 LINE",
"682 1462 LINE",
"-117 0 LINE",
"72 0 LINE",
"317 465 LINE",
"813 465 LINE",
"870 0 LINE"
);
},
{
closed = 1;
nodes = (
"538 879 OFFCURVE",
"622 1037 OFFCURVE",
"651 1095 CURVE SMOOTH",
"680 1153 OFFCURVE",
"706 1211 OFFCURVE",
"731 1270 CURVE",
"734 1156 OFFCURVE",
"744 1039 OFFCURVE",
"760 920 CURVE SMOOTH",
"795 621 LINE",
"401 621 LINE"
);
},
{
closed = 1;
nodes = (
"972 1764 OFFCURVE",
"905 1722 OFFCURVE",
"792 1722 CURVE SMOOTH",
"669 1722 OFFCURVE",
"626 1768 OFFCURVE",
"626 1847 CURVE",
"528 1847 LINE",
"526 1825 LINE",
"526 1804 LINE SMOOTH",
"526 1663 OFFCURVE",
"623 1579 OFFCURVE",
"774 1579 CURVE SMOOTH",
"950 1579 OFFCURVE",
"1057 1663 OFFCURVE",
"1102 1847 CURVE",
"995 1847 LINE"
);
}
);
};
components = (
{
alignment = -1;
name = A;
},
{
alignment = -1;
name = breve;
transform = "{1, 0, 0, 1, 51, 338}";
}
);
layerId = "6AA17817-FAD2-45D4-8E70-7A3A6A841083";
width = 1137;
},
{
background = {
paths = (
{
closed = 1;
nodes = (
"979 0 LINE",
"778 1468 LINE",
"711 1468 LINE",
"-111 0 LINE",
"6 0 LINE",
"293 520 LINE",
"805 520 LINE",
"874 0 LINE"
);
},
{
closed = 1;
nodes = (
"525 943 OFFCURVE",
"628 1130 OFFCURVE",
"651 1175 CURVE SMOOTH",
"674 1220 OFFCURVE",
"695 1263 OFFCURVE",
"715 1305 CURVE",
"720 1198 OFFCURVE",
"733 1064 OFFCURVE",
"754 903 CURVE SMOOTH",
"793 612 LINE",
"344 612 LINE"
);
},
{
closed = 1;
nodes = (
"938 1716 OFFCURVE",
"871 1681 OFFCURVE",
"758 1681 CURVE SMOOTH",
"643 1681 OFFCURVE",
"600 1728 OFFCURVE",
"600 1819 CURVE",
"531 1819 LINE",
"529 1799 LINE",
"529 1778 LINE SMOOTH",
"529 1655 OFFCURVE",
"610 1585 OFFCURVE",
"750 1585 CURVE SMOOTH",
"910 1585 OFFCURVE",
"1004 1659 OFFCURVE",
"1043 1819 CURVE",
"971 1819 LINE"
);
}
);
};
components = (
{
alignment = -1;
name = A;
},
{
alignment = -1;
name = breve;
transform = "{1, 0, 0, 1, 35, 338}";
}
);
layerId = "4C802D5D-2BAD-4759-8C93-835BB7B64EA1";
width = 1059;
},
{
background = {
paths = (
{
closed = 1;
nodes = (
"1163 0 LINE",
"1016 1468 LINE",
"643 1468 LINE",
"-123 0 LINE",
"197 0 LINE",
"369 348 LINE",
"842 348 LINE",
"866 0 LINE"
);
},
{
closed = 1;
nodes = (
"682 993 LINE SMOOTH",
"725 1082 OFFCURVE",
"762 1167 OFFCURVE",
"791 1247 CURVE",
"791 1211 LINE SMOOTH",
"791 1130 OFFCURVE",
"794 1045 OFFCURVE",
"801 958 CURVE SMOOTH",
"827 608 LINE",
"494 608 LINE"
);
},
{
closed = 1;
nodes = (
"1027 1822 OFFCURVE",
"960 1792 OFFCURVE",
"856 1792 CURVE SMOOTH",
"748 1792 OFFCURVE",
"702 1830 OFFCURVE",
"702 1917 CURVE",
"528 1917 LINE",
"524 1898 OFFCURVE",
"522 1876 OFFCURVE",
"522 1851 CURVE SMOOTH",
"522 1683 OFFCURVE",
"642 1579 OFFCURVE",
"846 1579 CURVE SMOOTH",
"1071 1579 OFFCURVE",
"1202 1692 OFFCURVE",
"1239 1917 CURVE",
"1050 1917 LINE"
);
}
);
};
components = (
{
alignment = -1;
name = A;
},
{
alignment = -1;
name = breve;
transform = "{1, 0, 0, 1, 92, 338}";
}
);
layerId = "80F7B5CA-46F0-48DD-AF7A-0C2E2531FBA7";
width = 1286;
},
{
background = {
paths = (
{
closed = 1;
nodes = (
"1249 0 LINE",
"1126 1462 LINE",
"623 1462 LINE",
"-121 0 LINE",
"285 0 LINE",
"410 274 LINE",
"858 274 LINE",
"868 0 LINE"
);
},
{
closed = 1;
nodes = (
"795 1114 OFFCURVE",
"815 1170 OFFCURVE",
"831 1227 CURVE",
"828 1190 OFFCURVE",
"827 1146 OFFCURVE",
"827 1096 CURVE SMOOTH",
"829 1010 LINE",
"846 586 LINE",
"553 586 LINE",
"770 1061 LINE SMOOTH"
);
},
{
closed = 1;
nodes = (
"1080 1865 OFFCURVE",
"1020 1821 OFFCURVE",
"907 1821 CURVE SMOOTH",
"808 1821 OFFCURVE",
"744 1863 OFFCURVE",
"744 1950 CURVE",
"527 1950 LINE",
"521 1938 OFFCURVE",
"518 1919 OFFCURVE",
"518 1894 CURVE SMOOTH",
"518 1697 OFFCURVE",
"652 1579 OFFCURVE",
"875 1579 CURVE SMOOTH",
"1140 1579 OFFCURVE",
"1288 1699 OFFCURVE",
"1329 1950 CURVE",
"1108 1950 LINE"
);
}
);
};
components = (
{
alignment = -1;
name = A;
},
{
alignment = -1;
name = breve;
transform = "{1, 0, 0, 1, 119, 338}";
}
);
layerId = "0B5E954E-D3E5-4A16-AD17-8B1BCB8BDBD4";
width = 1384;
},
{
components = (
{
name = A;
},
{
name = breve;
transform = "{1, 0, 0, 1, 72, 338}";
}
);
layerId = "2317BC77-1FCA-42D3-9CA3-F7C1C5BFA6BA";
width = 1210;
}
);
note = Abreve;
unicode = 0102;
},
{
glyphname = Acircumflex;
layers = (
{
background = {
paths = (
{
closed = 1;
nodes = (
"1040 0 LINE",
"856 1462 LINE",
"682 1462 LINE",
"-117 0 LINE",
"72 0 LINE",
"317 465 LINE",
"813 465 LINE",
"870 0 LINE"
);
},
{
closed = 1;
nodes = (
"538 879 OFFCURVE",
"622 1037 OFFCURVE",
"651 1095 CURVE SMOOTH",
"680 1153 OFFCURVE",
"706 1211 OFFCURVE",
"731 1270 CURVE",
"734 1156 OFFCURVE",
"744 1039 OFFCURVE",
"760 920 CURVE SMOOTH",
"795 621 LINE",
"401 621 LINE"
);
},
{
closed = 1;
nodes = (
"1038 1672 LINE SMOOTH",
"977 1763 OFFCURVE",
"935 1841 OFFCURVE",
"910 1907 CURVE",
"752 1907 LINE",
"737 1881 OFFCURVE",
"709 1847 OFFCURVE",
"670 1804 CURVE SMOOTH",
"630 1761 OFFCURVE",
"562 1695 OFFCURVE",
"465 1606 CURVE",
"465 1579 LINE",
"574 1579 LINE",
"646 1626 OFFCURVE",
"727 1689 OFFCURVE",
"816 1768 CURVE",
"885 1674 OFFCURVE",
"939 1611 OFFCURVE",
"977 1579 CURVE",
"1080 1579 LINE",
"1080 1606 LINE"
);
}
);
};
components = (
{
alignment = -1;
name = A;
},
{
alignment = -1;
name = circumflex;
transform = "{1, 0, 0, 1, 66, 338}";
}
);
layerId = "6AA17817-FAD2-45D4-8E70-7A3A6A841083";
width = 1137;
},
{
background = {
paths = (
{
closed = 1;
nodes = (
"979 0 LINE",
"778 1468 LINE",
"711 1468 LINE",
"-111 0 LINE",
"6 0 LINE",
"293 520 LINE",
"805 520 LINE",
"874 0 LINE"
);
},
{
closed = 1;
nodes = (
"525 943 OFFCURVE",
"628 1130 OFFCURVE",
"651 1175 CURVE SMOOTH",
"674 1220 OFFCURVE",
"695 1263 OFFCURVE",
"715 1305 CURVE",
"720 1198 OFFCURVE",
"733 1064 OFFCURVE",
"754 903 CURVE SMOOTH",
"793 612 LINE",
"344 612 LINE"
);
},
{
closed = 1;
nodes = (
"950 1685 OFFCURVE",
"873 1822 OFFCURVE",
"842 1907 CURVE",
"778 1907 LINE",
"727 1830 OFFCURVE",
"584 1683 OFFCURVE",
"493 1608 CURVE",
"493 1579 LINE",
"547 1579 LINE",
"620 1626 OFFCURVE",
"724 1710 OFFCURVE",
"797 1786 CURVE",
"858 1688 OFFCURVE",
"911 1619 OFFCURVE",
"958 1579 CURVE",
"1007 1579 LINE",
"1007 1608 LINE"
);
}
);
};
components = (
{
alignment = -1;
name = A;
},
{
alignment = -1;
name = circumflex;
transform = "{1, 0, 0, 1, 49, 338}";
}
);
layerId = "4C802D5D-2BAD-4759-8C93-835BB7B64EA1";
width = 1059;
},
{
background = {
paths = (
{
closed = 1;
nodes = (
"1163 0 LINE",
"1016 1468 LINE",
"643 1468 LINE",
"-123 0 LINE",
"197 0 LINE",
"369 348 LINE",
"842 348 LINE",
"866 0 LINE"
);
},
{
closed = 1;
nodes = (
"682 993 LINE SMOOTH",
"725 1082 OFFCURVE",
"762 1167 OFFCURVE",
"791 1247 CURVE",
"791 1211 LINE SMOOTH",
"791 1130 OFFCURVE",
"794 1045 OFFCURVE",
"801 958 CURVE SMOOTH",
"827 608 LINE",
"494 608 LINE"
);
},
{
closed = 1;
nodes = (
"1168 1700 OFFCURVE",
"1088 1835 OFFCURVE",
"1059 1907 CURVE",
"721 1907 LINE",
"652 1819 OFFCURVE",
"510 1680 OFFCURVE",
"426 1604 CURVE",
"426 1579 LINE",
"643 1579 LINE",
"728 1632 OFFCURVE",
"805 1688 OFFCURVE",
"875 1747 CURVE",
"941 1670 OFFCURVE",
"995 1614 OFFCURVE",
"1037 1579 CURVE",
"1235 1579 LINE",
"1235 1604 LINE"
);
}
);
};
components = (
{
alignment = -1;
name = A;
},
{
alignment = -1;
name = circumflex;
transform = "{1, 0, 0, 1, 115, 338}";
}
);
layerId = "80F7B5CA-46F0-48DD-AF7A-0C2E2531FBA7";
width = 1286;
},
{
background = {
paths = (
{
closed = 1;
nodes = (
"1249 0 LINE",
"1126 1462 LINE",
"623 1462 LINE",
"-121 0 LINE",
"285 0 LINE",
"410 274 LINE",
"858 274 LINE",
"868 0 LINE"
);
},
{
closed = 1;
nodes = (
"795 1114 OFFCURVE",
"815 1170 OFFCURVE",
"831 1227 CURVE",
"828 1190 OFFCURVE",
"827 1146 OFFCURVE",
"827 1096 CURVE SMOOTH",
"829 1010 LINE",
"846 586 LINE",
"553 586 LINE",
"770 1061 LINE SMOOTH"
);
},
{
closed = 1;
nodes = (
"1268 1689 OFFCURVE",
"1190 1828 OFFCURVE",
"1155 1907 CURVE",
"708 1907 LINE",
"644 1838 OFFCURVE",
"504 1698 OFFCURVE",
"399 1602 CURVE",
"399 1579 LINE",
"673 1579 LINE",
"740 1622 OFFCURVE",
"820 1680 OFFCURVE",
"913 1753 CURVE",
"986 1664 OFFCURVE",
"1038 1606 OFFCURVE",
"1069 1579 CURVE",
"1335 1579 LINE",
"1335 1602 LINE"
);
}
);
};
components = (
{
alignment = -1;
name = A;
},
{
alignment = -1;
name = circumflex;
transform = "{1, 0, 0, 1, 145, 338}";
}
);
layerId = "0B5E954E-D3E5-4A16-AD17-8B1BCB8BDBD4";
width = 1384;
},
{
components = (
{
name = A;
},
{
name = circumflex;
transform = "{1, 0, 0, 1, 90, 338}";
}
);
layerId = "2317BC77-1FCA-42D3-9CA3-F7C1C5BFA6BA";
width = 1210;
}
);
note = Acircumflex;
unicode = 00C2;
},
{
glyphname = Adieresis;
layers = (
{
background = {
paths = (
{
closed = 1;
nodes = (
"1040 0 LINE",
"856 1462 LINE",
"682 1462 LINE",
"-117 0 LINE",
"72 0 LINE",
"317 465 LINE",
"813 465 LINE",
"870 0 LINE"
);
},
{
closed = 1;
nodes = (
"538 879 OFFCURVE",
"622 1037 OFFCURVE",
"651 1095 CURVE SMOOTH",
"680 1153 OFFCURVE",
"706 1211 OFFCURVE",
"731 1270 CURVE",
"734 1156 OFFCURVE",
"744 1039 OFFCURVE",
"760 920 CURVE SMOOTH",
"795 621 LINE",
"401 621 LINE"
);
},
{
closed = 1;
nodes = (
"523 1663 OFFCURVE",
"558 1632 OFFCURVE",
"605 1632 CURVE SMOOTH",
"657 1632 OFFCURVE",
"703 1684 OFFCURVE",
"703 1749 CURVE SMOOTH",
"703 1802 OFFCURVE",
"677 1829 OFFCURVE",
"625 1829 CURVE SMOOTH",
"564 1829 OFFCURVE",
"523 1777 OFFCURVE",
"523 1716 CURVE SMOOTH"
);
},
{
closed = 1;
nodes = (
"887 1663 OFFCURVE",
"922 1632 OFFCURVE",
"969 1632 CURVE SMOOTH",
"1021 1632 OFFCURVE",
"1067 1684 OFFCURVE",
"1067 1749 CURVE SMOOTH",
"1067 1802 OFFCURVE",
"1041 1829 OFFCURVE",
"990 1829 CURVE SMOOTH",
"927 1829 OFFCURVE",
"887 1777 OFFCURVE",
"887 1716 CURVE SMOOTH"
);
}
);
};
components = (
{
alignment = -1;
name = A;
},
{
alignment = -1;
name = dieresis;
transform = "{1, 0, 0, 1, 66, 338}";
}
);
layerId = "6AA17817-FAD2-45D4-8E70-7A3A6A841083";
width = 1137;
},
{
background = {
paths = (
{
closed = 1;
nodes = (
"979 0 LINE",
"778 1468 LINE",
"711 1468 LINE",
"-111 0 LINE",
"6 0 LINE",
"293 520 LINE",
"805 520 LINE",
"874 0 LINE"
);
},
{
closed = 1;
nodes = (
"525 943 OFFCURVE",
"628 1130 OFFCURVE",
"651 1175 CURVE SMOOTH",
"674 1220 OFFCURVE",
"695 1263 OFFCURVE",
"715 1305 CURVE",
"720 1198 OFFCURVE",
"733 1064 OFFCURVE",
"754 903 CURVE SMOOTH",
"793 612 LINE",
"344 612 LINE"
);
},
{
closed = 1;
nodes = (
"879 1662 OFFCURVE",
"897 1641 OFFCURVE",
"934 1641 CURVE SMOOTH",
"979 1641 OFFCURVE",
"1010 1683 OFFCURVE",
"1010 1747 CURVE SMOOTH",
"1010 1790 OFFCURVE",
"992 1811 OFFCURVE",
"956 1811 CURVE SMOOTH",
"908 1811 OFFCURVE",
"879 1769 OFFCURVE",
"879 1704 CURVE SMOOTH"
);
},
{
closed = 1;
nodes = (
"535 1662 OFFCURVE",
"553 1641 OFFCURVE",
"590 1641 CURVE SMOOTH",
"635 1641 OFFCURVE",
"666 1683 OFFCURVE",
"666 1747 CURVE SMOOTH",
"666 1790 OFFCURVE",
"648 1811 OFFCURVE",
"612 1811 CURVE SMOOTH",
"564 1811 OFFCURVE",
"535 1769 OFFCURVE",
"535 1704 CURVE SMOOTH"
);
}
);
};
components = (
{
alignment = -1;
name = A;
},
{
alignment = -1;
name = dieresis;
transform = "{1, 0, 0, 1, 43, 338}";
}
);
layerId = "4C802D5D-2BAD-4759-8C93-835BB7B64EA1";
width = 1059;
},
{
background = {
paths = (
{
closed = 1;
nodes = (
"1163 0 LINE",
"1016 1468 LINE",
"643 1468 LINE",
"-123 0 LINE",
"197 0 LINE",
"369 348 LINE",
"842 348 LINE",
"866 0 LINE"
);
},
{
closed = 1;
nodes = (
"682 993 LINE SMOOTH",
"725 1082 OFFCURVE",
"762 1167 OFFCURVE",
"791 1247 CURVE",
"791 1211 LINE SMOOTH",
"791 1130 OFFCURVE",
"794 1045 OFFCURVE",
"801 958 CURVE SMOOTH",
"827 608 LINE",
"494 608 LINE"
);
},
{
closed = 1;
nodes = (
"516 1647 OFFCURVE",
"561 1610 OFFCURVE",
"651 1610 CURVE SMOOTH",
"760 1610 OFFCURVE",
"811 1673 OFFCURVE",
"811 1770 CURVE SMOOTH",
"811 1842 OFFCURVE",
"767 1878 OFFCURVE",
"678 1878 CURVE SMOOTH",
"575 1878 OFFCURVE",
"516 1824 OFFCURVE",
"516 1720 CURVE SMOOTH"
);
},
{
closed = 1;
nodes = (
"918 1647 OFFCURVE",
"963 1610 OFFCURVE",
"1053 1610 CURVE SMOOTH",
"1161 1610 OFFCURVE",
"1213 1673 OFFCURVE",
"1213 1770 CURVE SMOOTH",
"1213 1839 OFFCURVE",
"1167 1878 OFFCURVE",
"1080 1878 CURVE SMOOTH",
"976 1878 OFFCURVE",
"918 1824 OFFCURVE",
"918 1720 CURVE SMOOTH"
);
}
);
};
components = (
{
alignment = -1;
name = A;
},
{
alignment = -1;
name = dieresis;
transform = "{1, 0, 0, 1, 119, 338}";
}
);
layerId = "80F7B5CA-46F0-48DD-AF7A-0C2E2531FBA7";
width = 1286;
},
{
background = {
paths = (
{
closed = 1;
nodes = (
"1249 0 LINE",
"1126 1462 LINE",
"623 1462 LINE",
"-121 0 LINE",
"285 0 LINE",
"410 274 LINE",
"858 274 LINE",
"868 0 LINE"
);
},
{
closed = 1;
nodes = (
"795 1114 OFFCURVE",
"815 1170 OFFCURVE",
"831 1227 CURVE",
"828 1190 OFFCURVE",
"827 1146 OFFCURVE",
"827 1096 CURVE SMOOTH",
"829 1010 LINE",
"846 586 LINE",
"553 586 LINE",
"770 1061 LINE SMOOTH"
);
},
{
closed = 1;
nodes = (
"502 1635 OFFCURVE",
"555 1595 OFFCURVE",
"672 1595 CURVE SMOOTH",
"806 1595 OFFCURVE",
"873 1658 OFFCURVE",
"873 1784 CURVE SMOOTH",
"873 1867 OFFCURVE",
"816 1909 OFFCURVE",
"703 1909 CURVE SMOOTH",
"569 1909 OFFCURVE",
"502 1847 OFFCURVE",
"502 1722 CURVE SMOOTH"
);
},
{
closed = 1;
nodes = (
"989 1635 OFFCURVE",
"1042 1595 OFFCURVE",
"1159 1595 CURVE SMOOTH",
"1292 1595 OFFCURVE",
"1358 1655 OFFCURVE",
"1358 1784 CURVE SMOOTH",
"1358 1867 OFFCURVE",
"1302 1909 OFFCURVE",
"1190 1909 CURVE SMOOTH",
"1056 1909 OFFCURVE",
"989 1847 OFFCURVE",
"989 1722 CURVE SMOOTH"
);
}
);
};
components = (
{
alignment = -1;
name = A;
},
{
alignment = -1;
name = dieresis;
transform = "{1, 0, 0, 1, 166, 338}";
}
);
layerId = "0B5E954E-D3E5-4A16-AD17-8B1BCB8BDBD4";
width = 1384;
},
{
components = (
{
name = A;
},
{
name = dieresis;
transform = "{1, 0, 0, 1, 92, 338}";
}
);
layerId = "2317BC77-1FCA-42D3-9CA3-F7C1C5BFA6BA";
width = 1210;
}
);
note = Adieresis;
unicode = 00C4;
},
{
glyphname = Agrave;
layers = (
{
background = {
paths = (
{
closed = 1;
nodes = (
"1040 0 LINE",
"856 1462 LINE",
"682 1462 LINE",
"-117 0 LINE",
"72 0 LINE",
"317 465 LINE",
"813 465 LINE",
"870 0 LINE"
);
},
{
closed = 1;
nodes = (
"538 879 OFFCURVE",
"622 1037 OFFCURVE",
"651 1095 CURVE SMOOTH",
"680 1153 OFFCURVE",
"706 1211 OFFCURVE",
"731 1270 CURVE",
"734 1156 OFFCURVE",
"744 1039 OFFCURVE",
"760 920 CURVE SMOOTH",
"795 621 LINE",
"401 621 LINE"
);
},
{
closed = 1;
nodes = (
"794 1715 OFFCURVE",
"745 1816 OFFCURVE",
"716 1907 CURVE",
"535 1907 LINE",
"535 1886 LINE",
"572 1806 OFFCURVE",
"678 1660 OFFCURVE",
"759 1579 CURVE",
"863 1579 LINE",
"863 1604 LINE"
);
}
);
};
components = (
{
alignment = -1;
name = A;
},
{
alignment = -1;
name = grave;
transform = "{1, 0, 0, 1, -40, 338}";
}
);
layerId = "6AA17817-FAD2-45D4-8E70-7A3A6A841083";
width = 1137;
},
{
background = {
paths = (
{
closed = 1;
nodes = (
"979 0 LINE",
"778 1468 LINE",
"711 1468 LINE",
"-111 0 LINE",
"6 0 LINE",
"293 520 LINE",
"805 520 LINE",
"874 0 LINE"
);
},
{
closed = 1;
nodes = (
"525 943 OFFCURVE",
"628 1130 OFFCURVE",
"651 1175 CURVE SMOOTH",
"674 1220 OFFCURVE",
"695 1263 OFFCURVE",
"715 1305 CURVE",
"720 1198 OFFCURVE",
"733 1064 OFFCURVE",
"754 903 CURVE SMOOTH",
"793 612 LINE",
"344 612 LINE"
);
},
{
closed = 1;
nodes = (
"736 1720 OFFCURVE",
"682 1821 OFFCURVE",
"651 1907 CURVE",
"536 1907 LINE",
"536 1886 LINE",
"583 1793 OFFCURVE",
"682 1648 OFFCURVE",
"749 1579 CURVE",
"815 1579 LINE",
"815 1604 LINE"
);
}
);
};
components = (
{
alignment = -1;
name = A;
},
{
alignment = -1;
name = grave;
transform = "{1, 0, 0, 1, 49, 338}";
}
);
layerId = "4C802D5D-2BAD-4759-8C93-835BB7B64EA1";
width = 1059;
},
{
background = {
paths = (
{
closed = 1;
nodes = (
"1163 0 LINE",
"1016 1468 LINE",
"643 1468 LINE",
"-123 0 LINE",
"197 0 LINE",
"369 348 LINE",
"842 348 LINE",
"866 0 LINE"
);
},
{
closed = 1;
nodes = (
"682 993 LINE SMOOTH",
"725 1082 OFFCURVE",
"762 1167 OFFCURVE",
"791 1247 CURVE",
"791 1211 LINE SMOOTH",
"791 1130 OFFCURVE",
"794 1045 OFFCURVE",
"801 958 CURVE SMOOTH",
"827 608 LINE",
"494 608 LINE"
);
},
{
closed = 1;
nodes = (
"912 1707 OFFCURVE",
"874 1808 OFFCURVE",
"850 1907 CURVE",
"539 1907 LINE",
"539 1886 LINE",
"587 1794 OFFCURVE",
"686 1671 OFFCURVE",
"781 1579 CURVE",
"965 1579 LINE",
"965 1604 LINE"
);
}
);
};
components = (
{
alignment = -1;
name = A;
},
{
alignment = -1;
name = grave;
transform = "{1, 0, 0, 1, 31, 338}";
}
);
layerId = "80F7B5CA-46F0-48DD-AF7A-0C2E2531FBA7";
width = 1286;
},
{
background = {
paths = (
{
closed = 1;
nodes = (
"1249 0 LINE",
"1126 1462 LINE",
"623 1462 LINE",
"-121 0 LINE",
"285 0 LINE",
"410 274 LINE",
"858 274 LINE",
"868 0 LINE"
);
},
{
closed = 1;
nodes = (
"795 1114 OFFCURVE",
"815 1170 OFFCURVE",
"831 1227 CURVE",
"828 1190 OFFCURVE",
"827 1146 OFFCURVE",
"827 1096 CURVE SMOOTH",
"829 1010 LINE",
"846 586 LINE",
"553 586 LINE",
"770 1061 LINE SMOOTH"
);
},
{
closed = 1;
nodes = (
"998 1701 OFFCURVE",
"966 1802 OFFCURVE",
"947 1907 CURVE",
"551 1907 LINE",
"551 1886 LINE",
"594 1801 OFFCURVE",
"696 1679 OFFCURVE",
"805 1579 CURVE",
"1041 1579 LINE",
"1041 1604 LINE"
);
}
);
};
components = (
{
alignment = -1;
name = A;
},
{
alignment = -1;
name = grave;
transform = "{1, 0, 0, 1, 66, 338}";
}
);
layerId = "0B5E954E-D3E5-4A16-AD17-8B1BCB8BDBD4";
width = 1384;
},
{
components = (
{
name = A;
},
{
name = grave;
transform = "{1, 0, 0, 1, -3, 338}";
}
);
layerId = "2317BC77-1FCA-42D3-9CA3-F7C1C5BFA6BA";
width = 1210;
}
);
note = Agrave;
unicode = 00C0;
},
{
glyphname = Amacron;
layers = (
{
background = {
paths = (
{
closed = 1;
nodes = (
"1040 0 LINE",
"856 1462 LINE",
"682 1462 LINE",
"-117 0 LINE",
"72 0 LINE",
"317 465 LINE",
"813 465 LINE",
"870 0 LINE"
);
},
{
closed = 1;
nodes = (
"538 879 OFFCURVE",
"622 1037 OFFCURVE",
"651 1095 CURVE SMOOTH",
"680 1153 OFFCURVE",
"706 1211 OFFCURVE",
"731 1270 CURVE",
"734 1156 OFFCURVE",
"744 1039 OFFCURVE",
"760 920 CURVE SMOOTH",
"795 621 LINE",
"401 621 LINE"
);
},
{
closed = 1;
nodes = (
"1048 1579 LINE",
"1079 1720 LINE",
"534 1720 LINE",
"504 1579 LINE"
);
}
);
};
components = (
{
alignment = -1;
name = A;
},
{
name = macroncomb;
transform = "{1, 0, 0, 1, 357, 338}";
}
);
layerId = "6AA17817-FAD2-45D4-8E70-7A3A6A841083";
width = 1137;
},
{
background = {
paths = (
{
closed = 1;
nodes = (
"979 0 LINE",
"778 1468 LINE",
"711 1468 LINE",
"-111 0 LINE",
"6 0 LINE",
"293 520 LINE",
"805 520 LINE",
"874 0 LINE"
);
},
{
closed = 1;
nodes = (
"525 943 OFFCURVE",
"628 1130 OFFCURVE",
"651 1175 CURVE SMOOTH",
"674 1220 OFFCURVE",
"695 1263 OFFCURVE",
"715 1305 CURVE",
"720 1198 OFFCURVE",
"733 1064 OFFCURVE",
"754 903 CURVE SMOOTH",
"793 612 LINE",
"344 612 LINE"
);
},
{
closed = 1;
nodes = (
"1002 1583 LINE",
"1020 1671 LINE",
"512 1671 LINE",
"494 1583 LINE"
);
}
);
};
components = (
{
alignment = -1;
name = A;
},
{
alignment = -1;
name = macron;
transform = "{1, 0, 0, 1, 55.5, 22.5}";
}
);
layerId = "4C802D5D-2BAD-4759-8C93-835BB7B64EA1";
width = 1059;
},
{
background = {
paths = (
{
closed = 1;
nodes = (
"1163 0 LINE",
"1016 1468 LINE",
"643 1468 LINE",
"-123 0 LINE",
"197 0 LINE",
"369 348 LINE",
"842 348 LINE",
"866 0 LINE"
);
},
{
closed = 1;
nodes = (
"682 993 LINE SMOOTH",
"725 1082 OFFCURVE",
"762 1167 OFFCURVE",
"791 1247 CURVE",
"791 1211 LINE SMOOTH",
"791 1130 OFFCURVE",
"794 1045 OFFCURVE",
"801 958 CURVE SMOOTH",
"827 608 LINE",
"494 608 LINE"
);
},
{
closed = 1;
nodes = (
"1151 1579 LINE",
"1196 1790 LINE",
"577 1790 LINE",
"532 1579 LINE"
);
}
);
};
components = (
{
alignment = -1;
name = A;
},
{
alignment = 1;
name = macroncomb;
transform = "{1, 0, 0, 1, 387, 338}";
}
);
layerId = "80F7B5CA-46F0-48DD-AF7A-0C2E2531FBA7";
width = 1286;
},
{
background = {
paths = (
{
closed = 1;
nodes = (
"1249 0 LINE",
"1126 1462 LINE",
"623 1462 LINE",
"-121 0 LINE",
"285 0 LINE",
"410 274 LINE",
"858 274 LINE",
"868 0 LINE"
);
},
{
closed = 1;
nodes = (
"795 1114 OFFCURVE",
"815 1170 OFFCURVE",
"831 1227 CURVE",
"828 1190 OFFCURVE",
"827 1146 OFFCURVE",
"827 1096 CURVE SMOOTH",
"829 1010 LINE",
"846 586 LINE",
"553 586 LINE",
"770 1061 LINE SMOOTH"
);
},
{
closed = 1;
nodes = (
"1216 1579 LINE",
"1265 1815 LINE",
"600 1815 LINE",
"549 1579 LINE"
);
}
);
};
components = (
{
alignment = -1;
name = A;
},
{
name = macroncomb;
transform = "{1, 0, 0, 1, 406, 338}";
}
);
layerId = "0B5E954E-D3E5-4A16-AD17-8B1BCB8BDBD4";
width = 1384;
},
{
components = (
{
name = A;
},
{
name = macroncomb;
transform = "{1, 0, 0, 1, 389, 356}";
}
);
layerId = "2317BC77-1FCA-42D3-9CA3-F7C1C5BFA6BA";
width = 1210;
}
);
note = Amacron;
unicode = 0100;
},
{
glyphname = Aogonek;
layers = (
{
background = {
paths = (
{
closed = 1;
nodes = (
"1040 0 LINE",
"856 1462 LINE",
"682 1462 LINE",
"-117 0 LINE",
"72 0 LINE",
"317 465 LINE",
"813 465 LINE",
"870 0 LINE"
);
},
{
closed = 1;
nodes = (
"538 879 OFFCURVE",
"622 1037 OFFCURVE",
"651 1095 CURVE SMOOTH",
"680 1153 OFFCURVE",
"706 1211 OFFCURVE",
"731 1270 CURVE",
"734 1156 OFFCURVE",
"744 1039 OFFCURVE",
"760 920 CURVE SMOOTH",
"795 621 LINE",
"401 621 LINE"
);
},
{
closed = 1;
nodes = (
"820 -39 OFFCURVE",
"777 -71 OFFCURVE",
"750 -97 CURVE SMOOTH",
"697 -150 OFFCURVE",
"668 -208 OFFCURVE",
"668 -279 CURVE SMOOTH",
"668 -383 OFFCURVE",
"735 -440 OFFCURVE",
"846 -440 CURVE SMOOTH",
"891 -440 OFFCURVE",
"928 -435 OFFCURVE",
"956 -426 CURVE",
"956 -319 LINE",
"929 -325 OFFCURVE",
"902 -328 OFFCURVE",
"876 -328 CURVE SMOOTH",
"830 -328 OFFCURVE",
"807 -305 OFFCURVE",
"807 -258 CURVE SMOOTH",
"807 -230 OFFCURVE",
"814 -203 OFFCURVE",
"827 -177 CURVE SMOOTH",
"854 -126 OFFCURVE",
"888 -87 OFFCURVE",
"997 0 CURVE",
"881 0 LINE"
);
}
);
};
components = (
{
alignment = -1;
name = A;
},
{
alignment = -1;
name = ogonek;
transform = "{1, 0, 0, 1, 813, 0}";
}
);
layerId = "6AA17817-FAD2-45D4-8E70-7A3A6A841083";
width = 1137;
},
{
layerId = "4C802D5D-2BAD-4759-8C93-835BB7B64EA1";
paths = (
{
closed = 1;
nodes = (
"979 0 LINE",
"778 1468 LINE",
"711 1468 LINE",
"-111 0 LINE",
"6 0 LINE",
"293 520 LINE",
"805 520 LINE",
"874 0 LINE"
);
},
{
closed = 1;
nodes = (
"525 943 OFFCURVE",
"628 1130 OFFCURVE",
"651 1175 CURVE SMOOTH",
"674 1220 OFFCURVE",
"695 1263 OFFCURVE",
"715 1305 CURVE",
"720 1198 OFFCURVE",
"733 1064 OFFCURVE",
"754 903 CURVE SMOOTH",
"793 612 LINE",
"344 612 LINE"
);
},
{
closed = 1;
nodes = (
"714 -96 OFFCURVE",
"658 -176 OFFCURVE",
"658 -268 CURVE SMOOTH",
"658 -361 OFFCURVE",
"716 -414 OFFCURVE",
"816 -414 CURVE SMOOTH",
"854 -414 OFFCURVE",
"887 -409 OFFCURVE",
"914 -399 CURVE",
"914 -328 LINE",
"885 -335 OFFCURVE",
"860 -338 OFFCURVE",
"838 -338 CURVE SMOOTH",
"779 -338 OFFCURVE",
"750 -311 OFFCURVE",
"750 -256 CURVE SMOOTH",
"750 -185 OFFCURVE",
"791 -123 OFFCURVE",
"872 -60 CURVE SMOOTH",
"947 0 LINE",
"875 0 LINE"
);
}
);
width = 1059;
},
{
background = {
paths = (
{
closed = 1;
nodes = (
"1163 0 LINE",
"1016 1468 LINE",
"643 1468 LINE",
"-123 0 LINE",
"197 0 LINE",
"369 348 LINE",
"842 348 LINE",
"866 0 LINE"
);
},
{
closed = 1;
nodes = (
"682 993 LINE SMOOTH",
"725 1082 OFFCURVE",
"762 1167 OFFCURVE",
"791 1247 CURVE",
"791 1211 LINE SMOOTH",
"791 1130 OFFCURVE",
"794 1045 OFFCURVE",
"801 958 CURVE SMOOTH",
"827 608 LINE",
"494 608 LINE"
);
},
{
closed = 1;
nodes = (
"706 -103 OFFCURVE",
"651 -188 OFFCURVE",
"651 -297 CURVE SMOOTH",
"651 -414 OFFCURVE",
"736 -492 OFFCURVE",
"872 -492 CURVE SMOOTH",
"925 -492 OFFCURVE",
"980 -484 OFFCURVE",
"1036 -467 CURVE",
"1036 -291 LINE",
"997 -303 OFFCURVE",
"963 -309 OFFCURVE",
"934 -309 CURVE SMOOTH",
"897 -309 OFFCURVE",
"874 -287 OFFCURVE",
"874 -250 CURVE SMOOTH",
"874 -217 OFFCURVE",
"886 -183 OFFCURVE",
"910 -148 CURVE SMOOTH",
"934 -113 OFFCURVE",
"986 -64 OFFCURVE",
"1065 0 CURVE",
"866 0 LINE"
);
}
);
};
components = (
{
alignment = -1;
name = A;
},
{
alignment = -1;
name = ogonek;
transform = "{1, 0, 0, 1, 823, 0}";
}
);
layerId = "80F7B5CA-46F0-48DD-AF7A-0C2E2531FBA7";
width = 1286;
},
{
background = {
paths = (
{
closed = 1;
nodes = (
"1249 0 LINE",
"1126 1462 LINE",
"623 1462 LINE",
"-121 0 LINE",
"285 0 LINE",
"410 274 LINE",
"858 274 LINE",
"868 0 LINE"
);
},
{
closed = 1;
nodes = (
"795 1114 OFFCURVE",
"815 1170 OFFCURVE",
"831 1227 CURVE",
"828 1190 OFFCURVE",
"827 1146 OFFCURVE",
"827 1096 CURVE SMOOTH",
"829 1010 LINE",
"846 586 LINE",
"553 586 LINE",
"770 1061 LINE SMOOTH"
);
},
{
closed = 1;
nodes = (
"836 -101 OFFCURVE",
"775 -193 OFFCURVE",
"775 -309 CURVE SMOOTH",
"775 -436 OFFCURVE",
"873 -524 OFFCURVE",
"1024 -524 CURVE SMOOTH",
"1094 -524 OFFCURVE",
"1160 -514 OFFCURVE",
"1223 -494 CURVE",
"1223 -272 LINE",
"1176 -289 OFFCURVE",
"1137 -297 OFFCURVE",
"1106 -297 CURVE SMOOTH",
"1071 -297 OFFCURVE",
"1053 -273 OFFCURVE",
"1053 -246 CURVE SMOOTH",
"1053 -201 OFFCURVE",
"1076 -158 OFFCURVE",
"1117 -113 CURVE SMOOTH",
"1137 -91 OFFCURVE",
"1179 -53 OFFCURVE",
"1244 0 CURVE",
"992 0 LINE"
);
}
);
};
components = (
{
alignment = -1;
name = A;
},
{
alignment = -1;
name = ogonek;
transform = "{1, 0, 0, 1, 965, 0}";
}
);
layerId = "0B5E954E-D3E5-4A16-AD17-8B1BCB8BDBD4";
width = 1384;
},
{
components = (
{
name = A;
},
{
name = ogonek;
transform = "{1, 0, 0, 1, 817, 0}";
}
);
layerId = "2317BC77-1FCA-42D3-9CA3-F7C1C5BFA6BA";
width = 1210;
}
);
note = Aogonek;
unicode = 0104;
},
{
glyphname = Aring;
layers = (
{
background = {
paths = (
{
closed = 1;
nodes = (
"1040 0 LINE",
"856 1462 LINE",
"682 1462 LINE",
"-117 0 LINE",
"72 0 LINE",
"317 465 LINE",
"813 465 LINE",
"870 0 LINE"
);
},
{
closed = 1;
nodes = (
"538 879 OFFCURVE",
"622 1037 OFFCURVE",
"651 1095 CURVE SMOOTH",
"680 1153 OFFCURVE",
"706 1211 OFFCURVE",
"731 1270 CURVE",
"734 1156 OFFCURVE",
"744 1039 OFFCURVE",
"760 920 CURVE SMOOTH",
"795 621 LINE",
"401 621 LINE"
);
},
{
closed = 1;
nodes = (
"991 1712 OFFCURVE",
"907 1794 OFFCURVE",
"772 1794 CURVE SMOOTH",
"645 1794 OFFCURVE",
"553 1708 OFFCURVE",
"553 1583 CURVE SMOOTH",
"553 1452 OFFCURVE",
"637 1370 OFFCURVE",
"772 1370 CURVE SMOOTH",
"904 1370 OFFCURVE",
"991 1453 OFFCURVE",
"991 1585 CURVE SMOOTH"
);
},
{
closed = 1;
nodes = (
"887 1511 OFFCURVE",
"840 1468 OFFCURVE",
"772 1468 CURVE SMOOTH",
"697 1468 OFFCURVE",
"657 1511 OFFCURVE",
"657 1583 CURVE SMOOTH",
"657 1654 OFFCURVE",
"707 1698 OFFCURVE",
"772 1698 CURVE SMOOTH",
"840 1698 OFFCURVE",
"887 1654 OFFCURVE",
"887 1583 CURVE SMOOTH"
);
}
);
};
components = (
{
alignment = -1;
name = A;
},
{
alignment = -1;
name = ring;
transform = "{1, 0, 0, 1, 2, 129}";
}
);
layerId = "6AA17817-FAD2-45D4-8E70-7A3A6A841083";
width = 1137;
},
{
background = {
paths = (
{
closed = 1;
nodes = (
"979 0 LINE",
"778 1468 LINE",
"711 1468 LINE",
"-111 0 LINE",
"6 0 LINE",
"293 520 LINE",
"805 520 LINE",
"874 0 LINE"
);
},
{
closed = 1;
nodes = (
"525 943 OFFCURVE",
"628 1130 OFFCURVE",
"651 1175 CURVE SMOOTH",
"674 1220 OFFCURVE",
"695 1263 OFFCURVE",
"715 1305 CURVE",
"720 1198 OFFCURVE",
"733 1064 OFFCURVE",
"754 903 CURVE SMOOTH",
"793 612 LINE",
"344 612 LINE"
);
},
{
closed = 1;
nodes = (
"945 1723 OFFCURVE",
"865 1792 OFFCURVE",
"748 1792 CURVE SMOOTH",
"628 1792 OFFCURVE",
"539 1709 OFFCURVE",
"539 1592 CURVE SMOOTH",
"539 1468 OFFCURVE",
"618 1395 OFFCURVE",
"742 1395 CURVE SMOOTH",
"859 1395 OFFCURVE",
"945 1477 OFFCURVE",
"945 1600 CURVE SMOOTH"
);
},
{
closed = 1;
nodes = (
"867 1522 OFFCURVE",
"817 1469 OFFCURVE",
"742 1469 CURVE SMOOTH",
"666 1469 OFFCURVE",
"619 1516 OFFCURVE",
"619 1592 CURVE SMOOTH",
"619 1668 OFFCURVE",
"666 1721 OFFCURVE",
"746 1721 CURVE SMOOTH",
"818 1721 OFFCURVE",
"867 1674 OFFCURVE",
"867 1598 CURVE SMOOTH"
);
}
);
};
components = (
{
alignment = -1;
name = A;
},
{
alignment = -1;
name = ring;
transform = "{1, 0, 0, 1, -22, 152}";
}
);
layerId = "4C802D5D-2BAD-4759-8C93-835BB7B64EA1";
width = 1059;
},
{
background = {
paths = (
{
closed = 1;
nodes = (
"1163 0 LINE",
"1016 1468 LINE",
"643 1468 LINE",
"-123 0 LINE",
"197 0 LINE",
"369 348 LINE",
"842 348 LINE",
"866 0 LINE"
);
},
{
closed = 1;
nodes = (
"682 993 LINE SMOOTH",
"725 1082 OFFCURVE",
"762 1167 OFFCURVE",
"791 1247 CURVE",
"791 1211 LINE SMOOTH",
"791 1130 OFFCURVE",
"794 1045 OFFCURVE",
"801 958 CURVE SMOOTH",
"827 608 LINE",
"494 608 LINE"
);
},
{
closed = 1;
nodes = (
"1087 1707 OFFCURVE",
"980 1802 OFFCURVE",
"833 1802 CURVE SMOOTH",
"685 1802 OFFCURVE",
"585 1710 OFFCURVE",
"585 1565 CURVE SMOOTH",
"585 1417 OFFCURVE",
"686 1327 OFFCURVE",
"833 1327 CURVE SMOOTH",
"985 1327 OFFCURVE",
"1087 1424 OFFCURVE",
"1087 1567 CURVE SMOOTH"
);
},
{
closed = 1;
nodes = (
"930 1505 OFFCURVE",
"889 1468 OFFCURVE",
"833 1468 CURVE SMOOTH",
"769 1468 OFFCURVE",
"737 1505 OFFCURVE",
"737 1565 CURVE SMOOTH",
"737 1625 OFFCURVE",
"777 1661 OFFCURVE",
"833 1661 CURVE SMOOTH",
"889 1661 OFFCURVE",
"930 1625 OFFCURVE",
"930 1565 CURVE SMOOTH"
);
}
);
};
components = (
{
alignment = -1;
name = A;
},
{
alignment = -1;
name = ring;
transform = "{1, 0, 0, 1, 53, 88}";
}
);
layerId = "80F7B5CA-46F0-48DD-AF7A-0C2E2531FBA7";
width = 1286;
},
{
background = {
paths = (
{
closed = 1;
nodes = (
"1249 0 LINE",
"1126 1462 LINE",
"623 1462 LINE",
"-121 0 LINE",
"285 0 LINE",
"410 274 LINE",
"858 274 LINE",
"868 0 LINE"
);
},
{
closed = 1;
nodes = (
"795 1114 OFFCURVE",
"815 1170 OFFCURVE",
"831 1227 CURVE",
"828 1190 OFFCURVE",
"827 1146 OFFCURVE",
"827 1096 CURVE SMOOTH",
"829 1010 LINE",
"846 586 LINE",
"553 586 LINE",
"770 1061 LINE SMOOTH"
);
},
{
closed = 1;
nodes = (
"1145 1700 OFFCURVE",
"1034 1804 OFFCURVE",
"877 1804 CURVE SMOOTH",
"714 1804 OFFCURVE",
"608 1702 OFFCURVE",
"608 1550 CURVE SMOOTH",
"608 1397 OFFCURVE",
"716 1298 OFFCURVE",
"877 1298 CURVE SMOOTH",
"1036 1298 OFFCURVE",
"1145 1401 OFFCURVE",
"1145 1552 CURVE SMOOTH"
);
},
{
closed = 1;
nodes = (
"965 1505 OFFCURVE",
"929 1466 OFFCURVE",
"877 1466 CURVE SMOOTH",
"821 1466 OFFCURVE",
"788 1501 OFFCURVE",
"788 1550 CURVE SMOOTH",
"788 1601 OFFCURVE",
"829 1636 OFFCURVE",
"877 1636 CURVE SMOOTH",
"924 1636 OFFCURVE",
"965 1601 OFFCURVE",
"965 1550 CURVE SMOOTH"
);
}
);
};
components = (
{
alignment = -1;
name = A;
},
{
alignment = -1;
name = ring;
transform = "{1, 0, 0, 1, 86, 61}";
}
);
layerId = "0B5E954E-D3E5-4A16-AD17-8B1BCB8BDBD4";
width = 1384;
},
{
components = (
{
name = A;
},
{
name = ring;
transform = "{1, 0, 0, 1, 27, 109}";
}
);
layerId = "2317BC77-1FCA-42D3-9CA3-F7C1C5BFA6BA";
width = 1210;
}
);
note = Aring;
unicode = 00C5;
},
{
glyphname = Aringacute;
layers = (
{
layerId = "6AA17817-FAD2-45D4-8E70-7A3A6A841083";
paths = (
{
closed = 1;
nodes = (
"975 1559 OFFCURVE",
"887 1642 OFFCURVE",
"754 1642 CURVE SMOOTH",
"629 1642 OFFCURVE",
"535 1557 OFFCURVE",
"535 1430 CURVE SMOOTH",
"535 1370 OFFCURVE",
"550 1322 OFFCURVE",
"580 1286 CURVE",
"-115 0 LINE",
"72 0 LINE",
"319 467 LINE",
"817 467 LINE",
"872 0 LINE",
"1040 0 LINE",
"885 1251 LINE",
"945 1293 OFFCURVE",
"975 1353 OFFCURVE",
"975 1432 CURVE SMOOTH"
);
},
{
closed = 1;
nodes = (
"742 1111 OFFCURVE",
"763 916 OFFCURVE",
"797 621 CURVE",
"403 621 LINE",
"524 848 OFFCURVE",
"599 989 OFFCURVE",
"628 1045 CURVE SMOOTH",
"656 1101 OFFCURVE",
"682 1155 OFFCURVE",
"707 1208 CURVE",
"735 1208 LINE"
);
},
{
closed = 1;
nodes = (
"868 1358 OFFCURVE",
"822 1315 OFFCURVE",
"754 1315 CURVE SMOOTH",
"679 1315 OFFCURVE",
"639 1358 OFFCURVE",
"639 1430 CURVE SMOOTH",
"639 1502 OFFCURVE",
"687 1544 OFFCURVE",
"754 1544 CURVE SMOOTH",
"822 1544 OFFCURVE",
"868 1502 OFFCURVE",
"868 1430 CURVE SMOOTH"
);
},
{
closed = 1;
nodes = (
"801 1692 LINE",
"897 1752 OFFCURVE",
"1065 1883 OFFCURVE",
"1122 1944 CURVE",
"1122 1962 LINE",
"909 1962 LINE",
"826 1857 OFFCURVE",
"751 1775 OFFCURVE",
"682 1714 CURVE",
"682 1692 LINE"
);
}
);
width = 1137;
},
{
layerId = "4C802D5D-2BAD-4759-8C93-835BB7B64EA1";
paths = (
{
closed = 1;
nodes = (
"928 1567 OFFCURVE",
"853 1642 OFFCURVE",
"729 1642 CURVE SMOOTH",
"610 1642 OFFCURVE",
"522 1560 OFFCURVE",
"522 1440 CURVE SMOOTH",
"522 1369 OFFCURVE",
"553 1311 OFFCURVE",
"602 1276 CURVE",
"-111 0 LINE",
"6 0 LINE",
"293 520 LINE",
"805 520 LINE",
"874 0 LINE",
"979 0 LINE",
"807 1260 LINE",
"886 1288 OFFCURVE",
"928 1362 OFFCURVE",
"928 1446 CURVE SMOOTH"
);
},
{
closed = 1;
nodes = (
"513 921 OFFCURVE",
"608 1094 OFFCURVE",
"628 1133 CURVE SMOOTH",
"648 1171 OFFCURVE",
"667 1208 OFFCURVE",
"686 1245 CURVE",
"719 1245 LINE",
"728 1120 OFFCURVE",
"739 1006 OFFCURVE",
"754 903 CURVE SMOOTH",
"793 612 LINE",
"344 612 LINE"
);
},
{
closed = 1;
nodes = (
"852 1365 OFFCURVE",
"802 1319 OFFCURVE",
"727 1319 CURVE SMOOTH",
"647 1319 OFFCURVE",
"602 1365 OFFCURVE",
"602 1444 CURVE SMOOTH",
"602 1520 OFFCURVE",
"655 1569 OFFCURVE",
"727 1569 CURVE SMOOTH",
"807 1569 OFFCURVE",
"852 1520 OFFCURVE",
"852 1444 CURVE SMOOTH"
);
},
{
closed = 1;
nodes = (
"743 1708 LINE",
"859 1780 OFFCURVE",
"1017 1918 OFFCURVE",
"1094 2013 CURVE",
"1094 2036 LINE",
"956 2036 LINE",
"896 1937 OFFCURVE",
"764 1797 OFFCURVE",
"676 1729 CURVE",
"676 1708 LINE"
);
}
);
width = 1059;
},
{
layerId = "80F7B5CA-46F0-48DD-AF7A-0C2E2531FBA7";
paths = (
{
closed = 1;
nodes = (
"1085 1603 OFFCURVE",
"978 1698 OFFCURVE",
"831 1698 CURVE SMOOTH",
"683 1698 OFFCURVE",
"584 1607 OFFCURVE",
"584 1460 CURVE SMOOTH",
"584 1416 OFFCURVE",
"592 1378 OFFCURVE",
"608 1346 CURVE",
"-123 0 LINE",
"197 0 LINE",
"367 330 LINE",
"836 330 LINE",
"866 0 LINE",
"1163 0 LINE",
"1008 1282 LINE",
"1059 1327 OFFCURVE",
"1085 1387 OFFCURVE",
"1085 1462 CURVE SMOOTH"
);
},
{
closed = 1;
nodes = (
"783 1039 OFFCURVE",
"788 956 OFFCURVE",
"795 899 CURVE",
"821 590 LINE",
"498 590 LINE",
"672 932 LINE SMOOTH",
"707 1003 OFFCURVE",
"739 1075 OFFCURVE",
"768 1149 CURVE",
"780 1149 LINE"
);
},
{
closed = 1;
nodes = (
"928 1400 OFFCURVE",
"887 1364 OFFCURVE",
"831 1364 CURVE SMOOTH",
"767 1364 OFFCURVE",
"735 1400 OFFCURVE",
"735 1460 CURVE SMOOTH",
"735 1520 OFFCURVE",
"775 1556 OFFCURVE",
"831 1556 CURVE SMOOTH",
"887 1556 OFFCURVE",
"928 1520 OFFCURVE",
"928 1460 CURVE SMOOTH"
);
},
{
closed = 1;
nodes = (
"983 1753 LINE",
"1095 1804 OFFCURVE",
"1244 1887 OFFCURVE",
"1321 1952 CURVE",
"1321 1962 LINE",
"979 1962 LINE",
"923 1899 OFFCURVE",
"816 1803 OFFCURVE",
"768 1767 CURVE",
"768 1753 LINE"
);
}
);
width = 1286;
},
{
layerId = "0B5E954E-D3E5-4A16-AD17-8B1BCB8BDBD4";
paths = (
{
closed = 1;
nodes = (
"1147 1637 OFFCURVE",
"1036 1741 OFFCURVE",
"879 1741 CURVE SMOOTH",
"716 1741 OFFCURVE",
"610 1639 OFFCURVE",
"610 1487 CURVE SMOOTH",
"610 1452 OFFCURVE",
"614 1422 OFFCURVE",
"623 1397 CURVE",
"-121 0 LINE",
"285 0 LINE",
"410 274 LINE",
"850 274 LINE",
"868 0 LINE",
"1249 0 LINE",
"1087 1335 LINE",
"1123 1371 OFFCURVE",
"1147 1430 OFFCURVE",
"1147 1489 CURVE SMOOTH"
);
},
{
closed = 1;
nodes = (
"805 1053 OFFCURVE",
"807 983 OFFCURVE",
"811 891 CURVE",
"838 586 LINE",
"553 586 LINE",
"745 977 LINE",
"768 1030 LINE",
"795 1102 LINE",
"805 1102 LINE"
);
},
{
closed = 1;
nodes = (
"967 1440 OFFCURVE",
"928 1403 OFFCURVE",
"877 1403 CURVE SMOOTH",
"821 1403 OFFCURVE",
"791 1438 OFFCURVE",
"791 1487 CURVE SMOOTH",
"791 1538 OFFCURVE",
"831 1573 OFFCURVE",
"879 1573 CURVE SMOOTH",
"926 1573 OFFCURVE",
"967 1538 OFFCURVE",
"967 1487 CURVE SMOOTH"
);
},
{
closed = 1;
nodes = (
"1040 1792 LINE",
"1198 1843 OFFCURVE",
"1314 1897 OFFCURVE",
"1389 1954 CURVE",
"1389 1962 LINE",
"963 1962 LINE",
"910 1911 OFFCURVE",
"843 1858 OFFCURVE",
"762 1802 CURVE",
"762 1792 LINE"
);
}
);
width = 1384;
},
{
layerId = "2317BC77-1FCA-42D3-9CA3-F7C1C5BFA6BA";
paths = (
{
closed = 1;
nodes = (
"1030 1581 OFFCURVE",
"932 1669 OFFCURVE",
"793 1669 CURVE SMOOTH",
"656 1669 OFFCURVE",
"559 1581 OFFCURVE",
"559 1444 CURVE SMOOTH",
"559 1390 OFFCURVE",
"571 1347 OFFCURVE",
"594 1315 CURVE",
"-119 0 LINE",
"133 0 LINE",
"342 397 LINE",
"825 397 LINE",
"868 0 LINE",
"1102 0 LINE",
"946 1266 LINE",
"1002 1310 OFFCURVE",
"1030 1370 OFFCURVE",
"1030 1446 CURVE SMOOTH"
);
},
{
closed = 1;
nodes = (
"761 1131 OFFCURVE",
"764 1084 OFFCURVE",
"767 1037 CURVE SMOOTH",
"770 990 OFFCURVE",
"784 846 OFFCURVE",
"809 604 CURVE",
"451 604 LINE",
"594 883 OFFCURVE",
"674 1040 OFFCURVE",
"691 1075 CURVE SMOOTH",
"707 1110 OFFCURVE",
"722 1144 OFFCURVE",
"737 1178 CURVE",
"758 1178 LINE"
);
},
{
closed = 1;
nodes = (
"897 1377 OFFCURVE",
"854 1339 OFFCURVE",
"793 1339 CURVE SMOOTH",
"722 1339 OFFCURVE",
"686 1377 OFFCURVE",
"686 1444 CURVE SMOOTH",
"686 1509 OFFCURVE",
"730 1550 OFFCURVE",
"793 1550 CURVE SMOOTH",
"854 1550 OFFCURVE",
"897 1509 OFFCURVE",
"897 1444 CURVE SMOOTH"
);
},
{
closed = 1;
nodes = (
"891 1722 LINE",
"1006 1786 OFFCURVE",
"1150 1883 OFFCURVE",
"1221 1948 CURVE",
"1221 1962 LINE",
"944 1962 LINE",
"893 1899 OFFCURVE",
"782 1789 OFFCURVE",
"725 1741 CURVE",
"725 1722 LINE"
);
}
);
width = 1210;
}
);
note = Aringacute;
unicode = 01FA;
},
{
glyphname = Atilde;
layers = (
{
background = {
paths = (
{
closed = 1;
nodes = (
"1040 0 LINE",
"856 1462 LINE",
"682 1462 LINE",
"-117 0 LINE",
"72 0 LINE",
"317 465 LINE",
"813 465 LINE",
"870 0 LINE"
);
},
{
closed = 1;
nodes = (
"538 879 OFFCURVE",
"622 1037 OFFCURVE",
"651 1095 CURVE SMOOTH",
"680 1153 OFFCURVE",
"706 1211 OFFCURVE",
"731 1270 CURVE",
"734 1156 OFFCURVE",
"744 1039 OFFCURVE",
"760 920 CURVE SMOOTH",
"795 621 LINE",
"401 621 LINE"
);
},
{
closed = 1;
nodes = (
"1045 1581 OFFCURVE",
"1123 1667 OFFCURVE",
"1167 1839 CURVE",
"1067 1839 LINE",
"1032 1755 OFFCURVE",
"1005 1722 OFFCURVE",
"946 1722 CURVE SMOOTH",
"910 1722 OFFCURVE",
"869 1751 OFFCURVE",
"822 1780 CURVE SMOOTH",
"774 1808 OFFCURVE",
"722 1837 OFFCURVE",
"663 1837 CURVE SMOOTH",
"548 1837 OFFCURVE",
"471 1751 OFFCURVE",
"432 1579 CURVE",
"532 1579 LINE",
"561 1656 OFFCURVE",
"590 1694 OFFCURVE",
"649 1694 CURVE SMOOTH",
"692 1694 OFFCURVE",
"736 1666 OFFCURVE",
"784 1638 CURVE SMOOTH",
"831 1609 OFFCURVE",
"881 1581 OFFCURVE",
"934 1581 CURVE SMOOTH"
);
}
);
};
components = (
{
alignment = -1;
name = A;
},
{
alignment = -1;
name = tilde;
transform = "{1, 0, 0, 1, 96, 338}";
}
);
layerId = "6AA17817-FAD2-45D4-8E70-7A3A6A841083";
width = 1137;
},
{
background = {
paths = (
{
closed = 1;
nodes = (
"6 0 LINE",
"293 520 LINE",
"805 520 LINE",
"874 0 LINE",
"979 0 LINE",
"778 1468 LINE",
"711 1468 LINE",
"-111 0 LINE"
);
},
{
closed = 1;
nodes = (
"525 943 OFFCURVE",
"628 1130 OFFCURVE",
"651 1175 CURVE SMOOTH",
"674 1220 OFFCURVE",
"695 1263 OFFCURVE",
"715 1305 CURVE",
"720 1198 OFFCURVE",
"733 1064 OFFCURVE",
"754 903 CURVE SMOOTH",
"793 612 LINE",
"344 612 LINE"
);
},
{
closed = 1;
nodes = (
"500 1581 LINE",
"529 1677 OFFCURVE",
"565 1710 OFFCURVE",
"625 1710 CURVE SMOOTH",
"676 1710 OFFCURVE",
"713 1682 OFFCURVE",
"758 1651 CURVE SMOOTH",
"809 1616 OFFCURVE",
"858 1587 OFFCURVE",
"911 1587 CURVE SMOOTH",
"1012 1587 OFFCURVE",
"1075 1658 OFFCURVE",
"1110 1815 CURVE",
"1034 1815 LINE",
"1010 1722 OFFCURVE",
"973 1684 OFFCURVE",
"916 1684 CURVE SMOOTH",
"888 1684 OFFCURVE",
"857 1696 OFFCURVE",
"822 1720 CURVE SMOOTH",
"765 1759 OFFCURVE",
"726 1783 OFFCURVE",
"705 1792 CURVE SMOOTH",
"683 1801 OFFCURVE",
"658 1806 OFFCURVE",
"631 1806 CURVE SMOOTH",
"522 1806 OFFCURVE",
"451 1725 OFFCURVE",
"426 1581 CURVE"
);
}
);
};
components = (
{
alignment = -1;
name = A;
},
{
alignment = -1;
name = tilde;
transform = "{1, 0, 0, 1, 80, 338}";
}
);
layerId = "4C802D5D-2BAD-4759-8C93-835BB7B64EA1";
width = 1059;
},
{
background = {
paths = (
{
closed = 1;
nodes = (
"1163 0 LINE",
"1016 1468 LINE",
"643 1468 LINE",
"-123 0 LINE",
"197 0 LINE",
"369 348 LINE",
"842 348 LINE",
"866 0 LINE"
);
},
{
closed = 1;
nodes = (
"682 993 LINE SMOOTH",
"725 1082 OFFCURVE",
"762 1167 OFFCURVE",
"791 1247 CURVE",
"791 1211 LINE SMOOTH",
"791 1130 OFFCURVE",
"794 1045 OFFCURVE",
"801 958 CURVE SMOOTH",
"827 608 LINE",
"494 608 LINE"
);
},
{
closed = 1;
nodes = (
"1146 1579 OFFCURVE",
"1242 1682 OFFCURVE",
"1286 1888 CURVE",
"1114 1888 LINE",
"1085 1815 OFFCURVE",
"1055 1782 OFFCURVE",
"1010 1782 CURVE SMOOTH",
"969 1782 OFFCURVE",
"932 1808 OFFCURVE",
"888 1834 CURVE SMOOTH",
"844 1860 OFFCURVE",
"794 1886 OFFCURVE",
"729 1886 CURVE SMOOTH",
"581 1886 OFFCURVE",
"487 1783 OFFCURVE",
"448 1577 CURVE",
"625 1577 LINE",
"644 1645 OFFCURVE",
"678 1684 OFFCURVE",
"719 1684 CURVE SMOOTH",
"763 1684 OFFCURVE",
"800 1658 OFFCURVE",
"843 1632 CURVE SMOOTH",
"886 1606 OFFCURVE",
"934 1579 OFFCURVE",
"999 1579 CURVE SMOOTH"
);
}
);
};
components = (
{
alignment = -1;
name = A;
},
{
alignment = -1;
name = tilde;
transform = "{1, 0, 0, 1, 133, 338}";
}
);
layerId = "80F7B5CA-46F0-48DD-AF7A-0C2E2531FBA7";
width = 1286;
},
{
background = {
paths = (
{
closed = 1;
nodes = (
"1249 0 LINE",
"1126 1462 LINE",
"623 1462 LINE",
"-121 0 LINE",
"285 0 LINE",
"410 274 LINE",
"858 274 LINE",
"868 0 LINE"
);
},
{
closed = 1;
nodes = (
"795 1114 OFFCURVE",
"815 1170 OFFCURVE",
"831 1227 CURVE",
"828 1190 OFFCURVE",
"827 1146 OFFCURVE",
"827 1096 CURVE SMOOTH",
"829 1010 LINE",
"846 586 LINE",
"553 586 LINE",
"770 1061 LINE SMOOTH"
);
},
{
closed = 1;
nodes = (
"1216 1577 OFFCURVE",
"1319 1690 OFFCURVE",
"1364 1919 CURVE",
"1174 1919 LINE",
"1149 1852 OFFCURVE",
"1111 1819 OFFCURVE",
"1059 1819 CURVE SMOOTH",
"1016 1819 OFFCURVE",
"967 1845 OFFCURVE",
"926 1868 CURVE SMOOTH",
"834 1916 OFFCURVE",
"817 1917 OFFCURVE",
"772 1917 CURVE SMOOTH",
"601 1917 OFFCURVE",
"502 1804 OFFCURVE",
"459 1575 CURVE",
"647 1575 LINE",
"656 1636 OFFCURVE",
"703 1675 OFFCURVE",
"744 1675 CURVE SMOOTH",
"780 1675 OFFCURVE",
"822 1660 OFFCURVE",
"871 1630 CURVE",
"882 1624 OFFCURVE",
"898 1616 OFFCURVE",
"917 1607 CURVE SMOOTH",
"956 1588 OFFCURVE",
"999 1577 OFFCURVE",
"1043 1577 CURVE SMOOTH"
);
}
);
};
components = (
{
alignment = -1;
name = A;
},
{
alignment = -1;
name = tilde;
transform = "{1, 0, 0, 1, 158, 338}";
}
);
layerId = "0B5E954E-D3E5-4A16-AD17-8B1BCB8BDBD4";
width = 1384;
},
{
components = (
{
name = A;
},
{
name = tilde;
transform = "{1, 0, 0, 1, 115, 338}";
}
);
layerId = "2317BC77-1FCA-42D3-9CA3-F7C1C5BFA6BA";
width = 1210;
}
);
note = Atilde;
unicode = 00C3;
},
{
glyphname = AE;
layers = (
{
layerId = "6AA17817-FAD2-45D4-8E70-7A3A6A841083";
paths = (
{
closed = 1;
nodes = (
"915 152 LINE",
"1030 690 LINE",
"1559 690 LINE",
"1587 840 LINE",
"1059 840 LINE",
"1159 1309 LINE",
"1724 1309 LINE",
"1757 1462 LINE",
"819 1462 LINE",
"-119 0 LINE",
"78 0 LINE",
"371 465 LINE",
"809 465 LINE",
"711 0 LINE",
"1448 0 LINE",
"1481 152 LINE"
);
},
{
closed = 1;
nodes = (
"903 1309 LINE",
"987 1309 LINE",
"840 621 LINE",
"469 621 LINE"
);
}
);
width = 1673;
},
{
anchors = (
{
name = bottom;
position = "{704, 0}";
},
{
name = top;
position = "{1015, 1462}";
}
);
layerId = "4C802D5D-2BAD-4759-8C93-835BB7B64EA1";
paths = (
{
closed = 1;
nodes = (
"797 94 LINE",
"932 721 LINE",
"1520 721 LINE",
"1540 815 LINE",
"950 815 LINE",
"1067 1368 LINE",
"1692 1368 LINE",
"1712 1462 LINE",
"829 1462 LINE",
"-117 0 LINE",
"14 0 LINE",
"342 522 LINE",
"786 522 LINE",
"676 0 LINE",
"1403 0 LINE",
"1423 94 LINE"
);
},
{
closed = 1;
nodes = (
"965 1368 LINE",
"809 627 LINE",
"408 627 LINE",
"877 1368 LINE"
);
}
);
width = 1640;
},
{
anchors = (
{
name = bottom;
position = "{798, 0}";
},
{
name = top;
position = "{1109, 1462}";
}
);
layerId = "80F7B5CA-46F0-48DD-AF7A-0C2E2531FBA7";
paths = (
{
closed = 1;
nodes = (
"1135 256 LINE",
"1214 633 LINE",
"1692 633 LINE",
"1747 887 LINE",
"1270 887 LINE",
"1337 1208 LINE",
"1849 1208 LINE",
"1903 1462 LINE",
"799 1462 LINE",
"-123 0 LINE",
"205 0 LINE",
"424 348 LINE",
"850 348 LINE",
"776 0 LINE",
"1593 0 LINE",
"1647 256 LINE"
);
},
{
closed = 1;
nodes = (
"952 1208 LINE",
"1032 1208 LINE",
"905 608 LINE",
"588 608 LINE"
);
}
);
width = 1833;
},
{
layerId = "0B5E954E-D3E5-4A16-AD17-8B1BCB8BDBD4";
paths = (
{
closed = 1;
nodes = (
"1278 322 LINE",
"1335 598 LINE",
"1780 598 LINE",
"1851 915 LINE",
"1407 915 LINE",
"1454 1145 LINE",
"1931 1145 LINE",
"1997 1462 LINE",
"784 1462 LINE",
"-125 0 LINE",
"289 0 LINE",
"459 274 LINE",
"877 274 LINE",
"819 0 LINE",
"1688 0 LINE",
"1755 322 LINE"
);
},
{
closed = 1;
nodes = (
"993 1145 LINE",
"1061 1145 LINE",
"948 602 LINE",
"662 602 LINE"
);
}
);
width = 1937;
},
{
anchors = (
{
name = bottom;
position = "{759, 0}";
},
{
name = top;
position = "{1070, 1462}";
}
);
layerId = "2317BC77-1FCA-42D3-9CA3-F7C1C5BFA6BA";
paths = (
{
closed = 1;
nodes = (
"1024 203 LINE",
"1122 662 LINE",
"1624 662 LINE",
"1667 862 LINE",
"1163 862 LINE",
"1247 1257 LINE",
"1786 1257 LINE",
"1829 1462 LINE",
"809 1462 LINE",
"-121 0 LINE",
"141 0 LINE",
"397 406 LINE",
"829 406 LINE",
"743 0 LINE",
"1520 0 LINE",
"1563 203 LINE"
);
},
{
closed = 1;
nodes = (
"928 1257 LINE",
"1010 1257 LINE",
"872 614 LINE",
"528 614 LINE"
);
}
);
width = 1753;
}
);
note = AE;
unicode = 00C6;
},
{
glyphname = AEacute;
layers = (
{
background = {
paths = (
{
closed = 1;
nodes = (
"915 152 LINE",
"1030 690 LINE",
"1559 690 LINE",
"1587 840 LINE",
"1059 840 LINE",
"1159 1309 LINE",
"1724 1309 LINE",
"1757 1462 LINE",
"819 1462 LINE",
"-119 0 LINE",
"78 0 LINE",
"371 465 LINE",
"809 465 LINE",
"711 0 LINE",
"1448 0 LINE",
"1481 152 LINE"
);
},
{
closed = 1;
nodes = (
"903 1309 LINE",
"987 1309 LINE",
"840 621 LINE",
"469 621 LINE"
);
},
{
closed = 1;
nodes = (
"1233 1579 LINE",
"1333 1651 OFFCURVE",
"1499 1821 OFFCURVE",
"1550 1886 CURVE",
"1550 1907 LINE",
"1360 1907 LINE",
"1311 1830 OFFCURVE",
"1203 1686 OFFCURVE",
"1128 1606 CURVE",
"1128 1579 LINE"
);
}
);
};
components = (
{
alignment = -1;
name = AE;
},
{
alignment = -1;
name = acute;
transform = "{1, 0, 0, 1, 596, 338}";
}
);
layerId = "6AA17817-FAD2-45D4-8E70-7A3A6A841083";
width = 1673;
},
{
background = {
paths = (
{
closed = 1;
nodes = (
"797 94 LINE",
"932 721 LINE",
"1520 721 LINE",
"1540 815 LINE",
"950 815 LINE",
"1067 1368 LINE",
"1692 1368 LINE",
"1712 1462 LINE",
"829 1462 LINE",
"-117 0 LINE",
"14 0 LINE",
"342 522 LINE",
"786 522 LINE",
"676 0 LINE",
"1403 0 LINE",
"1423 94 LINE"
);
},
{
closed = 1;
nodes = (
"965 1368 LINE",
"809 627 LINE",
"408 627 LINE",
"877 1368 LINE"
);
},
{
closed = 1;
nodes = (
"1167 1579 LINE",
"1282 1651 OFFCURVE",
"1449 1796 OFFCURVE",
"1517 1884 CURVE",
"1517 1907 LINE",
"1380 1907 LINE",
"1320 1808 OFFCURVE",
"1188 1668 OFFCURVE",
"1100 1600 CURVE",
"1100 1579 LINE"
);
}
);
};
components = (
{
alignment = -1;
name = AE;
},
{
alignment = -1;
name = acute;
transform = "{1, 0, 0, 1, 520, 338}";
}
);
layerId = "4C802D5D-2BAD-4759-8C93-835BB7B64EA1";
width = 1640;
},
{
background = {
paths = (
{
closed = 1;
nodes = (
"1135 256 LINE",
"1214 633 LINE",
"1692 633 LINE",
"1747 887 LINE",
"1270 887 LINE",
"1337 1208 LINE",
"1849 1208 LINE",
"1903 1462 LINE",
"799 1462 LINE",
"-123 0 LINE",
"205 0 LINE",
"424 348 LINE",
"850 348 LINE",
"776 0 LINE",
"1593 0 LINE",
"1647 256 LINE"
);
},
{
closed = 1;
nodes = (
"952 1208 LINE",
"1032 1208 LINE",
"905 608 LINE",
"588 608 LINE"
);
},
{
closed = 1;
nodes = (
"1337 1579 LINE",
"1452 1662 OFFCURVE",
"1624 1815 OFFCURVE",
"1685 1890 CURVE",
"1685 1907 LINE",
"1350 1907 LINE",
"1255 1764 OFFCURVE",
"1181 1663 OFFCURVE",
"1128 1604 CURVE",
"1128 1579 LINE"
);
}
);
};
components = (
{
alignment = -1;
name = AE;
},
{
alignment = -1;
name = acute;
transform = "{1, 0, 0, 1, 645, 338}";
}
);
layerId = "80F7B5CA-46F0-48DD-AF7A-0C2E2531FBA7";
width = 1833;
},
{
background = {
paths = (
{
closed = 1;
nodes = (
"1278 322 LINE",
"1335 598 LINE",
"1780 598 LINE",
"1851 915 LINE",
"1407 915 LINE",
"1454 1145 LINE",
"1931 1145 LINE",
"1997 1462 LINE",
"784 1462 LINE",
"-125 0 LINE",
"289 0 LINE",
"459 274 LINE",
"877 274 LINE",
"819 0 LINE",
"1688 0 LINE",
"1755 322 LINE"
);
},
{
closed = 1;
nodes = (
"993 1145 LINE",
"1061 1145 LINE",
"948 602 LINE",
"662 602 LINE"
);
},
{
closed = 1;
nodes = (
"1413 1579 LINE",
"1545 1650 OFFCURVE",
"1790 1820 OFFCURVE",
"1850 1892 CURVE",
"1850 1907 LINE",
"1411 1907 LINE",
"1305 1772 OFFCURVE",
"1211 1670 OFFCURVE",
"1129 1602 CURVE",
"1129 1579 LINE"
);
}
);
};
components = (
{
alignment = -1;
name = AE;
},
{
alignment = -1;
name = acute;
transform = "{1, 0, 0, 1, 676, 338}";
}
);
layerId = "0B5E954E-D3E5-4A16-AD17-8B1BCB8BDBD4";
width = 1937;
},
{
components = (
{
name = AE;
},
{
name = acute;
transform = "{1, 0, 0, 1, 621, 338}";
}
);
layerId = "2317BC77-1FCA-42D3-9CA3-F7C1C5BFA6BA";
width = 1753;
}
);
note = AEacute;
unicode = 01FC;
},
{
glyphname = B;
layers = (
{
layerId = "6AA17817-FAD2-45D4-8E70-7A3A6A841083";
paths = (
{
closed = 1;
nodes = (
"86 0 LINE",
"549 0 LINE SMOOTH",
"889 0 OFFCURVE",
"1108 170 OFFCURVE",
"1108 453 CURVE SMOOTH",
"1108 600 OFFCURVE",
"1023 709 OFFCURVE",
"870 752 CURVE",
"870 762 LINE",
"1081 801 OFFCURVE",
"1202 938 OFFCURVE",
"1202 1126 CURVE SMOOTH",
"1202 1350 OFFCURVE",
"1058 1462 OFFCURVE",
"770 1462 CURVE SMOOTH",
"395 1462 LINE"
);
},
{
closed = 1;
nodes = (
"748 1315 LINE SMOOTH",
"939 1315 OFFCURVE",
"1024 1247 OFFCURVE",
"1024 1108 CURVE SMOOTH",
"1024 940 OFFCURVE",
"890 836 OFFCURVE",
"682 836 CURVE SMOOTH",
"434 836 LINE",
"537 1315 LINE"
);
},
{
closed = 1;
nodes = (
"639 692 LINE SMOOTH",
"826 692 OFFCURVE",
"928 608 OFFCURVE",
"928 453 CURVE SMOOTH",
"928 257 OFFCURVE",
"794 145 OFFCURVE",
"553 145 CURVE SMOOTH",
"287 145 LINE",
"403 692 LINE"
);
}
);
width = 1225;
},
{
anchors = (
{
name = bottom;
position = "{485, 0}";
},
{
name = top;
position = "{796, 1462}";
}
);
layerId = "4C802D5D-2BAD-4759-8C93-835BB7B64EA1";
paths = (
{
closed = 1;
nodes = (
"559 0 LINE SMOOTH",
"892 0 OFFCURVE",
"1090 169 OFFCURVE",
"1090 442 CURVE SMOOTH",
"1090 605 OFFCURVE",
"1005 719 OFFCURVE",
"838 760 CURVE",
"838 764 LINE",
"1057 801 OFFCURVE",
"1182 933 OFFCURVE",
"1182 1137 CURVE SMOOTH",
"1182 1346 OFFCURVE",
"1044 1462 OFFCURVE",
"791 1462 CURVE SMOOTH",
"412 1462 LINE",
"102 0 LINE"
);
},
{
closed = 1;
nodes = (
"768 1372 LINE SMOOTH",
"969 1372 OFFCURVE",
"1075 1289 OFFCURVE",
"1075 1130 CURVE SMOOTH",
"1075 921 OFFCURVE",
"930 811 OFFCURVE",
"655 811 CURVE SMOOTH",
"377 811 LINE",
"496 1372 LINE"
);
},
{
closed = 1;
nodes = (
"865 721 OFFCURVE",
"983 627 OFFCURVE",
"983 434 CURVE SMOOTH",
"983 209 OFFCURVE",
"833 90 OFFCURVE",
"565 90 CURVE SMOOTH",
"223 90 LINE",
"358 721 LINE",
"618 721 LINE SMOOTH"
);
}
);
width = 1202;
},
{
anchors = (
{
name = bottom;
position = "{516, 0}";
},
{
name = top;
position = "{827, 1462}";
}
);
layerId = "80F7B5CA-46F0-48DD-AF7A-0C2E2531FBA7";
paths = (
{
closed = 1;
nodes = (
"53 0 LINE",
"575 0 LINE SMOOTH",
"935 0 OFFCURVE",
"1151 172 OFFCURVE",
"1151 477 CURVE SMOOTH",
"1151 624 OFFCURVE",
"1065 719 OFFCURVE",
"932 754 CURVE",
"932 760 LINE",
"1136 803 OFFCURVE",
"1251 937 OFFCURVE",
"1251 1137 CURVE SMOOTH",
"1251 1353 OFFCURVE",
"1093 1462 OFFCURVE",
"788 1462 CURVE SMOOTH",
"362 1462 LINE"
);
},
{
closed = 1;
nodes = (
"766 1208 LINE SMOOTH",
"879 1208 OFFCURVE",
"936 1162 OFFCURVE",
"936 1071 CURVE SMOOTH",
"936 950 OFFCURVE",
"855 883 OFFCURVE",
"694 883 CURVE SMOOTH",
"545 883 LINE",
"614 1208 LINE"
);
},
{
closed = 1;
nodes = (
"659 637 LINE SMOOTH",
"781 637 OFFCURVE",
"842 583 OFFCURVE",
"842 475 CURVE SMOOTH",
"842 338 OFFCURVE",
"748 256 OFFCURVE",
"592 256 CURVE SMOOTH",
"412 256 LINE",
"494 637 LINE"
);
}
);
width = 1270;
},
{
layerId = "0B5E954E-D3E5-4A16-AD17-8B1BCB8BDBD4";
paths = (
{
closed = 1;
nodes = (
"580 0 LINE SMOOTH",
"953 0 OFFCURVE",
"1165 174 OFFCURVE",
"1165 479 CURVE SMOOTH",
"1165 619 OFFCURVE",
"1090 719 OFFCURVE",
"973 758 CURVE",
"973 766 LINE",
"1171 825 OFFCURVE",
"1270 951 OFFCURVE",
"1270 1143 CURVE SMOOTH",
"1270 1348 OFFCURVE",
"1118 1462 OFFCURVE",
"829 1462 CURVE SMOOTH",
"342 1462 LINE",
"33 0 LINE"
);
},
{
closed = 1;
nodes = (
"737 1163 LINE SMOOTH",
"822 1163 OFFCURVE",
"864 1129 OFFCURVE",
"864 1061 CURVE SMOOTH",
"864 949 OFFCURVE",
"803 901 OFFCURVE",
"686 901 CURVE SMOOTH",
"614 901 LINE",
"674 1163 LINE"
);
},
{
closed = 1;
nodes = (
"734 612 OFFCURVE",
"772 567 OFFCURVE",
"772 475 CURVE SMOOTH",
"772 378 OFFCURVE",
"686 305 OFFCURVE",
"571 305 CURVE SMOOTH",
"489 305 LINE",
"555 612 LINE",
"623 612 LINE SMOOTH"
);
}
);
width = 1298;
},
{
anchors = (
{
name = bottom;
position = "{506, 0}";
},
{
name = top;
position = "{817, 1462}";
}
);
layerId = "2317BC77-1FCA-42D3-9CA3-F7C1C5BFA6BA";
paths = (
{
closed = 1;
nodes = (
"70 0 LINE",
"561 0 LINE SMOOTH",
"917 0 OFFCURVE",
"1128 176 OFFCURVE",
"1128 465 CURVE SMOOTH",
"1128 609 OFFCURVE",
"1045 715 OFFCURVE",
"901 752 CURVE",
"901 760 LINE",
"1105 800 OFFCURVE",
"1227 935 OFFCURVE",
"1227 1130 CURVE SMOOTH",
"1227 1349 OFFCURVE",
"1074 1462 OFFCURVE",
"778 1462 CURVE SMOOTH",
"379 1462 LINE"
);
},
{
closed = 1;
nodes = (
"756 1262 LINE SMOOTH",
"905 1262 OFFCURVE",
"979 1205 OFFCURVE",
"979 1090 CURVE SMOOTH",
"979 942 OFFCURVE",
"873 858 OFFCURVE",
"688 858 CURVE SMOOTH",
"489 858 LINE",
"575 1262 LINE"
);
},
{
closed = 1;
nodes = (
"649 664 LINE SMOOTH",
"804 664 OFFCURVE",
"885 594 OFFCURVE",
"885 463 CURVE SMOOTH",
"885 295 OFFCURVE",
"767 201 OFFCURVE",
"571 201 CURVE SMOOTH",
"348 201 LINE",
"449 664 LINE"
);
}
);
width = 1247;
}
);
note = B;
unicode = 0042;
},
{
glyphname = C;
layers = (
{
layerId = "6AA17817-FAD2-45D4-8E70-7A3A6A841083";
paths = (
{
closed = 1;
nodes = (
"1036 1331 OFFCURVE",
"1129 1308 OFFCURVE",
"1221 1262 CURVE",
"1290 1403 LINE",
"1189 1456 OFFCURVE",
"1073 1483 OFFCURVE",
"942 1483 CURVE SMOOTH",
"792 1483 OFFCURVE",
"658 1444 OFFCURVE",
"539 1365 CURVE SMOOTH",
"302 1208 OFFCURVE",
"150 885 OFFCURVE",
"150 537 CURVE SMOOTH",
"150 193 OFFCURVE",
"345 -20 OFFCURVE",
"668 -20 CURVE SMOOTH",
"815 -20 OFFCURVE",
"905 -2 OFFCURVE",
"1020 39 CURVE",
"1020 188 LINE",
"898 150 OFFCURVE",
"791 131 OFFCURVE",
"698 131 CURVE SMOOTH",
"470 131 OFFCURVE",
"332 292 OFFCURVE",
"332 541 CURVE SMOOTH",
"332 688 OFFCURVE",
"359 825 OFFCURVE",
"413 950 CURVE SMOOTH",
"520 1200 OFFCURVE",
"710 1331 OFFCURVE",
"942 1331 CURVE SMOOTH"
);
}
);
width = 1198;
},
{
anchors = (
{
name = bottom;
position = "{469, 0}";
},
{
name = top;
position = "{780, 1462}";
}
);
layerId = "4C802D5D-2BAD-4759-8C93-835BB7B64EA1";
paths = (
{
closed = 1;
nodes = (
"1052 1389 OFFCURVE",
"1150 1365 OFFCURVE",
"1223 1325 CURVE",
"1268 1415 LINE",
"1181 1460 OFFCURVE",
"1079 1483 OFFCURVE",
"961 1483 CURVE SMOOTH",
"813 1483 OFFCURVE",
"679 1443 OFFCURVE",
"559 1364 CURVE SMOOTH",
"319 1205 OFFCURVE",
"170 890 OFFCURVE",
"170 535 CURVE SMOOTH",
"170 182 OFFCURVE",
"354 -20 OFFCURVE",
"690 -20 CURVE SMOOTH",
"797 -20 OFFCURVE",
"902 -4 OFFCURVE",
"1006 29 CURVE",
"1006 123 LINE",
"897 89 OFFCURVE",
"795 72 OFFCURVE",
"702 72 CURVE SMOOTH",
"426 72 OFFCURVE",
"274 239 OFFCURVE",
"274 539 CURVE SMOOTH",
"274 700 OFFCURVE",
"304 847 OFFCURVE",
"365 980 CURVE SMOOTH",
"485 1247 OFFCURVE",
"698 1389 OFFCURVE",
"961 1389 CURVE SMOOTH"
);
}
);
width = 1169;
},
{
anchors = (
{
name = bottom;
position = "{508, 0}";
},
{
name = top;
position = "{819, 1462}";
}
);
layerId = "80F7B5CA-46F0-48DD-AF7A-0C2E2531FBA7";
paths = (
{
closed = 1;
nodes = (
"996 1227 OFFCURVE",
"1076 1209 OFFCURVE",
"1217 1130 CURVE",
"1335 1380 LINE",
"1187 1460 OFFCURVE",
"1072 1485 OFFCURVE",
"905 1485 CURVE SMOOTH",
"754 1485 OFFCURVE",
"621 1447 OFFCURVE",
"505 1371 CURVE SMOOTH",
"273 1218 OFFCURVE",
"123 902 OFFCURVE",
"123 553 CURVE SMOOTH",
"123 188 OFFCURVE",
"320 -20 OFFCURVE",
"659 -20 CURVE SMOOTH",
"793 -20 OFFCURVE",
"926 6 OFFCURVE",
"1059 57 CURVE",
"1059 317 LINE",
"931 266 OFFCURVE",
"818 240 OFFCURVE",
"721 240 CURVE SMOOTH",
"521 240 OFFCURVE",
"434 346 OFFCURVE",
"434 569 CURVE SMOOTH",
"434 690 OFFCURVE",
"455 803 OFFCURVE",
"498 908 CURVE SMOOTH",
"583 1118 OFFCURVE",
"729 1227 OFFCURVE",
"905 1227 CURVE SMOOTH"
);
}
);
width = 1253;
},
{
layerId = "0B5E954E-D3E5-4A16-AD17-8B1BCB8BDBD4";
paths = (
{
closed = 1;
nodes = (
"993 1159 OFFCURVE",
"1090 1122 OFFCURVE",
"1214 1049 CURVE",
"1362 1354 LINE",
"1218 1441 OFFCURVE",
"1058 1485 OFFCURVE",
"881 1485 CURVE SMOOTH",
"731 1485 OFFCURVE",
"598 1447 OFFCURVE",
"482 1372 CURVE SMOOTH",
"249 1221 OFFCURVE",
"104 904 OFFCURVE",
"104 549 CURVE SMOOTH",
"104 186 OFFCURVE",
"298 -20 OFFCURVE",
"645 -20 CURVE SMOOTH",
"803 -20 OFFCURVE",
"950 10 OFFCURVE",
"1085 70 CURVE",
"1085 393 LINE",
"932 328 OFFCURVE",
"828 303 OFFCURVE",
"717 303 CURVE SMOOTH",
"577 303 OFFCURVE",
"500 390 OFFCURVE",
"500 569 CURVE SMOOTH",
"500 676 OFFCURVE",
"517 775 OFFCURVE",
"550 866 CURVE SMOOTH",
"616 1049 OFFCURVE",
"737 1159 OFFCURVE",
"881 1159 CURVE SMOOTH"
);
}
);
width = 1290;
},
{
anchors = (
{
name = bottom;
position = "{495, 0}";
},
{
name = top;
position = "{806, 1462}";
}
);
layerId = "2317BC77-1FCA-42D3-9CA3-F7C1C5BFA6BA";
paths = (
{
closed = 1;
nodes = (
"1044 1278 OFFCURVE",
"1135 1241 OFFCURVE",
"1219 1196 CURVE",
"1313 1391 LINE",
"1198 1452 OFFCURVE",
"1069 1483 OFFCURVE",
"924 1483 CURVE SMOOTH",
"773 1483 OFFCURVE",
"639 1444 OFFCURVE",
"522 1367 CURVE SMOOTH",
"287 1212 OFFCURVE",
"135 892 OFFCURVE",
"135 545 CURVE SMOOTH",
"135 188 OFFCURVE",
"333 -20 OFFCURVE",
"664 -20 CURVE SMOOTH",
"793 -20 OFFCURVE",
"918 2 OFFCURVE",
"1038 47 CURVE",
"1038 252 LINE",
"913 207 OFFCURVE",
"803 184 OFFCURVE",
"709 184 CURVE SMOOTH",
"494 184 OFFCURVE",
"383 315 OFFCURVE",
"383 555 CURVE SMOOTH",
"383 691 OFFCURVE",
"407 816 OFFCURVE",
"456 930 CURVE SMOOTH",
"552 1157 OFFCURVE",
"719 1278 OFFCURVE",
"924 1278 CURVE SMOOTH"
);
}
);
width = 1225;
}
);
note = C;
unicode = 0043;
},
{
glyphname = Cacute;
layers = (
{
background = {
paths = (
{
closed = 1;
nodes = (
"1036 1331 OFFCURVE",
"1129 1308 OFFCURVE",
"1221 1262 CURVE",
"1290 1403 LINE",
"1189 1456 OFFCURVE",
"1073 1483 OFFCURVE",
"942 1483 CURVE SMOOTH",
"792 1483 OFFCURVE",
"658 1444 OFFCURVE",
"539 1365 CURVE SMOOTH",
"302 1208 OFFCURVE",
"150 885 OFFCURVE",
"150 537 CURVE SMOOTH",
"150 193 OFFCURVE",
"345 -20 OFFCURVE",
"668 -20 CURVE SMOOTH",
"815 -20 OFFCURVE",
"905 -2 OFFCURVE",
"1020 39 CURVE",
"1020 188 LINE",
"898 150 OFFCURVE",
"791 131 OFFCURVE",
"698 131 CURVE SMOOTH",
"470 131 OFFCURVE",
"332 292 OFFCURVE",
"332 541 CURVE SMOOTH",
"332 688 OFFCURVE",
"359 825 OFFCURVE",
"413 950 CURVE SMOOTH",
"520 1200 OFFCURVE",
"710 1331 OFFCURVE",
"942 1331 CURVE SMOOTH"
);
},
{
closed = 1;
nodes = (
"950 1579 LINE",
"1050 1651 OFFCURVE",
"1216 1821 OFFCURVE",
"1267 1886 CURVE",
"1267 1907 LINE",
"1077 1907 LINE",
"1028 1830 OFFCURVE",
"920 1686 OFFCURVE",
"845 1606 CURVE",
"845 1579 LINE"
);
}
);
};
components = (
{
alignment = -1;
name = C;
},
{
alignment = -1;
name = acute;
transform = "{1, 0, 0, 1, 313, 338}";
}
);
layerId = "6AA17817-FAD2-45D4-8E70-7A3A6A841083";
width = 1198;
},
{
background = {
paths = (
{
closed = 1;
nodes = (
"1052 1389 OFFCURVE",
"1150 1365 OFFCURVE",
"1223 1325 CURVE",
"1268 1415 LINE",
"1181 1460 OFFCURVE",
"1079 1483 OFFCURVE",
"961 1483 CURVE SMOOTH",
"813 1483 OFFCURVE",
"679 1443 OFFCURVE",
"559 1364 CURVE SMOOTH",
"319 1205 OFFCURVE",
"170 890 OFFCURVE",
"170 535 CURVE SMOOTH",
"170 182 OFFCURVE",
"354 -20 OFFCURVE",
"690 -20 CURVE SMOOTH",
"797 -20 OFFCURVE",
"902 -4 OFFCURVE",
"1006 29 CURVE",
"1006 123 LINE",
"897 89 OFFCURVE",
"795 72 OFFCURVE",
"702 72 CURVE SMOOTH",
"426 72 OFFCURVE",
"274 239 OFFCURVE",
"274 539 CURVE SMOOTH",
"274 700 OFFCURVE",
"304 847 OFFCURVE",
"365 980 CURVE SMOOTH",
"485 1247 OFFCURVE",
"698 1389 OFFCURVE",
"961 1389 CURVE SMOOTH"
);
},
{
closed = 1;
nodes = (
"923 1579 LINE",
"1038 1651 OFFCURVE",
"1205 1796 OFFCURVE",
"1273 1884 CURVE",
"1273 1907 LINE",
"1136 1907 LINE",
"1076 1808 OFFCURVE",
"944 1668 OFFCURVE",
"856 1600 CURVE",
"856 1579 LINE"
);
}
);
};
components = (
{
alignment = -1;
name = C;
},
{
alignment = -1;
name = acute;
transform = "{1, 0, 0, 1, 276, 338}";
}
);
layerId = "4C802D5D-2BAD-4759-8C93-835BB7B64EA1";
width = 1169;
},
{
background = {
paths = (
{
closed = 1;
nodes = (
"996 1227 OFFCURVE",
"1076 1209 OFFCURVE",
"1217 1130 CURVE",
"1335 1380 LINE",
"1187 1460 OFFCURVE",
"1072 1485 OFFCURVE",
"905 1485 CURVE SMOOTH",
"754 1485 OFFCURVE",
"621 1447 OFFCURVE",
"505 1371 CURVE SMOOTH",
"273 1218 OFFCURVE",
"123 902 OFFCURVE",
"123 553 CURVE SMOOTH",
"123 188 OFFCURVE",
"320 -20 OFFCURVE",
"659 -20 CURVE SMOOTH",
"793 -20 OFFCURVE",
"926 6 OFFCURVE",
"1059 57 CURVE",
"1059 317 LINE",
"931 266 OFFCURVE",
"818 240 OFFCURVE",
"721 240 CURVE SMOOTH",
"521 240 OFFCURVE",
"434 346 OFFCURVE",
"434 569 CURVE SMOOTH",
"434 690 OFFCURVE",
"455 803 OFFCURVE",
"498 908 CURVE SMOOTH",
"583 1118 OFFCURVE",
"729 1227 OFFCURVE",
"905 1227 CURVE SMOOTH"
);
},
{
closed = 1;
nodes = (
"944 1579 LINE",
"1059 1662 OFFCURVE",
"1231 1815 OFFCURVE",
"1292 1890 CURVE",
"1292 1907 LINE",
"957 1907 LINE",
"862 1764 OFFCURVE",
"788 1663 OFFCURVE",
"735 1604 CURVE",
"735 1579 LINE"
);
}
);
};
components = (
{
alignment = -1;
name = C;
},
{
alignment = -1;
name = acute;
transform = "{1, 0, 0, 1, 252, 338}";
}
);
layerId = "80F7B5CA-46F0-48DD-AF7A-0C2E2531FBA7";
width = 1253;
},
{
background = {
paths = (
{
closed = 1;
nodes = (
"993 1159 OFFCURVE",
"1090 1122 OFFCURVE",
"1214 1049 CURVE",
"1362 1354 LINE",
"1218 1441 OFFCURVE",
"1058 1485 OFFCURVE",
"881 1485 CURVE SMOOTH",
"731 1485 OFFCURVE",
"598 1447 OFFCURVE",
"482 1372 CURVE SMOOTH",
"249 1221 OFFCURVE",
"104 904 OFFCURVE",
"104 549 CURVE SMOOTH",
"104 186 OFFCURVE",
"298 -20 OFFCURVE",
"645 -20 CURVE SMOOTH",
"803 -20 OFFCURVE",
"950 10 OFFCURVE",
"1085 70 CURVE",
"1085 393 LINE",
"932 328 OFFCURVE",
"828 303 OFFCURVE",
"717 303 CURVE SMOOTH",
"577 303 OFFCURVE",
"500 390 OFFCURVE",
"500 569 CURVE SMOOTH",
"500 676 OFFCURVE",
"517 775 OFFCURVE",
"550 866 CURVE SMOOTH",
"616 1049 OFFCURVE",
"737 1159 OFFCURVE",
"881 1159 CURVE SMOOTH"
);
},
{
closed = 1;
nodes = (
"948 1579 LINE",
"1080 1650 OFFCURVE",
"1325 1820 OFFCURVE",
"1385 1892 CURVE",
"1385 1907 LINE",
"946 1907 LINE",
"840 1772 OFFCURVE",
"746 1670 OFFCURVE",
"664 1602 CURVE",
"664 1579 LINE"
);
}
);
};
components = (
{
alignment = -1;
name = C;
},
{
alignment = -1;
name = acute;
transform = "{1, 0, 0, 1, 211, 338}";
}
);
layerId = "0B5E954E-D3E5-4A16-AD17-8B1BCB8BDBD4";
width = 1290;
},
{
components = (
{
name = C;
},
{
name = acute;
transform = "{1, 0, 0, 1, 283, 338}";
}
);
layerId = "2317BC77-1FCA-42D3-9CA3-F7C1C5BFA6BA";
width = 1225;
}
);
note = Cacute;
unicode = 0106;
},
{
glyphname = Ccaron;
layers = (
{
background = {
paths = (
{
closed = 1;
nodes = (
"1036 1331 OFFCURVE",
"1129 1308 OFFCURVE",
"1221 1262 CURVE",
"1290 1403 LINE",
"1189 1456 OFFCURVE",
"1073 1483 OFFCURVE",
"942 1483 CURVE SMOOTH",
"792 1483 OFFCURVE",
"658 1444 OFFCURVE",
"539 1365 CURVE SMOOTH",
"302 1208 OFFCURVE",
"150 885 OFFCURVE",
"150 537 CURVE SMOOTH",
"150 193 OFFCURVE",
"345 -20 OFFCURVE",
"668 -20 CURVE SMOOTH",
"815 -20 OFFCURVE",
"905 -2 OFFCURVE",
"1020 39 CURVE",
"1020 188 LINE",
"898 150 OFFCURVE",
"791 131 OFFCURVE",
"698 131 CURVE SMOOTH",
"470 131 OFFCURVE",
"332 292 OFFCURVE",
"332 541 CURVE SMOOTH",
"332 688 OFFCURVE",
"359 825 OFFCURVE",
"413 950 CURVE SMOOTH",
"520 1200 OFFCURVE",
"710 1331 OFFCURVE",
"942 1331 CURVE SMOOTH"
);
},
{
closed = 1;
nodes = (
"676 1814 LINE SMOOTH",
"737 1721 OFFCURVE",
"778 1642 OFFCURVE",
"801 1579 CURVE",
"961 1579 LINE",
"1004 1648 OFFCURVE",
"1131 1777 OFFCURVE",
"1247 1880 CURVE",
"1247 1907 LINE",
"1141 1907 LINE",
"1059 1854 OFFCURVE",
"977 1791 OFFCURVE",
"895 1718 CURVE",
"839 1794 OFFCURVE",
"788 1864 OFFCURVE",
"733 1907 CURVE",
"633 1907 LINE",
"633 1880 LINE"
);
}
);
};
components = (
{
alignment = -1;
name = C;
},
{
alignment = -1;
name = caron;
transform = "{1, 0, 0, 1, 166, 338}";
}
);
layerId = "6AA17817-FAD2-45D4-8E70-7A3A6A841083";
width = 1198;
},
{
background = {
paths = (
{
closed = 1;
nodes = (
"1052 1389 OFFCURVE",
"1150 1365 OFFCURVE",
"1223 1325 CURVE",
"1268 1415 LINE",
"1181 1460 OFFCURVE",
"1079 1483 OFFCURVE",
"961 1483 CURVE SMOOTH",
"813 1483 OFFCURVE",
"679 1443 OFFCURVE",
"559 1364 CURVE SMOOTH",
"319 1205 OFFCURVE",
"170 890 OFFCURVE",
"170 535 CURVE SMOOTH",
"170 182 OFFCURVE",
"354 -20 OFFCURVE",
"690 -20 CURVE SMOOTH",
"797 -20 OFFCURVE",
"902 -4 OFFCURVE",
"1006 29 CURVE",
"1006 123 LINE",
"897 89 OFFCURVE",
"795 72 OFFCURVE",
"702 72 CURVE SMOOTH",
"426 72 OFFCURVE",
"274 239 OFFCURVE",
"274 539 CURVE SMOOTH",
"274 700 OFFCURVE",
"304 847 OFFCURVE",
"365 980 CURVE SMOOTH",
"485 1247 OFFCURVE",
"698 1389 OFFCURVE",
"961 1389 CURVE SMOOTH"
);
},
{
closed = 1;
nodes = (
"736 1802 OFFCURVE",
"807 1678 OFFCURVE",
"846 1579 CURVE",
"909 1579 LINE",
"965 1662 OFFCURVE",
"1103 1805 OFFCURVE",
"1194 1878 CURVE",
"1194 1907 LINE",
"1141 1907 LINE",
"1068 1860 OFFCURVE",
"964 1776 OFFCURVE",
"891 1700 CURVE",
"831 1797 OFFCURVE",
"777 1866 OFFCURVE",
"729 1907 CURVE",
"680 1907 LINE",
"680 1878 LINE"
);
}
);
};
components = (
{
alignment = -1;
name = C;
},
{
alignment = -1;
name = caron;
transform = "{1, 0, 0, 1, 166, 338}";
}
);
layerId = "4C802D5D-2BAD-4759-8C93-835BB7B64EA1";
width = 1169;
},
{
background = {
paths = (
{
closed = 1;
nodes = (
"996 1227 OFFCURVE",
"1076 1209 OFFCURVE",
"1217 1130 CURVE",
"1335 1380 LINE",
"1187 1460 OFFCURVE",
"1072 1485 OFFCURVE",
"905 1485 CURVE SMOOTH",
"754 1485 OFFCURVE",
"621 1447 OFFCURVE",
"505 1371 CURVE SMOOTH",
"273 1218 OFFCURVE",
"123 902 OFFCURVE",
"123 553 CURVE SMOOTH",
"123 188 OFFCURVE",
"320 -20 OFFCURVE",
"659 -20 CURVE SMOOTH",
"793 -20 OFFCURVE",
"926 6 OFFCURVE",
"1059 57 CURVE",
"1059 317 LINE",
"931 266 OFFCURVE",
"818 240 OFFCURVE",
"721 240 CURVE SMOOTH",
"521 240 OFFCURVE",
"434 346 OFFCURVE",
"434 569 CURVE SMOOTH",
"434 690 OFFCURVE",
"455 803 OFFCURVE",
"498 908 CURVE SMOOTH",
"583 1118 OFFCURVE",
"729 1227 OFFCURVE",
"905 1227 CURVE SMOOTH"
);
},
{
closed = 1;
nodes = (
"581 1786 OFFCURVE",
"661 1651 OFFCURVE",
"690 1579 CURVE",
"1028 1579 LINE",
"1083 1649 OFFCURVE",
"1182 1750 OFFCURVE",
"1323 1882 CURVE",
"1323 1907 LINE",
"1106 1907 LINE",
"1028 1858 OFFCURVE",
"951 1802 OFFCURVE",
"874 1739 CURVE",
"808 1816 OFFCURVE",
"754 1872 OFFCURVE",
"712 1907 CURVE",
"514 1907 LINE",
"514 1882 LINE"
);
}
);
};
components = (
{
alignment = -1;
name = C;
},
{
alignment = -1;
name = caron;
transform = "{1, 0, 0, 1, 137, 338}";
}
);
layerId = "80F7B5CA-46F0-48DD-AF7A-0C2E2531FBA7";
width = 1253;
},
{
background = {
paths = (
{
closed = 1;
nodes = (
"993 1159 OFFCURVE",
"1090 1122 OFFCURVE",
"1214 1049 CURVE",
"1362 1354 LINE",
"1218 1441 OFFCURVE",
"1058 1485 OFFCURVE",
"881 1485 CURVE SMOOTH",
"731 1485 OFFCURVE",
"598 1447 OFFCURVE",
"482 1372 CURVE SMOOTH",
"249 1221 OFFCURVE",
"104 904 OFFCURVE",
"104 549 CURVE SMOOTH",
"104 186 OFFCURVE",
"298 -20 OFFCURVE",
"645 -20 CURVE SMOOTH",
"803 -20 OFFCURVE",
"950 10 OFFCURVE",
"1085 70 CURVE",
"1085 393 LINE",
"932 328 OFFCURVE",
"828 303 OFFCURVE",
"717 303 CURVE SMOOTH",
"577 303 OFFCURVE",
"500 390 OFFCURVE",
"500 569 CURVE SMOOTH",
"500 676 OFFCURVE",
"517 775 OFFCURVE",
"550 866 CURVE SMOOTH",
"616 1049 OFFCURVE",
"737 1159 OFFCURVE",
"881 1159 CURVE SMOOTH"
);
},
{
closed = 1;
nodes = (
"487 1821 OFFCURVE",
"578 1674 OFFCURVE",
"619 1579 CURVE",
"1065 1579 LINE",
"1181 1706 OFFCURVE",
"1284 1808 OFFCURVE",
"1374 1884 CURVE",
"1374 1907 LINE",
"1100 1907 LINE",
"1033 1864 OFFCURVE",
"953 1806 OFFCURVE",
"860 1733 CURVE",
"785 1824 OFFCURVE",
"734 1882 OFFCURVE",
"705 1907 CURVE",
"439 1907 LINE",
"439 1884 LINE"
);
}
);
};
components = (
{
alignment = -1;
name = C;
},
{
alignment = -1;
name = caron;
transform = "{1, 0, 0, 1, 117, 338}";
}
);
layerId = "0B5E954E-D3E5-4A16-AD17-8B1BCB8BDBD4";
width = 1290;
},
{
components = (
{
name = C;
},
{
name = caron;
transform = "{1, 0, 0, 1, 152, 338}";
}
);
layerId = "2317BC77-1FCA-42D3-9CA3-F7C1C5BFA6BA";
width = 1225;
}
);
note = Ccaron;
unicode = 010C;
},
{
glyphname = Ccedilla;
layers = (
{
background = {
paths = (
{
closed = 1;
nodes = (
"1036 1331 OFFCURVE",
"1129 1308 OFFCURVE",
"1221 1262 CURVE",
"1290 1403 LINE",
"1189 1456 OFFCURVE",
"1073 1483 OFFCURVE",
"942 1483 CURVE SMOOTH",
"792 1483 OFFCURVE",
"658 1444 OFFCURVE",
"539 1365 CURVE SMOOTH",
"302 1208 OFFCURVE",
"150 885 OFFCURVE",
"150 537 CURVE SMOOTH",
"150 193 OFFCURVE",
"345 -20 OFFCURVE",
"668 -20 CURVE SMOOTH",
"815 -20 OFFCURVE",
"905 -2 OFFCURVE",
"1020 39 CURVE",
"1020 188 LINE",
"898 150 OFFCURVE",
"791 131 OFFCURVE",
"698 131 CURVE SMOOTH",
"470 131 OFFCURVE",
"332 292 OFFCURVE",
"332 541 CURVE SMOOTH",
"332 688 OFFCURVE",
"359 825 OFFCURVE",
"413 950 CURVE SMOOTH",
"520 1200 OFFCURVE",
"710 1331 OFFCURVE",
"942 1331 CURVE SMOOTH"
);
},
{
closed = 1;
nodes = (
"758 -198 OFFCURVE",
"714 -146 OFFCURVE",
"627 -121 CURVE",
"688 0 LINE",
"582 0 LINE",
"481 -182 LINE",
"561 -193 OFFCURVE",
"619 -218 OFFCURVE",
"619 -279 CURVE SMOOTH",
"619 -352 OFFCURVE",
"561 -389 OFFCURVE",
"445 -389 CURVE SMOOTH",
"425 -389 OFFCURVE",
"402 -387 OFFCURVE",
"377 -383 CURVE",
"377 -483 LINE",
"407 -489 OFFCURVE",
"436 -492 OFFCURVE",
"463 -492 CURVE SMOOTH",
"640 -492 OFFCURVE",
"758 -407 OFFCURVE",
"758 -276 CURVE SMOOTH"
);
}
);
};
components = (
{
alignment = -1;
name = C;
},
{
alignment = -1;
name = cedilla;
transform = "{1, 0, 0, 1, 547, 0}";
}
);
layerId = "6AA17817-FAD2-45D4-8E70-7A3A6A841083";
width = 1198;
},
{
background = {
paths = (
{
closed = 1;
nodes = (
"1052 1389 OFFCURVE",
"1150 1365 OFFCURVE",
"1223 1325 CURVE",
"1268 1415 LINE",
"1181 1460 OFFCURVE",
"1079 1483 OFFCURVE",
"961 1483 CURVE SMOOTH",
"813 1483 OFFCURVE",
"679 1443 OFFCURVE",
"559 1364 CURVE SMOOTH",
"319 1205 OFFCURVE",
"170 890 OFFCURVE",
"170 535 CURVE SMOOTH",
"170 182 OFFCURVE",
"354 -20 OFFCURVE",
"690 -20 CURVE SMOOTH",
"797 -20 OFFCURVE",
"902 -4 OFFCURVE",
"1006 29 CURVE",
"1006 123 LINE",
"897 89 OFFCURVE",
"795 72 OFFCURVE",
"702 72 CURVE SMOOTH",
"426 72 OFFCURVE",
"274 239 OFFCURVE",
"274 539 CURVE SMOOTH",
"274 700 OFFCURVE",
"304 847 OFFCURVE",
"365 980 CURVE SMOOTH",
"485 1247 OFFCURVE",
"698 1389 OFFCURVE",
"961 1389 CURVE SMOOTH"
);
},
{
closed = 1;
nodes = (
"752 -208 OFFCURVE",
"705 -157 OFFCURVE",
"612 -137 CURVE",
"690 0 LINE",
"610 0 LINE",
"500 -190 LINE",
"601 -197 OFFCURVE",
"651 -232 OFFCURVE",
"651 -297 CURVE SMOOTH",
"651 -374 OFFCURVE",
"585 -412 OFFCURVE",
"453 -412 CURVE SMOOTH",
"425 -412 OFFCURVE",
"401 -410 OFFCURVE",
"381 -406 CURVE",
"381 -485 LINE",
"402 -490 OFFCURVE",
"428 -492 OFFCURVE",
"459 -492 CURVE SMOOTH",
"648 -492 OFFCURVE",
"752 -414 OFFCURVE",
"752 -289 CURVE SMOOTH"
);
}
);
};
components = (
{
alignment = -1;
name = C;
},
{
alignment = -1;
name = cedilla;
transform = "{1, 0, 0, 1, 555, 0}";
}
);
layerId = "4C802D5D-2BAD-4759-8C93-835BB7B64EA1";
width = 1169;
},
{
background = {
paths = (
{
closed = 1;
nodes = (
"996 1227 OFFCURVE",
"1076 1209 OFFCURVE",
"1217 1130 CURVE",
"1335 1380 LINE",
"1187 1460 OFFCURVE",
"1072 1485 OFFCURVE",
"905 1485 CURVE SMOOTH",
"754 1485 OFFCURVE",
"621 1447 OFFCURVE",
"505 1371 CURVE SMOOTH",
"273 1218 OFFCURVE",
"123 902 OFFCURVE",
"123 553 CURVE SMOOTH",
"123 188 OFFCURVE",
"320 -20 OFFCURVE",
"659 -20 CURVE SMOOTH",
"793 -20 OFFCURVE",
"926 6 OFFCURVE",
"1059 57 CURVE",
"1059 317 LINE",
"931 266 OFFCURVE",
"818 240 OFFCURVE",
"721 240 CURVE SMOOTH",
"521 240 OFFCURVE",
"434 346 OFFCURVE",
"434 569 CURVE SMOOTH",
"434 690 OFFCURVE",
"455 803 OFFCURVE",
"498 908 CURVE SMOOTH",
"583 1118 OFFCURVE",
"729 1227 OFFCURVE",
"905 1227 CURVE SMOOTH"
);
},
{
closed = 1;
nodes = (
"825 -164 OFFCURVE",
"778 -105 OFFCURVE",
"684 -72 CURVE",
"723 0 LINE",
"538 0 LINE",
"442 -154 LINE",
"495 -160 OFFCURVE",
"531 -170 OFFCURVE",
"552 -185 CURVE SMOOTH",
"573 -200 OFFCURVE",
"583 -219 OFFCURVE",
"583 -242 CURVE SMOOTH",
"583 -297 OFFCURVE",
"549 -324 OFFCURVE",
"481 -324 CURVE SMOOTH",
"440 -324 OFFCURVE",
"398 -316 OFFCURVE",
"356 -301 CURVE",
"356 -469 LINE",
"400 -484 OFFCURVE",
"451 -492 OFFCURVE",
"508 -492 CURVE SMOOTH",
"709 -492 OFFCURVE",
"825 -405 OFFCURVE",
"825 -250 CURVE SMOOTH"
);
}
);
};
components = (
{
alignment = -1;
name = C;
},
{
alignment = -1;
name = cedilla;
transform = "{1, 0, 0, 1, 563, 0}";
}
);
layerId = "80F7B5CA-46F0-48DD-AF7A-0C2E2531FBA7";
width = 1253;
},
{
background = {
paths = (
{
closed = 1;
nodes = (
"993 1159 OFFCURVE",
"1090 1122 OFFCURVE",
"1214 1049 CURVE",
"1362 1354 LINE",
"1218 1441 OFFCURVE",
"1058 1485 OFFCURVE",
"881 1485 CURVE SMOOTH",
"731 1485 OFFCURVE",
"598 1447 OFFCURVE",
"482 1372 CURVE SMOOTH",
"249 1221 OFFCURVE",
"104 904 OFFCURVE",
"104 549 CURVE SMOOTH",
"104 186 OFFCURVE",
"298 -20 OFFCURVE",
"645 -20 CURVE SMOOTH",
"803 -20 OFFCURVE",
"950 10 OFFCURVE",
"1085 70 CURVE",
"1085 393 LINE",
"932 328 OFFCURVE",
"828 303 OFFCURVE",
"717 303 CURVE SMOOTH",
"577 303 OFFCURVE",
"500 390 OFFCURVE",
"500 569 CURVE SMOOTH",
"500 676 OFFCURVE",
"517 775 OFFCURVE",
"550 866 CURVE SMOOTH",
"616 1049 OFFCURVE",
"737 1159 OFFCURVE",
"881 1159 CURVE SMOOTH"
);
},
{
closed = 1;
nodes = (
"813 -131 OFFCURVE",
"754 -66 OFFCURVE",
"635 -41 CURVE",
"659 0 LINE",
"454 0 LINE",
"379 -135 LINE",
"476 -154 OFFCURVE",
"524 -187 OFFCURVE",
"524 -236 CURVE SMOOTH",
"524 -269 OFFCURVE",
"501 -285 OFFCURVE",
"456 -285 CURVE SMOOTH",
"424 -285 OFFCURVE",
"345 -270 OFFCURVE",
"305 -258 CURVE",
"305 -463 LINE",
"356 -482 OFFCURVE",
"420 -492 OFFCURVE",
"497 -492 CURVE SMOOTH",
"698 -492 OFFCURVE",
"813 -397 OFFCURVE",
"813 -236 CURVE SMOOTH"
);
}
);
};
components = (
{
alignment = -1;
name = C;
},
{
alignment = -1;
name = cedilla;
transform = "{1, 0, 0, 1, 544, 0}";
}
);
layerId = "0B5E954E-D3E5-4A16-AD17-8B1BCB8BDBD4";
width = 1290;
},
{
components = (
{
name = C;
},
{
name = cedilla;
transform = "{1, 0, 0, 1, 555, 0}";
}
);
layerId = "2317BC77-1FCA-42D3-9CA3-F7C1C5BFA6BA";
width = 1225;
}
);
note = Ccedilla;
unicode = 00C7;
},
{
glyphname = Ccircumflex;
layers = (
{
background = {
paths = (
{
closed = 1;
nodes = (
"1036 1331 OFFCURVE",
"1129 1308 OFFCURVE",
"1221 1262 CURVE",
"1290 1403 LINE",
"1189 1456 OFFCURVE",
"1073 1483 OFFCURVE",
"942 1483 CURVE SMOOTH",
"792 1483 OFFCURVE",
"658 1444 OFFCURVE",
"539 1365 CURVE SMOOTH",
"302 1208 OFFCURVE",
"150 885 OFFCURVE",
"150 537 CURVE SMOOTH",
"150 193 OFFCURVE",
"345 -20 OFFCURVE",
"668 -20 CURVE SMOOTH",
"815 -20 OFFCURVE",
"905 -2 OFFCURVE",
"1020 39 CURVE",
"1020 188 LINE",
"898 150 OFFCURVE",
"791 131 OFFCURVE",
"698 131 CURVE SMOOTH",
"470 131 OFFCURVE",
"332 292 OFFCURVE",
"332 541 CURVE SMOOTH",
"332 688 OFFCURVE",
"359 825 OFFCURVE",
"413 950 CURVE SMOOTH",
"520 1200 OFFCURVE",
"710 1331 OFFCURVE",
"942 1331 CURVE SMOOTH"
);
},
{
closed = 1;
nodes = (
"1185 1672 LINE SMOOTH",
"1124 1763 OFFCURVE",
"1082 1841 OFFCURVE",
"1057 1907 CURVE",
"899 1907 LINE",
"884 1881 OFFCURVE",
"856 1847 OFFCURVE",
"817 1804 CURVE SMOOTH",
"777 1761 OFFCURVE",
"709 1695 OFFCURVE",
"612 1606 CURVE",
"612 1579 LINE",
"721 1579 LINE",
"793 1626 OFFCURVE",
"874 1689 OFFCURVE",
"963 1768 CURVE",
"1032 1674 OFFCURVE",
"1086 1611 OFFCURVE",
"1124 1579 CURVE",
"1227 1579 LINE",
"1227 1606 LINE"
);
}
);
};
components = (
{
alignment = -1;
name = C;
},
{
alignment = -1;
name = circumflex;
transform = "{1, 0, 0, 1, 213, 338}";
}
);
layerId = "6AA17817-FAD2-45D4-8E70-7A3A6A841083";
width = 1198;
},
{
background = {
paths = (
{
closed = 1;
nodes = (
"1052 1389 OFFCURVE",
"1150 1365 OFFCURVE",
"1223 1325 CURVE",
"1268 1415 LINE",
"1181 1460 OFFCURVE",
"1079 1483 OFFCURVE",
"961 1483 CURVE SMOOTH",
"813 1483 OFFCURVE",
"679 1443 OFFCURVE",
"559 1364 CURVE SMOOTH",
"319 1205 OFFCURVE",
"170 890 OFFCURVE",
"170 535 CURVE SMOOTH",
"170 182 OFFCURVE",
"354 -20 OFFCURVE",
"690 -20 CURVE SMOOTH",
"797 -20 OFFCURVE",
"902 -4 OFFCURVE",
"1006 29 CURVE",
"1006 123 LINE",
"897 89 OFFCURVE",
"795 72 OFFCURVE",
"702 72 CURVE SMOOTH",
"426 72 OFFCURVE",
"274 239 OFFCURVE",
"274 539 CURVE SMOOTH",
"274 700 OFFCURVE",
"304 847 OFFCURVE",
"365 980 CURVE SMOOTH",
"485 1247 OFFCURVE",
"698 1389 OFFCURVE",
"961 1389 CURVE SMOOTH"
);
},
{
closed = 1;
nodes = (
"1114 1685 OFFCURVE",
"1037 1822 OFFCURVE",
"1006 1907 CURVE",
"942 1907 LINE",
"891 1830 OFFCURVE",
"748 1683 OFFCURVE",
"657 1608 CURVE",
"657 1579 LINE",
"711 1579 LINE",
"784 1626 OFFCURVE",
"888 1710 OFFCURVE",
"961 1786 CURVE",
"1022 1688 OFFCURVE",
"1075 1619 OFFCURVE",
"1122 1579 CURVE",
"1171 1579 LINE",
"1171 1608 LINE"
);
}
);
};
components = (
{
alignment = -1;
name = C;
},
{
alignment = -1;
name = circumflex;
transform = "{1, 0, 0, 1, 213, 338}";
}
);
layerId = "4C802D5D-2BAD-4759-8C93-835BB7B64EA1";
width = 1169;
},
{
background = {
paths = (
{
closed = 1;
nodes = (
"996 1227 OFFCURVE",
"1076 1209 OFFCURVE",
"1217 1130 CURVE",
"1335 1380 LINE",
"1187 1460 OFFCURVE",
"1072 1485 OFFCURVE",
"905 1485 CURVE SMOOTH",
"754 1485 OFFCURVE",
"621 1447 OFFCURVE",
"505 1371 CURVE SMOOTH",
"273 1218 OFFCURVE",
"123 902 OFFCURVE",
"123 553 CURVE SMOOTH",
"123 188 OFFCURVE",
"320 -20 OFFCURVE",
"659 -20 CURVE SMOOTH",
"793 -20 OFFCURVE",
"926 6 OFFCURVE",
"1059 57 CURVE",
"1059 317 LINE",
"931 266 OFFCURVE",
"818 240 OFFCURVE",
"721 240 CURVE SMOOTH",
"521 240 OFFCURVE",
"434 346 OFFCURVE",
"434 569 CURVE SMOOTH",
"434 690 OFFCURVE",
"455 803 OFFCURVE",
"498 908 CURVE SMOOTH",
"583 1118 OFFCURVE",
"729 1227 OFFCURVE",
"905 1227 CURVE SMOOTH"
);
},
{
closed = 1;
nodes = (
"1225 1700 OFFCURVE",
"1145 1835 OFFCURVE",
"1116 1907 CURVE",
"778 1907 LINE",
"709 1819 OFFCURVE",
"567 1680 OFFCURVE",
"483 1604 CURVE",
"483 1579 LINE",
"700 1579 LINE",
"785 1632 OFFCURVE",
"862 1688 OFFCURVE",
"932 1747 CURVE",
"998 1670 OFFCURVE",
"1052 1614 OFFCURVE",
"1094 1579 CURVE",
"1292 1579 LINE",
"1292 1604 LINE"
);
}
);
};
components = (
{
alignment = -1;
name = C;
},
{
alignment = -1;
name = circumflex;
transform = "{1, 0, 0, 1, 172, 338}";
}
);
layerId = "80F7B5CA-46F0-48DD-AF7A-0C2E2531FBA7";
width = 1253;
},
{
background = {
paths = (
{
closed = 1;
nodes = (
"993 1159 OFFCURVE",
"1090 1122 OFFCURVE",
"1214 1049 CURVE",
"1362 1354 LINE",
"1218 1441 OFFCURVE",
"1058 1485 OFFCURVE",
"881 1485 CURVE SMOOTH",
"731 1485 OFFCURVE",
"598 1447 OFFCURVE",
"482 1372 CURVE SMOOTH",
"249 1221 OFFCURVE",
"104 904 OFFCURVE",
"104 549 CURVE SMOOTH",
"104 186 OFFCURVE",
"298 -20 OFFCURVE",
"645 -20 CURVE SMOOTH",
"803 -20 OFFCURVE",
"950 10 OFFCURVE",
"1085 70 CURVE",
"1085 393 LINE",
"932 328 OFFCURVE",
"828 303 OFFCURVE",
"717 303 CURVE SMOOTH",
"577 303 OFFCURVE",
"500 390 OFFCURVE",
"500 569 CURVE SMOOTH",
"500 676 OFFCURVE",
"517 775 OFFCURVE",
"550 866 CURVE SMOOTH",
"616 1049 OFFCURVE",
"737 1159 OFFCURVE",
"881 1159 CURVE SMOOTH"
);
},
{
closed = 1;
nodes = (
"1299 1689 OFFCURVE",
"1221 1828 OFFCURVE",
"1186 1907 CURVE",
"739 1907 LINE",
"675 1838 OFFCURVE",
"535 1698 OFFCURVE",
"430 1602 CURVE",
"430 1579 LINE",
"704 1579 LINE",
"771 1622 OFFCURVE",
"851 1680 OFFCURVE",
"944 1753 CURVE",
"1017 1664 OFFCURVE",
"1069 1606 OFFCURVE",
"1100 1579 CURVE",
"1366 1579 LINE",
"1366 1602 LINE"
);
}
);
};
components = (
{
alignment = -1;
name = C;
},
{
alignment = -1;
name = circumflex;
transform = "{1, 0, 0, 1, 176, 338}";
}
);
layerId = "0B5E954E-D3E5-4A16-AD17-8B1BCB8BDBD4";
width = 1290;
},
{
components = (
{
name = C;
},
{
name = circumflex;
transform = "{1, 0, 0, 1, 193, 338}";
}
);
layerId = "2317BC77-1FCA-42D3-9CA3-F7C1C5BFA6BA";
width = 1225;
}
);
note = Ccircumflex;
unicode = 0108;
},
{
glyphname = Cdotaccent;
layers = (
{
background = {
paths = (
{
closed = 1;
nodes = (
"1036 1331 OFFCURVE",
"1129 1308 OFFCURVE",
"1221 1262 CURVE",
"1290 1403 LINE",
"1189 1456 OFFCURVE",
"1073 1483 OFFCURVE",
"942 1483 CURVE SMOOTH",
"792 1483 OFFCURVE",
"658 1444 OFFCURVE",
"539 1365 CURVE SMOOTH",
"302 1208 OFFCURVE",
"150 885 OFFCURVE",
"150 537 CURVE SMOOTH",
"150 193 OFFCURVE",
"345 -20 OFFCURVE",
"668 -20 CURVE SMOOTH",
"815 -20 OFFCURVE",
"905 -2 OFFCURVE",
"1020 39 CURVE",
"1020 188 LINE",
"898 150 OFFCURVE",
"791 131 OFFCURVE",
"698 131 CURVE SMOOTH",
"470 131 OFFCURVE",
"332 292 OFFCURVE",
"332 541 CURVE SMOOTH",
"332 688 OFFCURVE",
"359 825 OFFCURVE",
"413 950 CURVE SMOOTH",
"520 1200 OFFCURVE",
"710 1331 OFFCURVE",
"942 1331 CURVE SMOOTH"
);
},
{
closed = 1;
nodes = (
"822 1654 OFFCURVE",
"863 1620 OFFCURVE",
"914 1620 CURVE SMOOTH",
"971 1620 OFFCURVE",
"1024 1678 OFFCURVE",
"1024 1751 CURVE SMOOTH",
"1024 1811 OFFCURVE",
"995 1841 OFFCURVE",
"936 1841 CURVE SMOOTH",
"869 1841 OFFCURVE",
"822 1785 OFFCURVE",
"822 1714 CURVE SMOOTH"
);
}
);
};
components = (
{
alignment = -1;
name = C;
},
{
alignment = -1;
name = dotaccent;
transform = "{1, 0, 0, 1, 498, 338}";
}
);
layerId = "6AA17817-FAD2-45D4-8E70-7A3A6A841083";
width = 1198;
},
{
background = {
paths = (
{
closed = 1;
nodes = (
"1052 1389 OFFCURVE",
"1150 1365 OFFCURVE",
"1223 1325 CURVE",
"1268 1415 LINE",
"1181 1460 OFFCURVE",
"1079 1483 OFFCURVE",
"961 1483 CURVE SMOOTH",
"813 1483 OFFCURVE",
"679 1443 OFFCURVE",
"559 1364 CURVE SMOOTH",
"319 1205 OFFCURVE",
"170 890 OFFCURVE",
"170 535 CURVE SMOOTH",
"170 182 OFFCURVE",
"354 -20 OFFCURVE",
"690 -20 CURVE SMOOTH",
"797 -20 OFFCURVE",
"902 -4 OFFCURVE",
"1006 29 CURVE",
"1006 123 LINE",
"897 89 OFFCURVE",
"795 72 OFFCURVE",
"702 72 CURVE SMOOTH",
"426 72 OFFCURVE",
"274 239 OFFCURVE",
"274 539 CURVE SMOOTH",
"274 700 OFFCURVE",
"304 847 OFFCURVE",
"365 980 CURVE SMOOTH",
"485 1247 OFFCURVE",
"698 1389 OFFCURVE",
"961 1389 CURVE SMOOTH"
);
},
{
closed = 1;
nodes = (
"848 1655 OFFCURVE",
"868 1630 OFFCURVE",
"907 1630 CURVE SMOOTH",
"954 1630 OFFCURVE",
"987 1676 OFFCURVE",
"987 1753 CURVE SMOOTH",
"987 1801 OFFCURVE",
"968 1825 OFFCURVE",
"930 1825 CURVE SMOOTH",
"878 1825 OFFCURVE",
"848 1779 OFFCURVE",
"848 1704 CURVE SMOOTH"
);
}
);
};
components = (
{
alignment = -1;
name = C;
},
{
alignment = -1;
name = dotaccent;
transform = "{1, 0, 0, 1, 522, 338}";
}
);
layerId = "4C802D5D-2BAD-4759-8C93-835BB7B64EA1";
width = 1169;
},
{
background = {
paths = (
{
closed = 1;
nodes = (
"996 1227 OFFCURVE",
"1076 1209 OFFCURVE",
"1217 1130 CURVE",
"1335 1380 LINE",
"1187 1460 OFFCURVE",
"1072 1485 OFFCURVE",
"905 1485 CURVE SMOOTH",
"754 1485 OFFCURVE",
"621 1447 OFFCURVE",
"505 1371 CURVE SMOOTH",
"273 1218 OFFCURVE",
"123 902 OFFCURVE",
"123 553 CURVE SMOOTH",
"123 188 OFFCURVE",
"320 -20 OFFCURVE",
"659 -20 CURVE SMOOTH",
"793 -20 OFFCURVE",
"926 6 OFFCURVE",
"1059 57 CURVE",
"1059 317 LINE",
"931 266 OFFCURVE",
"818 240 OFFCURVE",
"721 240 CURVE SMOOTH",
"521 240 OFFCURVE",
"434 346 OFFCURVE",
"434 569 CURVE SMOOTH",
"434 690 OFFCURVE",
"455 803 OFFCURVE",
"498 908 CURVE SMOOTH",
"583 1118 OFFCURVE",
"729 1227 OFFCURVE",
"905 1227 CURVE SMOOTH"
);
},
{
closed = 1;
nodes = (
"775 1636 OFFCURVE",
"825 1595 OFFCURVE",
"926 1595 CURVE SMOOTH",
"1049 1595 OFFCURVE",
"1106 1667 OFFCURVE",
"1106 1774 CURVE SMOOTH",
"1106 1851 OFFCURVE",
"1054 1894 OFFCURVE",
"957 1894 CURVE SMOOTH",
"841 1894 OFFCURVE",
"775 1834 OFFCURVE",
"775 1718 CURVE SMOOTH"
);
}
);
};
components = (
{
alignment = -1;
name = C;
},
{
alignment = -1;
name = dotaccent;
transform = "{1, 0, 0, 1, 453, 338}";
}
);
layerId = "80F7B5CA-46F0-48DD-AF7A-0C2E2531FBA7";
width = 1253;
},
{
background = {
paths = (
{
closed = 1;
nodes = (
"993 1159 OFFCURVE",
"1090 1122 OFFCURVE",
"1214 1049 CURVE",
"1362 1354 LINE",
"1218 1441 OFFCURVE",
"1058 1485 OFFCURVE",
"881 1485 CURVE SMOOTH",
"731 1485 OFFCURVE",
"598 1447 OFFCURVE",
"482 1372 CURVE SMOOTH",
"249 1221 OFFCURVE",
"104 904 OFFCURVE",
"104 549 CURVE SMOOTH",
"104 186 OFFCURVE",
"298 -20 OFFCURVE",
"645 -20 CURVE SMOOTH",
"803 -20 OFFCURVE",
"950 10 OFFCURVE",
"1085 70 CURVE",
"1085 393 LINE",
"932 328 OFFCURVE",
"828 303 OFFCURVE",
"717 303 CURVE SMOOTH",
"577 303 OFFCURVE",
"500 390 OFFCURVE",
"500 569 CURVE SMOOTH",
"500 676 OFFCURVE",
"517 775 OFFCURVE",
"550 866 CURVE SMOOTH",
"616 1049 OFFCURVE",
"737 1159 OFFCURVE",
"881 1159 CURVE SMOOTH"
);
},
{
closed = 1;
nodes = (
"741 1627 OFFCURVE",
"799 1579 OFFCURVE",
"932 1579 CURVE SMOOTH",
"1083 1579 OFFCURVE",
"1159 1649 OFFCURVE",
"1159 1788 CURVE SMOOTH",
"1159 1879 OFFCURVE",
"1096 1929 OFFCURVE",
"969 1929 CURVE SMOOTH",
"817 1929 OFFCURVE",
"741 1859 OFFCURVE",
"741 1720 CURVE SMOOTH"
);
}
);
};
components = (
{
alignment = -1;
name = C;
},
{
alignment = -1;
name = dotaccent;
transform = "{1, 0, 0, 1, 422, 338}";
}
);
layerId = "0B5E954E-D3E5-4A16-AD17-8B1BCB8BDBD4";
width = 1290;
},
{
components = (
{
name = C;
},
{
name = dotaccentcomb;
transform = "{1, 0, 0, 1, 554, 356}";
}
);
layerId = "2317BC77-1FCA-42D3-9CA3-F7C1C5BFA6BA";
width = 1225;
}
);
note = Cdotaccent;
unicode = 010A;
},
{
glyphname = D;
layers = (
{
layerId = "6AA17817-FAD2-45D4-8E70-7A3A6A841083";
paths = (
{
closed = 1;
nodes = (
"1300 1258 OFFCURVE",
"1105 1462 OFFCURVE",
"737 1462 CURVE SMOOTH",
"395 1462 LINE",
"86 0 LINE",
"438 0 LINE SMOOTH",
"613 0 OFFCURVE",
"765 36 OFFCURVE",
"895 108 CURVE SMOOTH",
"1155 252 OFFCURVE",
"1300 529 OFFCURVE",
"1300 877 CURVE SMOOTH"
);
},
{
closed = 1;
nodes = (
"537 1315 LINE",
"715 1315 LINE SMOOTH",
"980 1315 OFFCURVE",
"1120 1166 OFFCURVE",
"1120 879 CURVE SMOOTH",
"1120 736 OFFCURVE",
"1093 608 OFFCURVE",
"1039 497 CURVE SMOOTH",
"930 274 OFFCURVE",
"718 147 OFFCURVE",
"449 147 CURVE SMOOTH",
"287 147 LINE"
);
}
);
width = 1364;
},
{
anchors = (
{
name = bottom;
position = "{559, 0}";
},
{
name = center;
position = "{715, 731}";
},
{
name = top;
position = "{870, 1462}";
}
);
layerId = "4C802D5D-2BAD-4759-8C93-835BB7B64EA1";
paths = (
{
closed = 1;
nodes = (
"1288 1263 OFFCURVE",
"1093 1462 OFFCURVE",
"717 1462 CURVE SMOOTH",
"412 1462 LINE",
"102 0 LINE",
"432 0 LINE SMOOTH",
"602 0 OFFCURVE",
"751 35 OFFCURVE",
"878 105 CURVE SMOOTH",
"1133 244 OFFCURVE",
"1288 542 OFFCURVE",
"1288 879 CURVE SMOOTH"
);
},
{
closed = 1;
nodes = (
"496 1370 LINE",
"702 1370 LINE SMOOTH",
"1019 1370 OFFCURVE",
"1178 1204 OFFCURVE",
"1178 872 CURVE SMOOTH",
"1178 718 OFFCURVE",
"1147 581 OFFCURVE",
"1086 460 CURVE SMOOTH",
"962 219 OFFCURVE",
"731 90 OFFCURVE",
"430 90 CURVE SMOOTH",
"221 90 LINE"
);
}
);
width = 1350;
},
{
anchors = (
{
name = bottom;
position = "{574, 0}";
},
{
name = center;
position = "{730, 731}";
},
{
name = top;
position = "{885, 1462}";
}
);
layerId = "80F7B5CA-46F0-48DD-AF7A-0C2E2531FBA7";
paths = (
{
closed = 1;
nodes = (
"1323 1265 OFFCURVE",
"1118 1462 OFFCURVE",
"758 1462 CURVE SMOOTH",
"362 1462 LINE",
"53 0 LINE",
"504 0 LINE SMOOTH",
"672 0 OFFCURVE",
"818 36 OFFCURVE",
"942 108 CURVE SMOOTH",
"1189 252 OFFCURVE",
"1323 536 OFFCURVE",
"1323 909 CURVE SMOOTH"
);
},
{
closed = 1;
nodes = (
"614 1208 LINE",
"729 1208 LINE SMOOTH",
"910 1208 OFFCURVE",
"1010 1098 OFFCURVE",
"1010 893 CURVE SMOOTH",
"1010 766 OFFCURVE",
"989 654 OFFCURVE",
"948 556 CURVE SMOOTH",
"865 359 OFFCURVE",
"715 256 OFFCURVE",
"518 256 CURVE SMOOTH",
"412 256 LINE"
);
}
);
width = 1386;
},
{
layerId = "0B5E954E-D3E5-4A16-AD17-8B1BCB8BDBD4";
paths = (
{
closed = 1;
nodes = (
"1337 1261 OFFCURVE",
"1126 1462 OFFCURVE",
"758 1462 CURVE SMOOTH",
"342 1462 LINE",
"33 0 LINE",
"504 0 LINE SMOOTH",
"676 0 OFFCURVE",
"825 36 OFFCURVE",
"951 109 CURVE SMOOTH",
"1202 254 OFFCURVE",
"1337 536 OFFCURVE",
"1337 909 CURVE SMOOTH"
);
},
{
closed = 1;
nodes = (
"666 1143 LINE",
"737 1143 LINE SMOOTH",
"866 1143 OFFCURVE",
"942 1056 OFFCURVE",
"942 889 CURVE SMOOTH",
"942 778 OFFCURVE",
"926 680 OFFCURVE",
"894 594 CURVE SMOOTH",
"830 421 OFFCURVE",
"710 324 OFFCURVE",
"563 324 CURVE SMOOTH",
"494 324 LINE"
);
}
);
width = 1401;
},
{
anchors = (
{
name = bottom;
position = "{569, 0}";
},
{
name = center;
position = "{725, 731}";
},
{
name = top;
position = "{880, 1462}";
}
);
layerId = "2317BC77-1FCA-42D3-9CA3-F7C1C5BFA6BA";
paths = (
{
closed = 1;
nodes = (
"1311 1265 OFFCURVE",
"1109 1462 OFFCURVE",
"748 1462 CURVE SMOOTH",
"379 1462 LINE",
"70 0 LINE",
"471 0 LINE SMOOTH",
"643 0 OFFCURVE",
"793 36 OFFCURVE",
"920 109 CURVE SMOOTH",
"1175 254 OFFCURVE",
"1311 532 OFFCURVE",
"1311 893 CURVE SMOOTH"
);
},
{
closed = 1;
nodes = (
"575 1262 LINE",
"721 1262 LINE SMOOTH",
"945 1262 OFFCURVE",
"1065 1130 OFFCURVE",
"1065 885 CURVE SMOOTH",
"1065 752 OFFCURVE",
"1042 633 OFFCURVE",
"995 529 CURVE SMOOTH",
"901 321 OFFCURVE",
"719 201 OFFCURVE",
"483 201 CURVE SMOOTH",
"348 201 LINE"
);
}
);
width = 1374;
}
);
note = D;
unicode = 0044;
},
{
glyphname = Eth;
layers = (
{
layerId = "6AA17817-FAD2-45D4-8E70-7A3A6A841083";
paths = (
{
closed = 1;
nodes = (
"1300 1258 OFFCURVE",
"1105 1462 OFFCURVE",
"737 1462 CURVE SMOOTH",
"395 1462 LINE",
"254 799 LINE",
"104 799 LINE",
"72 649 LINE",
"221 649 LINE",
"86 0 LINE",
"438 0 LINE SMOOTH",
"613 0 OFFCURVE",
"765 36 OFFCURVE",
"895 108 CURVE SMOOTH",
"1155 252 OFFCURVE",
"1300 529 OFFCURVE",
"1300 877 CURVE SMOOTH"
);
},
{
closed = 1;
nodes = (
"393 649 LINE",
"723 649 LINE",
"756 799 LINE",
"426 799 LINE",
"537 1315 LINE",
"715 1315 LINE SMOOTH",
"980 1315 OFFCURVE",
"1120 1166 OFFCURVE",
"1120 879 CURVE SMOOTH",
"1120 736 OFFCURVE",
"1093 608 OFFCURVE",
"1039 497 CURVE SMOOTH",
"930 274 OFFCURVE",
"718 147 OFFCURVE",
"449 147 CURVE SMOOTH",
"287 147 LINE"
);
}
);
width = 1364;
},
{
layerId = "4C802D5D-2BAD-4759-8C93-835BB7B64EA1";
paths = (
{
closed = 1;
nodes = (
"1288 1263 OFFCURVE",
"1093 1462 OFFCURVE",
"717 1462 CURVE SMOOTH",
"412 1462 LINE",
"266 772 LINE",
"111 772 LINE",
"90 676 LINE",
"246 676 LINE",
"102 0 LINE",
"432 0 LINE SMOOTH",
"602 0 OFFCURVE",
"751 35 OFFCURVE",
"878 105 CURVE SMOOTH",
"1133 244 OFFCURVE",
"1288 542 OFFCURVE",
"1288 879 CURVE SMOOTH"
);
},
{
closed = 1;
nodes = (
"346 676 LINE",
"725 676 LINE",
"745 772 LINE",
"367 772 LINE",
"496 1370 LINE",
"702 1370 LINE SMOOTH",
"1019 1370 OFFCURVE",
"1178 1204 OFFCURVE",
"1178 872 CURVE SMOOTH",
"1178 718 OFFCURVE",
"1147 581 OFFCURVE",
"1086 460 CURVE SMOOTH",
"962 219 OFFCURVE",
"731 90 OFFCURVE",
"430 90 CURVE SMOOTH",
"221 90 LINE"
);
}
);
width = 1352;
},
{
layerId = "80F7B5CA-46F0-48DD-AF7A-0C2E2531FBA7";
paths = (
{
closed = 1;
nodes = (
"1323 1265 OFFCURVE",
"1118 1462 OFFCURVE",
"758 1462 CURVE SMOOTH",
"362 1462 LINE",
"231 850 LINE",
"92 850 LINE",
"37 596 LINE",
"178 596 LINE",
"53 0 LINE",
"504 0 LINE SMOOTH",
"672 0 OFFCURVE",
"818 36 OFFCURVE",
"942 108 CURVE SMOOTH",
"1189 252 OFFCURVE",
"1323 536 OFFCURVE",
"1323 909 CURVE SMOOTH"
);
},
{
closed = 1;
nodes = (
"483 596 LINE",
"721 596 LINE",
"776 850 LINE",
"539 850 LINE",
"614 1208 LINE",
"729 1208 LINE SMOOTH",
"910 1208 OFFCURVE",
"1010 1098 OFFCURVE",
"1010 893 CURVE SMOOTH",
"1010 766 OFFCURVE",
"989 654 OFFCURVE",
"948 556 CURVE SMOOTH",
"865 359 OFFCURVE",
"715 256 OFFCURVE",
"518 256 CURVE SMOOTH",
"412 256 LINE"
);
}
);
width = 1386;
},
{
layerId = "0B5E954E-D3E5-4A16-AD17-8B1BCB8BDBD4";
paths = (
{
closed = 1;
nodes = (
"152 563 LINE",
"33 0 LINE",
"526 0 LINE SMOOTH",
"1039 0 OFFCURVE",
"1337 330 OFFCURVE",
"1337 909 CURVE SMOOTH",
"1337 1264 OFFCURVE",
"1133 1462 OFFCURVE",
"772 1462 CURVE SMOOTH",
"342 1462 LINE",
"219 883 LINE",
"80 883 LINE",
"10 563 LINE"
);
},
{
closed = 1;
nodes = (
"543 563 LINE",
"719 563 LINE",
"788 883 LINE",
"610 883 LINE",
"666 1143 LINE",
"737 1143 LINE SMOOTH",
"866 1143 OFFCURVE",
"942 1056 OFFCURVE",
"942 901 CURVE SMOOTH",
"942 788 OFFCURVE",
"926 688 OFFCURVE",
"895 600 CURVE SMOOTH",
"832 423 OFFCURVE",
"711 324 OFFCURVE",
"563 324 CURVE SMOOTH",
"494 324 LINE"
);
}
);
width = 1401;
},
{
layerId = "2317BC77-1FCA-42D3-9CA3-F7C1C5BFA6BA";
paths = (
{
closed = 1;
nodes = (
"1311 1265 OFFCURVE",
"1109 1462 OFFCURVE",
"748 1462 CURVE SMOOTH",
"379 1462 LINE",
"242 823 LINE",
"98 823 LINE",
"53 623 LINE",
"199 623 LINE",
"70 0 LINE",
"471 0 LINE SMOOTH",
"643 0 OFFCURVE",
"793 36 OFFCURVE",
"920 109 CURVE SMOOTH",
"1175 254 OFFCURVE",
"1311 532 OFFCURVE",
"1311 893 CURVE SMOOTH"
);
},
{
closed = 1;
nodes = (
"438 623 LINE",
"721 623 LINE",
"766 823 LINE",
"481 823 LINE",
"575 1262 LINE",
"721 1262 LINE SMOOTH",
"945 1262 OFFCURVE",
"1065 1130 OFFCURVE",
"1065 885 CURVE SMOOTH",
"1065 752 OFFCURVE",
"1042 633 OFFCURVE",
"995 529 CURVE SMOOTH",
"901 321 OFFCURVE",
"719 201 OFFCURVE",
"483 201 CURVE SMOOTH",
"348 201 LINE"
);
}
);
width = 1374;
}
);
note = Eth;
unicode = 00D0;
},
{
glyphname = Dcaron;
layers = (
{
background = {
paths = (
{
closed = 1;
nodes = (
"1300 1258 OFFCURVE",
"1105 1462 OFFCURVE",
"737 1462 CURVE SMOOTH",
"395 1462 LINE",
"86 0 LINE",
"438 0 LINE SMOOTH",
"613 0 OFFCURVE",
"765 36 OFFCURVE",
"895 108 CURVE SMOOTH",
"1155 252 OFFCURVE",
"1300 529 OFFCURVE",
"1300 877 CURVE SMOOTH"
);
},
{
closed = 1;
nodes = (
"537 1315 LINE",
"715 1315 LINE SMOOTH",
"980 1315 OFFCURVE",
"1120 1166 OFFCURVE",
"1120 879 CURVE SMOOTH",
"1120 736 OFFCURVE",
"1093 608 OFFCURVE",
"1039 497 CURVE SMOOTH",
"930 274 OFFCURVE",
"718 147 OFFCURVE",
"449 147 CURVE SMOOTH",
"287 147 LINE"
);
},
{
closed = 1;
nodes = (
"604 1814 LINE SMOOTH",
"665 1721 OFFCURVE",
"706 1642 OFFCURVE",
"729 1579 CURVE",
"889 1579 LINE",
"932 1648 OFFCURVE",
"1059 1777 OFFCURVE",
"1175 1880 CURVE",
"1175 1907 LINE",
"1069 1907 LINE",
"987 1854 OFFCURVE",
"905 1791 OFFCURVE",
"823 1718 CURVE",
"767 1794 OFFCURVE",
"716 1864 OFFCURVE",
"661 1907 CURVE",
"561 1907 LINE",
"561 1880 LINE"
);
}
);
};
components = (
{
alignment = -1;
name = D;
},
{
alignment = -1;
name = caron;
transform = "{1, 0, 0, 1, 94, 338}";
}
);
layerId = "6AA17817-FAD2-45D4-8E70-7A3A6A841083";
width = 1364;
},
{
background = {
paths = (
{
closed = 1;
nodes = (
"1288 1263 OFFCURVE",
"1093 1462 OFFCURVE",
"717 1462 CURVE SMOOTH",
"412 1462 LINE",
"102 0 LINE",
"432 0 LINE SMOOTH",
"602 0 OFFCURVE",
"751 35 OFFCURVE",
"878 105 CURVE SMOOTH",
"1133 244 OFFCURVE",
"1288 542 OFFCURVE",
"1288 879 CURVE SMOOTH"
);
},
{
closed = 1;
nodes = (
"496 1370 LINE",
"702 1370 LINE SMOOTH",
"1019 1370 OFFCURVE",
"1178 1204 OFFCURVE",
"1178 872 CURVE SMOOTH",
"1178 718 OFFCURVE",
"1147 581 OFFCURVE",
"1086 460 CURVE SMOOTH",
"962 219 OFFCURVE",
"731 90 OFFCURVE",
"430 90 CURVE SMOOTH",
"221 90 LINE"
);
},
{
closed = 1;
nodes = (
"664 1802 OFFCURVE",
"735 1678 OFFCURVE",
"774 1579 CURVE",
"837 1579 LINE",
"893 1662 OFFCURVE",
"1031 1805 OFFCURVE",
"1122 1878 CURVE",
"1122 1907 LINE",
"1069 1907 LINE",
"996 1860 OFFCURVE",
"892 1776 OFFCURVE",
"819 1700 CURVE",
"759 1797 OFFCURVE",
"705 1866 OFFCURVE",
"657 1907 CURVE",
"608 1907 LINE",
"608 1878 LINE"
);
}
);
};
components = (
{
alignment = -1;
name = D;
},
{
alignment = -1;
name = caron;
transform = "{1, 0, 0, 1, 94, 338}";
}
);
layerId = "4C802D5D-2BAD-4759-8C93-835BB7B64EA1";
width = 1350;
},
{
background = {
paths = (
{
closed = 1;
nodes = (
"1323 1265 OFFCURVE",
"1118 1462 OFFCURVE",
"758 1462 CURVE SMOOTH",
"362 1462 LINE",
"53 0 LINE",
"504 0 LINE SMOOTH",
"672 0 OFFCURVE",
"818 36 OFFCURVE",
"942 108 CURVE SMOOTH",
"1189 252 OFFCURVE",
"1323 536 OFFCURVE",
"1323 909 CURVE SMOOTH"
);
},
{
closed = 1;
nodes = (
"614 1208 LINE",
"729 1208 LINE SMOOTH",
"910 1208 OFFCURVE",
"1010 1098 OFFCURVE",
"1010 893 CURVE SMOOTH",
"1010 766 OFFCURVE",
"989 654 OFFCURVE",
"948 556 CURVE SMOOTH",
"865 359 OFFCURVE",
"715 256 OFFCURVE",
"518 256 CURVE SMOOTH",
"412 256 LINE"
);
},
{
closed = 1;
nodes = (
"536 1786 OFFCURVE",
"616 1651 OFFCURVE",
"645 1579 CURVE",
"983 1579 LINE",
"1038 1649 OFFCURVE",
"1137 1750 OFFCURVE",
"1278 1882 CURVE",
"1278 1907 LINE",
"1061 1907 LINE",
"983 1858 OFFCURVE",
"906 1802 OFFCURVE",
"829 1739 CURVE",
"763 1816 OFFCURVE",
"709 1872 OFFCURVE",
"667 1907 CURVE",
"469 1907 LINE",
"469 1882 LINE"
);
}
);
};
components = (
{
alignment = -1;
name = D;
},
{
alignment = -1;
name = caron;
transform = "{1, 0, 0, 1, 92, 338}";
}
);
layerId = "80F7B5CA-46F0-48DD-AF7A-0C2E2531FBA7";
width = 1386;
},
{
background = {
paths = (
{
closed = 1;
nodes = (
"1337 1261 OFFCURVE",
"1126 1462 OFFCURVE",
"758 1462 CURVE SMOOTH",
"342 1462 LINE",
"33 0 LINE",
"504 0 LINE SMOOTH",
"676 0 OFFCURVE",
"825 36 OFFCURVE",
"951 109 CURVE SMOOTH",
"1202 254 OFFCURVE",
"1337 536 OFFCURVE",
"1337 909 CURVE SMOOTH"
);
},
{
closed = 1;
nodes = (
"666 1143 LINE",
"737 1143 LINE SMOOTH",
"866 1143 OFFCURVE",
"942 1056 OFFCURVE",
"942 889 CURVE SMOOTH",
"942 778 OFFCURVE",
"926 680 OFFCURVE",
"894 594 CURVE SMOOTH",
"830 421 OFFCURVE",
"710 324 OFFCURVE",
"563 324 CURVE SMOOTH",
"494 324 LINE"
);
},
{
closed = 1;
nodes = (
"460 1821 OFFCURVE",
"551 1674 OFFCURVE",
"592 1579 CURVE",
"1038 1579 LINE",
"1154 1706 OFFCURVE",
"1257 1808 OFFCURVE",
"1347 1884 CURVE",
"1347 1907 LINE",
"1073 1907 LINE",
"1006 1864 OFFCURVE",
"926 1806 OFFCURVE",
"833 1733 CURVE",
"758 1824 OFFCURVE",
"707 1882 OFFCURVE",
"678 1907 CURVE",
"412 1907 LINE",
"412 1884 LINE"
);
}
);
};
components = (
{
alignment = -1;
name = D;
},
{
alignment = -1;
name = caron;
transform = "{1, 0, 0, 1, 90, 338}";
}
);
layerId = "0B5E954E-D3E5-4A16-AD17-8B1BCB8BDBD4";
width = 1401;
},
{
components = (
{
name = D;
},
{
name = caron;
transform = "{1, 0, 0, 1, 92, 338}";
}
);
layerId = "2317BC77-1FCA-42D3-9CA3-F7C1C5BFA6BA";
width = 1374;
}
);
note = Dcaron;
unicode = 010E;
},
{
glyphname = Dcroat;
layers = (
{
layerId = "6AA17817-FAD2-45D4-8E70-7A3A6A841083";
paths = (
{
closed = 1;
nodes = (
"1300 1258 OFFCURVE",
"1105 1462 OFFCURVE",
"737 1462 CURVE SMOOTH",
"395 1462 LINE",
"254 799 LINE",
"104 799 LINE",
"72 649 LINE",
"221 649 LINE",
"86 0 LINE",
"438 0 LINE SMOOTH",
"613 0 OFFCURVE",
"765 36 OFFCURVE",
"895 108 CURVE SMOOTH",
"1155 252 OFFCURVE",
"1300 529 OFFCURVE",
"1300 877 CURVE SMOOTH"
);
},
{
closed = 1;
nodes = (
"393 649 LINE",
"723 649 LINE",
"756 799 LINE",
"426 799 LINE",
"537 1315 LINE",
"715 1315 LINE SMOOTH",
"980 1315 OFFCURVE",
"1120 1166 OFFCURVE",
"1120 879 CURVE SMOOTH",
"1120 736 OFFCURVE",
"1093 608 OFFCURVE",
"1039 497 CURVE SMOOTH",
"930 274 OFFCURVE",
"718 147 OFFCURVE",
"449 147 CURVE SMOOTH",
"287 147 LINE"
);
}
);
width = 1364;
},
{
layerId = "4C802D5D-2BAD-4759-8C93-835BB7B64EA1";
paths = (
{
closed = 1;
nodes = (
"1288 1263 OFFCURVE",
"1093 1462 OFFCURVE",
"717 1462 CURVE SMOOTH",
"412 1462 LINE",
"266 772 LINE",
"111 772 LINE",
"90 676 LINE",
"246 676 LINE",
"102 0 LINE",
"432 0 LINE SMOOTH",
"602 0 OFFCURVE",
"751 35 OFFCURVE",
"878 105 CURVE SMOOTH",
"1133 244 OFFCURVE",
"1288 542 OFFCURVE",
"1288 879 CURVE SMOOTH"
);
},
{
closed = 1;
nodes = (
"346 676 LINE",
"725 676 LINE",
"745 772 LINE",
"367 772 LINE",
"496 1370 LINE",
"702 1370 LINE SMOOTH",
"1019 1370 OFFCURVE",
"1178 1204 OFFCURVE",
"1178 872 CURVE SMOOTH",
"1178 718 OFFCURVE",
"1147 581 OFFCURVE",
"1086 460 CURVE SMOOTH",
"962 219 OFFCURVE",
"731 90 OFFCURVE",
"430 90 CURVE SMOOTH",
"221 90 LINE"
);
}
);
width = 1352;
},
{
layerId = "80F7B5CA-46F0-48DD-AF7A-0C2E2531FBA7";
paths = (
{
closed = 1;
nodes = (
"1323 1265 OFFCURVE",
"1118 1462 OFFCURVE",
"758 1462 CURVE SMOOTH",
"362 1462 LINE",
"231 850 LINE",
"92 850 LINE",
"37 596 LINE",
"178 596 LINE",
"53 0 LINE",
"504 0 LINE SMOOTH",
"672 0 OFFCURVE",
"818 36 OFFCURVE",
"942 108 CURVE SMOOTH",
"1189 252 OFFCURVE",
"1323 536 OFFCURVE",
"1323 909 CURVE SMOOTH"
);
},
{
closed = 1;
nodes = (
"483 596 LINE",
"721 596 LINE",
"776 850 LINE",
"539 850 LINE",
"614 1208 LINE",
"729 1208 LINE SMOOTH",
"910 1208 OFFCURVE",
"1010 1098 OFFCURVE",
"1010 893 CURVE SMOOTH",
"1010 766 OFFCURVE",
"989 654 OFFCURVE",
"948 556 CURVE SMOOTH",
"865 359 OFFCURVE",
"715 256 OFFCURVE",
"518 256 CURVE SMOOTH",
"412 256 LINE"
);
}
);
width = 1386;
},
{
layerId = "0B5E954E-D3E5-4A16-AD17-8B1BCB8BDBD4";
paths = (
{
closed = 1;
nodes = (
"152 563 LINE",
"33 0 LINE",
"526 0 LINE SMOOTH",
"1039 0 OFFCURVE",
"1337 330 OFFCURVE",
"1337 909 CURVE SMOOTH",
"1337 1264 OFFCURVE",
"1133 1462 OFFCURVE",
"772 1462 CURVE SMOOTH",
"342 1462 LINE",
"219 883 LINE",
"80 883 LINE",
"10 563 LINE"
);
},
{
closed = 1;
nodes = (
"543 563 LINE",
"719 563 LINE",
"788 883 LINE",
"610 883 LINE",
"666 1143 LINE",
"737 1143 LINE SMOOTH",
"866 1143 OFFCURVE",
"942 1056 OFFCURVE",
"942 901 CURVE SMOOTH",
"942 788 OFFCURVE",
"926 688 OFFCURVE",
"895 600 CURVE SMOOTH",
"832 423 OFFCURVE",
"711 324 OFFCURVE",
"563 324 CURVE SMOOTH",
"494 324 LINE"
);
}
);
width = 1401;
},
{
components = (
{
name = Eth;
}
);
layerId = "2317BC77-1FCA-42D3-9CA3-F7C1C5BFA6BA";
width = 1374;
}
);
note = Dcroat;
unicode = 0110;
},
{
glyphname = E;
layers = (
{
anchors = (
{
name = bottom;
position = "{408, 0}";
},
{
name = ogonek;
position = "{826, 10}";
},
{
name = top;
position = "{718, 1462}";
},
{
name = topleft;
position = "{214, 1462}";
}
);
layerId = "6AA17817-FAD2-45D4-8E70-7A3A6A841083";
paths = (
{
closed = 1;
nodes = (
"289 152 LINE",
"403 688 LINE",
"932 688 LINE",
"961 840 LINE",
"434 840 LINE",
"532 1309 LINE",
"1098 1309 LINE",
"1130 1462 LINE",
"395 1462 LINE",
"86 0 LINE",
"821 0 LINE",
"854 152 LINE"
);
}
);
width = 1047;
},
{
anchors = (
{
name = bottom;
position = "{418, 0}";
},
{
name = ogonek;
position = "{844, 10}";
},
{
name = top;
position = "{729, 1462}";
},
{
name = topleft;
position = "{215, 1462}";
}
);
layerId = "4C802D5D-2BAD-4759-8C93-835BB7B64EA1";
paths = (
{
closed = 1;
nodes = (
"223 94 LINE",
"358 721 LINE",
"946 721 LINE",
"967 815 LINE",
"377 815 LINE",
"494 1368 LINE",
"1118 1368 LINE",
"1139 1462 LINE",
"412 1462 LINE",
"102 0 LINE",
"829 0 LINE",
"850 94 LINE"
);
}
);
width = 1067;
},
{
anchors = (
{
name = bottom;
position = "{436, 0}";
},
{
name = ogonek;
position = "{880, 10}";
},
{
name = top;
position = "{747, 1462}";
},
{
name = topleft;
position = "{212, 1462}";
}
);
layerId = "80F7B5CA-46F0-48DD-AF7A-0C2E2531FBA7";
paths = (
{
closed = 1;
nodes = (
"412 256 LINE",
"492 633 LINE",
"969 633 LINE",
"1024 887 LINE",
"547 887 LINE",
"614 1208 LINE",
"1126 1208 LINE",
"1180 1462 LINE",
"362 1462 LINE",
"53 0 LINE",
"870 0 LINE",
"924 256 LINE"
);
}
);
width = 1110;
},
{
anchors = (
{
name = bottom;
position = "{456, 0}";
},
{
name = ogonek;
position = "{916, 10}";
},
{
name = top;
position = "{766, 1462}";
},
{
name = topleft;
position = "{210, 1462}";
}
);
layerId = "0B5E954E-D3E5-4A16-AD17-8B1BCB8BDBD4";
paths = (
{
closed = 1;
nodes = (
"492 322 LINE",
"549 598 LINE",
"993 598 LINE",
"1065 915 LINE",
"621 915 LINE",
"668 1145 LINE",
"1145 1145 LINE",
"1210 1462 LINE",
"342 1462 LINE",
"33 0 LINE",
"901 0 LINE",
"969 322 LINE"
);
}
);
width = 1151;
},
{
anchors = (
{
name = bottom;
position = "{421, 0}";
},
{
name = ogonek;
position = "{851, 10}";
},
{
name = top;
position = "{732, 1462}";
},
{
name = topleft;
position = "{213, 1462}";
}
);
layerId = "2317BC77-1FCA-42D3-9CA3-F7C1C5BFA6BA";
paths = (
{
closed = 1;
nodes = (
"350 203 LINE",
"446 659 LINE",
"950 659 LINE",
"991 862 LINE",
"489 862 LINE",
"573 1257 LINE",
"1112 1257 LINE",
"1155 1462 LINE",
"379 1462 LINE",
"70 0 LINE",
"846 0 LINE",
"889 203 LINE"
);
}
);
width = 1077;
}
);
note = E;
unicode = 0045;
},
{
glyphname = Eacute;
layers = (
{
background = {
paths = (
{
closed = 1;
nodes = (
"289 152 LINE",
"403 688 LINE",
"932 688 LINE",
"961 840 LINE",
"434 840 LINE",
"532 1309 LINE",
"1098 1309 LINE",
"1130 1462 LINE",
"395 1462 LINE",
"86 0 LINE",
"821 0 LINE",
"854 152 LINE"
);
},
{
closed = 1;
nodes = (
"762 1579 LINE",
"862 1651 OFFCURVE",
"1028 1821 OFFCURVE",
"1079 1886 CURVE",
"1079 1907 LINE",
"889 1907 LINE",
"840 1830 OFFCURVE",
"732 1686 OFFCURVE",
"657 1606 CURVE",
"657 1579 LINE"
);
}
);
};
components = (
{
alignment = -1;
name = E;
},
{
alignment = -1;
name = acute;
transform = "{1, 0, 0, 1, 125, 338}";
}
);
layerId = "6AA17817-FAD2-45D4-8E70-7A3A6A841083";
width = 1047;
},
{
background = {
paths = (
{
closed = 1;
nodes = (
"223 94 LINE",
"358 721 LINE",
"946 721 LINE",
"967 815 LINE",
"377 815 LINE",
"494 1368 LINE",
"1118 1368 LINE",
"1139 1462 LINE",
"412 1462 LINE",
"102 0 LINE",
"829 0 LINE",
"850 94 LINE"
);
},
{
closed = 1;
nodes = (
"721 1579 LINE",
"836 1651 OFFCURVE",
"1003 1796 OFFCURVE",
"1071 1884 CURVE",
"1071 1907 LINE",
"934 1907 LINE",
"874 1808 OFFCURVE",
"742 1668 OFFCURVE",
"654 1600 CURVE",
"654 1579 LINE"
);
}
);
};
components = (
{
alignment = -1;
name = E;
},
{
alignment = -1;
name = acute;
transform = "{1, 0, 0, 1, 74, 338}";
}
);
layerId = "4C802D5D-2BAD-4759-8C93-835BB7B64EA1";
width = 1067;
},
{
background = {
paths = (
{
closed = 1;
nodes = (
"412 256 LINE",
"492 633 LINE",
"969 633 LINE",
"1024 887 LINE",
"547 887 LINE",
"614 1208 LINE",
"1126 1208 LINE",
"1180 1462 LINE",
"362 1462 LINE",
"53 0 LINE",
"870 0 LINE",
"924 256 LINE"
);
},
{
closed = 1;
nodes = (
"817 1579 LINE",
"932 1662 OFFCURVE",
"1104 1815 OFFCURVE",
"1165 1890 CURVE",
"1165 1907 LINE",
"830 1907 LINE",
"735 1764 OFFCURVE",
"661 1663 OFFCURVE",
"608 1604 CURVE",
"608 1579 LINE"
);
}
);
};
components = (
{
alignment = -1;
name = E;
},
{
alignment = -1;
name = acute;
transform = "{1, 0, 0, 1, 125, 338}";
}
);
layerId = "80F7B5CA-46F0-48DD-AF7A-0C2E2531FBA7";
width = 1110;
},
{
background = {
paths = (
{
closed = 1;
nodes = (
"492 322 LINE",
"549 598 LINE",
"993 598 LINE",
"1065 915 LINE",
"621 915 LINE",
"668 1145 LINE",
"1145 1145 LINE",
"1210 1462 LINE",
"342 1462 LINE",
"33 0 LINE",
"901 0 LINE",
"969 322 LINE"
);
},
{
closed = 1;
nodes = (
"862 1579 LINE",
"994 1650 OFFCURVE",
"1239 1820 OFFCURVE",
"1299 1892 CURVE",
"1299 1907 LINE",
"860 1907 LINE",
"754 1772 OFFCURVE",
"660 1670 OFFCURVE",
"578 1602 CURVE",
"578 1579 LINE"
);
}
);
};
components = (
{
alignment = -1;
name = E;
},
{
alignment = -1;
name = acute;
transform = "{1, 0, 0, 1, 125, 338}";
}
);
layerId = "0B5E954E-D3E5-4A16-AD17-8B1BCB8BDBD4";
width = 1151;
},
{
components = (
{
name = E;
},
{
name = acute;
transform = "{1, 0, 0, 1, 125, 338}";
}
);
layerId = "2317BC77-1FCA-42D3-9CA3-F7C1C5BFA6BA";
width = 1077;
}
);
note = Eacute;
unicode = 00C9;
},
{
glyphname = Ebreve;
layers = (
{
background = {
paths = (
{
closed = 1;
nodes = (
"289 152 LINE",
"403 688 LINE",
"932 688 LINE",
"961 840 LINE",
"434 840 LINE",
"532 1309 LINE",
"1098 1309 LINE",
"1130 1462 LINE",
"395 1462 LINE",
"86 0 LINE",
"821 0 LINE",
"854 152 LINE"
);
},
{
closed = 1;
nodes = (
"982 1764 OFFCURVE",
"915 1722 OFFCURVE",
"802 1722 CURVE SMOOTH",
"679 1722 OFFCURVE",
"636 1768 OFFCURVE",
"636 1847 CURVE",
"538 1847 LINE",
"536 1825 LINE",
"536 1804 LINE SMOOTH",
"536 1663 OFFCURVE",
"633 1579 OFFCURVE",
"784 1579 CURVE SMOOTH",
"960 1579 OFFCURVE",
"1067 1663 OFFCURVE",
"1112 1847 CURVE",
"1005 1847 LINE"
);
}
);
};
components = (
{
alignment = -1;
name = E;
},
{
alignment = -1;
name = breve;
transform = "{1, 0, 0, 1, 61, 338}";
}
);
layerId = "6AA17817-FAD2-45D4-8E70-7A3A6A841083";
width = 1047;
},
{
background = {
paths = (
{
closed = 1;
nodes = (
"223 94 LINE",
"358 721 LINE",
"946 721 LINE",
"967 815 LINE",
"377 815 LINE",
"494 1368 LINE",
"1118 1368 LINE",
"1139 1462 LINE",
"412 1462 LINE",
"102 0 LINE",
"829 0 LINE",
"850 94 LINE"
);
},
{
closed = 1;
nodes = (
"983 1716 OFFCURVE",
"916 1681 OFFCURVE",
"803 1681 CURVE SMOOTH",
"688 1681 OFFCURVE",
"645 1728 OFFCURVE",
"645 1819 CURVE",
"576 1819 LINE",
"574 1799 LINE",
"574 1778 LINE SMOOTH",
"574 1655 OFFCURVE",
"655 1585 OFFCURVE",
"795 1585 CURVE SMOOTH",
"955 1585 OFFCURVE",
"1049 1659 OFFCURVE",
"1088 1819 CURVE",
"1016 1819 LINE"
);
}
);
};
components = (
{
alignment = -1;
name = E;
},
{
alignment = -1;
name = breve;
transform = "{1, 0, 0, 1, 80, 338}";
}
);
layerId = "4C802D5D-2BAD-4759-8C93-835BB7B64EA1";
width = 1067;
},
{
background = {
paths = (
{
closed = 1;
nodes = (
"412 256 LINE",
"492 633 LINE",
"969 633 LINE",
"1024 887 LINE",
"547 887 LINE",
"614 1208 LINE",
"1126 1208 LINE",
"1180 1462 LINE",
"362 1462 LINE",
"53 0 LINE",
"870 0 LINE",
"924 256 LINE"
);
},
{
closed = 1;
nodes = (
"966 1822 OFFCURVE",
"899 1792 OFFCURVE",
"795 1792 CURVE SMOOTH",
"687 1792 OFFCURVE",
"641 1830 OFFCURVE",
"641 1917 CURVE",
"467 1917 LINE",
"463 1898 OFFCURVE",
"461 1876 OFFCURVE",
"461 1851 CURVE SMOOTH",
"461 1683 OFFCURVE",
"581 1579 OFFCURVE",
"785 1579 CURVE SMOOTH",
"1010 1579 OFFCURVE",
"1141 1692 OFFCURVE",
"1178 1917 CURVE",
"989 1917 LINE"
);
}
);
};
components = (
{
alignment = -1;
name = E;
},
{
alignment = -1;
name = breve;
transform = "{1, 0, 0, 1, 31, 338}";
}
);
layerId = "80F7B5CA-46F0-48DD-AF7A-0C2E2531FBA7";
width = 1110;
},
{
background = {
paths = (
{
closed = 1;
nodes = (
"492 322 LINE",
"549 598 LINE",
"993 598 LINE",
"1065 915 LINE",
"621 915 LINE",
"668 1145 LINE",
"1145 1145 LINE",
"1210 1462 LINE",
"342 1462 LINE",
"33 0 LINE",
"901 0 LINE",
"969 322 LINE"
);
},
{
closed = 1;
nodes = (
"971 1865 OFFCURVE",
"911 1821 OFFCURVE",
"798 1821 CURVE SMOOTH",
"699 1821 OFFCURVE",
"635 1863 OFFCURVE",
"635 1950 CURVE",
"418 1950 LINE",
"412 1938 OFFCURVE",
"409 1919 OFFCURVE",
"409 1894 CURVE SMOOTH",
"409 1697 OFFCURVE",
"543 1579 OFFCURVE",
"766 1579 CURVE SMOOTH",
"1031 1579 OFFCURVE",
"1179 1699 OFFCURVE",
"1220 1950 CURVE",
"999 1950 LINE"
);
}
);
};
components = (
{
alignment = -1;
name = E;
},
{
alignment = -1;
name = breve;
transform = "{1, 0, 0, 1, 10, 338}";
}
);
layerId = "0B5E954E-D3E5-4A16-AD17-8B1BCB8BDBD4";
width = 1151;
},
{
components = (
{
name = E;
},
{
name = breve;
transform = "{1, 0, 0, 1, 45, 338}";
}
);
layerId = "2317BC77-1FCA-42D3-9CA3-F7C1C5BFA6BA";
width = 1077;
}
);
note = Ebreve;
unicode = 0114;
},
{
glyphname = Ecaron;
layers = (
{
background = {
paths = (
{
closed = 1;
nodes = (
"289 152 LINE",
"403 688 LINE",
"932 688 LINE",
"961 840 LINE",
"434 840 LINE",
"532 1309 LINE",
"1098 1309 LINE",
"1130 1462 LINE",
"395 1462 LINE",
"86 0 LINE",
"821 0 LINE",
"854 152 LINE"
);
},
{
closed = 1;
nodes = (
"557 1814 LINE SMOOTH",
"618 1721 OFFCURVE",
"659 1642 OFFCURVE",
"682 1579 CURVE",
"842 1579 LINE",
"885 1648 OFFCURVE",
"1012 1777 OFFCURVE",
"1128 1880 CURVE",
"1128 1907 LINE",
"1022 1907 LINE",
"940 1854 OFFCURVE",
"858 1791 OFFCURVE",
"776 1718 CURVE",
"720 1794 OFFCURVE",
"669 1864 OFFCURVE",
"614 1907 CURVE",
"514 1907 LINE",
"514 1880 LINE"
);
}
);
};
components = (
{
alignment = -1;
name = E;
},
{
alignment = -1;
name = caron;
transform = "{1, 0, 0, 1, 47, 338}";
}
);
layerId = "6AA17817-FAD2-45D4-8E70-7A3A6A841083";
width = 1047;
},
{
background = {
paths = (
{
closed = 1;
nodes = (
"223 94 LINE",
"358 721 LINE",
"946 721 LINE",
"967 815 LINE",
"377 815 LINE",
"494 1368 LINE",
"1118 1368 LINE",
"1139 1462 LINE",
"412 1462 LINE",
"102 0 LINE",
"829 0 LINE",
"850 94 LINE"
);
},
{
closed = 1;
nodes = (
"638 1802 OFFCURVE",
"709 1678 OFFCURVE",
"748 1579 CURVE",
"811 1579 LINE",
"867 1662 OFFCURVE",
"1005 1805 OFFCURVE",
"1096 1878 CURVE",
"1096 1907 LINE",
"1043 1907 LINE",
"970 1860 OFFCURVE",
"866 1776 OFFCURVE",
"793 1700 CURVE",
"733 1797 OFFCURVE",
"679 1866 OFFCURVE",
"631 1907 CURVE",
"582 1907 LINE",
"582 1878 LINE"
);
}
);
};
components = (
{
alignment = -1;
name = E;
},
{
alignment = -1;
name = caron;
transform = "{1, 0, 0, 1, 68, 338}";
}
);
layerId = "4C802D5D-2BAD-4759-8C93-835BB7B64EA1";
width = 1067;
},
{
background = {
paths = (
{
closed = 1;
nodes = (
"412 256 LINE",
"492 633 LINE",
"969 633 LINE",
"1024 887 LINE",
"547 887 LINE",
"614 1208 LINE",
"1126 1208 LINE",
"1180 1462 LINE",
"362 1462 LINE",
"53 0 LINE",
"870 0 LINE",
"924 256 LINE"
);
},
{
closed = 1;
nodes = (
"489 1786 OFFCURVE",
"569 1651 OFFCURVE",
"598 1579 CURVE",
"936 1579 LINE",
"991 1649 OFFCURVE",
"1090 1750 OFFCURVE",
"1231 1882 CURVE",
"1231 1907 LINE",
"1014 1907 LINE",
"936 1858 OFFCURVE",
"859 1802 OFFCURVE",
"782 1739 CURVE",
"716 1816 OFFCURVE",
"662 1872 OFFCURVE",
"620 1907 CURVE",
"422 1907 LINE",
"422 1882 LINE"
);
}
);
};
components = (
{
alignment = -1;
name = E;
},
{
alignment = -1;
name = caron;
transform = "{1, 0, 0, 1, 45, 338}";
}
);
layerId = "80F7B5CA-46F0-48DD-AF7A-0C2E2531FBA7";
width = 1110;
},
{
background = {
paths = (
{
closed = 1;
nodes = (
"492 322 LINE",
"549 598 LINE",
"993 598 LINE",
"1065 915 LINE",
"621 915 LINE",
"668 1145 LINE",
"1145 1145 LINE",
"1210 1462 LINE",
"342 1462 LINE",
"33 0 LINE",
"901 0 LINE",
"969 322 LINE"
);
},
{
closed = 1;
nodes = (
"413 1821 OFFCURVE",
"504 1674 OFFCURVE",
"545 1579 CURVE",
"991 1579 LINE",
"1107 1706 OFFCURVE",
"1210 1808 OFFCURVE",
"1300 1884 CURVE",
"1300 1907 LINE",
"1026 1907 LINE",
"959 1864 OFFCURVE",
"879 1806 OFFCURVE",
"786 1733 CURVE",
"711 1824 OFFCURVE",
"660 1882 OFFCURVE",
"631 1907 CURVE",
"365 1907 LINE",
"365 1884 LINE"
);
}
);
};
components = (
{
alignment = -1;
name = E;
},
{
alignment = -1;
name = caron;
transform = "{1, 0, 0, 1, 43, 338}";
}
);
layerId = "0B5E954E-D3E5-4A16-AD17-8B1BCB8BDBD4";
width = 1151;
},
{
components = (
{
name = E;
},
{
name = caron;
transform = "{1, 0, 0, 1, 45, 338}";
}
);
layerId = "2317BC77-1FCA-42D3-9CA3-F7C1C5BFA6BA";
width = 1077;
}
);
note = Ecaron;
unicode = 011A;
},
{
glyphname = Ecircumflex;
layers = (
{
background = {
paths = (
{
closed = 1;
nodes = (
"289 152 LINE",
"403 688 LINE",
"932 688 LINE",
"961 840 LINE",
"434 840 LINE",
"532 1309 LINE",
"1098 1309 LINE",
"1130 1462 LINE",
"395 1462 LINE",
"86 0 LINE",
"821 0 LINE",
"854 152 LINE"
);
},
{
closed = 1;
nodes = (
"1042 1672 LINE SMOOTH",
"981 1763 OFFCURVE",
"939 1841 OFFCURVE",
"914 1907 CURVE",
"756 1907 LINE",
"741 1881 OFFCURVE",
"713 1847 OFFCURVE",
"674 1804 CURVE SMOOTH",
"634 1761 OFFCURVE",
"566 1695 OFFCURVE",
"469 1606 CURVE",
"469 1579 LINE",
"578 1579 LINE",
"650 1626 OFFCURVE",
"731 1689 OFFCURVE",
"820 1768 CURVE",
"889 1674 OFFCURVE",
"943 1611 OFFCURVE",
"981 1579 CURVE",
"1084 1579 LINE",
"1084 1606 LINE"
);
}
);
};
components = (
{
alignment = -1;
name = E;
},
{
alignment = -1;
name = circumflex;
transform = "{1, 0, 0, 1, 70, 338}";
}
);
layerId = "6AA17817-FAD2-45D4-8E70-7A3A6A841083";
width = 1047;
},
{
background = {
paths = (
{
closed = 1;
nodes = (
"223 94 LINE",
"358 721 LINE",
"946 721 LINE",
"967 815 LINE",
"377 815 LINE",
"494 1368 LINE",
"1118 1368 LINE",
"1139 1462 LINE",
"412 1462 LINE",
"102 0 LINE",
"829 0 LINE",
"850 94 LINE"
);
},
{
closed = 1;
nodes = (
"979 1685 OFFCURVE",
"902 1822 OFFCURVE",
"871 1907 CURVE",
"807 1907 LINE",
"756 1830 OFFCURVE",
"613 1683 OFFCURVE",
"522 1608 CURVE",
"522 1579 LINE",
"576 1579 LINE",
"649 1626 OFFCURVE",
"753 1710 OFFCURVE",
"826 1786 CURVE",
"887 1688 OFFCURVE",
"940 1619 OFFCURVE",
"987 1579 CURVE",
"1036 1579 LINE",
"1036 1608 LINE"
);
}
);
};
components = (
{
alignment = -1;
name = E;
},
{
alignment = -1;
name = circumflex;
transform = "{1, 0, 0, 1, 78, 338}";
}
);
layerId = "4C802D5D-2BAD-4759-8C93-835BB7B64EA1";
width = 1067;
},
{
background = {
paths = (
{
closed = 1;
nodes = (
"412 256 LINE",
"492 633 LINE",
"969 633 LINE",
"1024 887 LINE",
"547 887 LINE",
"614 1208 LINE",
"1126 1208 LINE",
"1180 1462 LINE",
"362 1462 LINE",
"53 0 LINE",
"870 0 LINE",
"924 256 LINE"
);
},
{
closed = 1;
nodes = (
"1110 1700 OFFCURVE",
"1030 1835 OFFCURVE",
"1001 1907 CURVE",
"663 1907 LINE",
"594 1819 OFFCURVE",
"452 1680 OFFCURVE",
"368 1604 CURVE",
"368 1579 LINE",
"585 1579 LINE",
"670 1632 OFFCURVE",
"747 1688 OFFCURVE",
"817 1747 CURVE",
"883 1670 OFFCURVE",
"937 1614 OFFCURVE",
"979 1579 CURVE",
"1177 1579 LINE",
"1177 1604 LINE"
);
}
);
};
components = (
{
alignment = -1;
name = E;
},
{
alignment = -1;
name = circumflex;
transform = "{1, 0, 0, 1, 57, 338}";
}
);
layerId = "80F7B5CA-46F0-48DD-AF7A-0C2E2531FBA7";
width = 1110;
},
{
background = {
paths = (
{
closed = 1;
nodes = (
"492 322 LINE",
"549 598 LINE",
"993 598 LINE",
"1065 915 LINE",
"621 915 LINE",
"668 1145 LINE",
"1145 1145 LINE",
"1210 1462 LINE",
"342 1462 LINE",
"33 0 LINE",
"901 0 LINE",
"969 322 LINE"
);
},
{
closed = 1;
nodes = (
"1172 1689 OFFCURVE",
"1094 1828 OFFCURVE",
"1059 1907 CURVE",
"612 1907 LINE",
"548 1838 OFFCURVE",
"408 1698 OFFCURVE",
"303 1602 CURVE",
"303 1579 LINE",
"577 1579 LINE",
"644 1622 OFFCURVE",
"724 1680 OFFCURVE",
"817 1753 CURVE",
"890 1664 OFFCURVE",
"942 1606 OFFCURVE",
"973 1579 CURVE",
"1239 1579 LINE",
"1239 1602 LINE"
);
}
);
};
components = (
{
alignment = -1;
name = E;
},
{
alignment = -1;
name = circumflex;
transform = "{1, 0, 0, 1, 49, 338}";
}
);
layerId = "0B5E954E-D3E5-4A16-AD17-8B1BCB8BDBD4";
width = 1151;
},
{
components = (
{
name = E;
},
{
name = circumflex;
transform = "{1, 0, 0, 1, 63, 338}";
}
);
layerId = "2317BC77-1FCA-42D3-9CA3-F7C1C5BFA6BA";
width = 1077;
}
);
note = Ecircumflex;
unicode = 00CA;
},
{
glyphname = Edieresis;
layers = (
{
background = {
paths = (
{
closed = 1;
nodes = (
"289 152 LINE",
"403 688 LINE",
"932 688 LINE",
"961 840 LINE",
"434 840 LINE",
"532 1309 LINE",
"1098 1309 LINE",
"1130 1462 LINE",
"395 1462 LINE",
"86 0 LINE",
"821 0 LINE",
"854 152 LINE"
);
},
{
closed = 1;
nodes = (
"523 1663 OFFCURVE",
"558 1632 OFFCURVE",
"605 1632 CURVE SMOOTH",
"657 1632 OFFCURVE",
"703 1684 OFFCURVE",
"703 1749 CURVE SMOOTH",
"703 1802 OFFCURVE",
"677 1829 OFFCURVE",
"625 1829 CURVE SMOOTH",
"564 1829 OFFCURVE",
"523 1777 OFFCURVE",
"523 1716 CURVE SMOOTH"
);
},
{
closed = 1;
nodes = (
"887 1663 OFFCURVE",
"922 1632 OFFCURVE",
"969 1632 CURVE SMOOTH",
"1021 1632 OFFCURVE",
"1067 1684 OFFCURVE",
"1067 1749 CURVE SMOOTH",
"1067 1802 OFFCURVE",
"1041 1829 OFFCURVE",
"990 1829 CURVE SMOOTH",
"927 1829 OFFCURVE",
"887 1777 OFFCURVE",
"887 1716 CURVE SMOOTH"
);
}
);
};
components = (
{
alignment = -1;
name = E;
},
{
alignment = -1;
name = dieresis;
transform = "{1, 0, 0, 1, 66, 338}";
}
);
layerId = "6AA17817-FAD2-45D4-8E70-7A3A6A841083";
width = 1047;
},
{
background = {
paths = (
{
closed = 1;
nodes = (
"223 94 LINE",
"358 721 LINE",
"946 721 LINE",
"967 815 LINE",
"377 815 LINE",
"494 1368 LINE",
"1118 1368 LINE",
"1139 1462 LINE",
"412 1462 LINE",
"102 0 LINE",
"829 0 LINE",
"850 94 LINE"
);
},
{
closed = 1;
nodes = (
"902 1662 OFFCURVE",
"920 1641 OFFCURVE",
"957 1641 CURVE SMOOTH",
"1002 1641 OFFCURVE",
"1033 1683 OFFCURVE",
"1033 1747 CURVE SMOOTH",
"1033 1790 OFFCURVE",
"1015 1811 OFFCURVE",
"979 1811 CURVE SMOOTH",
"931 1811 OFFCURVE",
"902 1769 OFFCURVE",
"902 1704 CURVE SMOOTH"
);
},
{
closed = 1;
nodes = (
"558 1662 OFFCURVE",
"576 1641 OFFCURVE",
"613 1641 CURVE SMOOTH",
"658 1641 OFFCURVE",
"689 1683 OFFCURVE",
"689 1747 CURVE SMOOTH",
"689 1790 OFFCURVE",
"671 1811 OFFCURVE",
"635 1811 CURVE SMOOTH",
"587 1811 OFFCURVE",
"558 1769 OFFCURVE",
"558 1704 CURVE SMOOTH"
);
}
);
};
components = (
{
alignment = -1;
name = E;
},
{
alignment = -1;
name = dieresis;
transform = "{1, 0, 0, 1, 66, 338}";
}
);
layerId = "4C802D5D-2BAD-4759-8C93-835BB7B64EA1";
width = 1067;
},
{
background = {
paths = (
{
closed = 1;
nodes = (
"412 256 LINE",
"492 633 LINE",
"969 633 LINE",
"1024 887 LINE",
"547 887 LINE",
"614 1208 LINE",
"1126 1208 LINE",
"1180 1462 LINE",
"362 1462 LINE",
"53 0 LINE",
"870 0 LINE",
"924 256 LINE"
);
},
{
closed = 1;
nodes = (
"438 1647 OFFCURVE",
"483 1610 OFFCURVE",
"573 1610 CURVE SMOOTH",
"682 1610 OFFCURVE",
"733 1673 OFFCURVE",
"733 1770 CURVE SMOOTH",
"733 1842 OFFCURVE",
"689 1878 OFFCURVE",
"600 1878 CURVE SMOOTH",
"497 1878 OFFCURVE",
"438 1824 OFFCURVE",
"438 1720 CURVE SMOOTH"
);
},
{
closed = 1;
nodes = (
"840 1647 OFFCURVE",
"885 1610 OFFCURVE",
"975 1610 CURVE SMOOTH",
"1083 1610 OFFCURVE",
"1135 1673 OFFCURVE",
"1135 1770 CURVE SMOOTH",
"1135 1839 OFFCURVE",
"1089 1878 OFFCURVE",
"1002 1878 CURVE SMOOTH",
"898 1878 OFFCURVE",
"840 1824 OFFCURVE",
"840 1720 CURVE SMOOTH"
);
}
);
};
components = (
{
alignment = -1;
name = E;
},
{
alignment = -1;
name = dieresis;
transform = "{1, 0, 0, 1, 41, 338}";
}
);
layerId = "80F7B5CA-46F0-48DD-AF7A-0C2E2531FBA7";
width = 1110;
},
{
background = {
paths = (
{
closed = 1;
nodes = (
"492 322 LINE",
"549 598 LINE",
"993 598 LINE",
"1065 915 LINE",
"621 915 LINE",
"668 1145 LINE",
"1145 1145 LINE",
"1210 1462 LINE",
"342 1462 LINE",
"33 0 LINE",
"901 0 LINE",
"969 322 LINE"
);
},
{
closed = 1;
nodes = (
"383 1635 OFFCURVE",
"436 1595 OFFCURVE",
"553 1595 CURVE SMOOTH",
"687 1595 OFFCURVE",
"754 1658 OFFCURVE",
"754 1784 CURVE SMOOTH",
"754 1867 OFFCURVE",
"697 1909 OFFCURVE",
"584 1909 CURVE SMOOTH",
"450 1909 OFFCURVE",
"383 1847 OFFCURVE",
"383 1722 CURVE SMOOTH"
);
},
{
closed = 1;
nodes = (
"870 1635 OFFCURVE",
"923 1595 OFFCURVE",
"1040 1595 CURVE SMOOTH",
"1173 1595 OFFCURVE",
"1239 1655 OFFCURVE",
"1239 1784 CURVE SMOOTH",
"1239 1867 OFFCURVE",
"1183 1909 OFFCURVE",
"1071 1909 CURVE SMOOTH",
"937 1909 OFFCURVE",
"870 1847 OFFCURVE",
"870 1722 CURVE SMOOTH"
);
}
);
};
components = (
{
alignment = -1;
name = E;
},
{
alignment = -1;
name = dieresis;
transform = "{1, 0, 0, 1, 47, 338}";
}
);
layerId = "0B5E954E-D3E5-4A16-AD17-8B1BCB8BDBD4";
width = 1151;
},
{
components = (
{
name = E;
},
{
name = dieresis;
transform = "{1, 0, 0, 1, 53, 338}";
}
);
layerId = "2317BC77-1FCA-42D3-9CA3-F7C1C5BFA6BA";
width = 1077;
}
);
note = Edieresis;
unicode = 00CB;
},
{
glyphname = Edotaccent;
layers = (
{
background = {
paths = (
{
closed = 1;
nodes = (
"289 152 LINE",
"403 688 LINE",
"932 688 LINE",
"961 840 LINE",
"434 840 LINE",
"532 1309 LINE",
"1098 1309 LINE",
"1130 1462 LINE",
"395 1462 LINE",
"86 0 LINE",
"821 0 LINE",
"854 152 LINE"
);
},
{
closed = 1;
nodes = (
"672 1625 OFFCURVE",
"713 1591 OFFCURVE",
"764 1591 CURVE SMOOTH",
"821 1591 OFFCURVE",
"874 1649 OFFCURVE",
"874 1722 CURVE SMOOTH",
"874 1782 OFFCURVE",
"845 1812 OFFCURVE",
"786 1812 CURVE SMOOTH",
"719 1812 OFFCURVE",
"672 1756 OFFCURVE",
"672 1685 CURVE SMOOTH"
);
}
);
};
components = (
{
alignment = -1;
name = E;
},
{
alignment = -1;
name = dotaccent;
transform = "{1, 0, 0, 1, 348, 309}";
}
);
layerId = "6AA17817-FAD2-45D4-8E70-7A3A6A841083";
width = 1047;
},
{
background = {
paths = (
{
closed = 1;
nodes = (
"223 94 LINE",
"358 721 LINE",
"946 721 LINE",
"967 815 LINE",
"377 815 LINE",
"494 1368 LINE",
"1118 1368 LINE",
"1139 1462 LINE",
"412 1462 LINE",
"102 0 LINE",
"829 0 LINE",
"850 94 LINE"
);
},
{
closed = 1;
nodes = (
"734 1626 OFFCURVE",
"754 1601 OFFCURVE",
"793 1601 CURVE SMOOTH",
"840 1601 OFFCURVE",
"873 1647 OFFCURVE",
"873 1724 CURVE SMOOTH",
"873 1772 OFFCURVE",
"854 1796 OFFCURVE",
"816 1796 CURVE SMOOTH",
"764 1796 OFFCURVE",
"734 1750 OFFCURVE",
"734 1675 CURVE SMOOTH"
);
}
);
};
components = (
{
alignment = -1;
name = E;
},
{
alignment = -1;
name = dotaccent;
transform = "{1, 0, 0, 1, 408, 309}";
}
);
layerId = "4C802D5D-2BAD-4759-8C93-835BB7B64EA1";
width = 1067;
},
{
background = {
paths = (
{
closed = 1;
nodes = (
"412 256 LINE",
"492 633 LINE",
"969 633 LINE",
"1024 887 LINE",
"547 887 LINE",
"614 1208 LINE",
"1126 1208 LINE",
"1180 1462 LINE",
"362 1462 LINE",
"53 0 LINE",
"870 0 LINE",
"924 256 LINE"
);
},
{
closed = 1;
nodes = (
"623 1607 OFFCURVE",
"673 1566 OFFCURVE",
"774 1566 CURVE SMOOTH",
"897 1566 OFFCURVE",
"954 1638 OFFCURVE",
"954 1745 CURVE SMOOTH",
"954 1822 OFFCURVE",
"902 1865 OFFCURVE",
"805 1865 CURVE SMOOTH",
"689 1865 OFFCURVE",
"623 1805 OFFCURVE",
"623 1689 CURVE SMOOTH"
);
}
);
};
components = (
{
alignment = -1;
name = E;
},
{
alignment = -1;
name = dotaccent;
transform = "{1, 0, 0, 1, 301, 309}";
}
);
layerId = "80F7B5CA-46F0-48DD-AF7A-0C2E2531FBA7";
width = 1110;
},
{
background = {
paths = (
{
closed = 1;
nodes = (
"492 322 LINE",
"549 598 LINE",
"993 598 LINE",
"1065 915 LINE",
"621 915 LINE",
"668 1145 LINE",
"1145 1145 LINE",
"1210 1462 LINE",
"342 1462 LINE",
"33 0 LINE",
"901 0 LINE",
"969 322 LINE"
);
},
{
closed = 1;
nodes = (
"589 1598 OFFCURVE",
"647 1550 OFFCURVE",
"780 1550 CURVE SMOOTH",
"931 1550 OFFCURVE",
"1007 1620 OFFCURVE",
"1007 1759 CURVE SMOOTH",
"1007 1850 OFFCURVE",
"944 1900 OFFCURVE",
"817 1900 CURVE SMOOTH",
"665 1900 OFFCURVE",
"589 1830 OFFCURVE",
"589 1691 CURVE SMOOTH"
);
}
);
};
components = (
{
alignment = -1;
name = E;
},
{
alignment = -1;
name = dotaccent;
transform = "{1, 0, 0, 1, 270, 309}";
}
);
layerId = "0B5E954E-D3E5-4A16-AD17-8B1BCB8BDBD4";
width = 1151;
},
{
components = (
{
name = E;
},
{
name = dotaccent;
transform = "{1, 0, 0, 1, 324, 309}";
}
);
layerId = "2317BC77-1FCA-42D3-9CA3-F7C1C5BFA6BA";
width = 1077;
}
);
note = Edotaccent;
unicode = 0116;
},
{
glyphname = Egrave;
layers = (
{
background = {
paths = (
{
closed = 1;
nodes = (
"289 152 LINE",
"403 688 LINE",
"932 688 LINE",
"961 840 LINE",
"434 840 LINE",
"532 1309 LINE",
"1098 1309 LINE",
"1130 1462 LINE",
"395 1462 LINE",
"86 0 LINE",
"821 0 LINE",
"854 152 LINE"
);
},
{
closed = 1;
nodes = (
"829 1715 OFFCURVE",
"780 1816 OFFCURVE",
"751 1907 CURVE",
"570 1907 LINE",
"570 1886 LINE",
"607 1806 OFFCURVE",
"713 1660 OFFCURVE",
"794 1579 CURVE",
"898 1579 LINE",
"898 1604 LINE"
);
}
);
};
components = (
{
alignment = -1;
name = E;
},
{
alignment = -1;
name = grave;
transform = "{1, 0, 0, 1, -5, 338}";
}
);
layerId = "6AA17817-FAD2-45D4-8E70-7A3A6A841083";
width = 1047;
},
{
background = {
paths = (
{
closed = 1;
nodes = (
"223 94 LINE",
"358 721 LINE",
"946 721 LINE",
"967 815 LINE",
"377 815 LINE",
"494 1368 LINE",
"1118 1368 LINE",
"1139 1462 LINE",
"412 1462 LINE",
"102 0 LINE",
"829 0 LINE",
"850 94 LINE"
);
},
{
closed = 1;
nodes = (
"812 1720 OFFCURVE",
"758 1821 OFFCURVE",
"727 1907 CURVE",
"612 1907 LINE",
"612 1886 LINE",
"659 1793 OFFCURVE",
"758 1648 OFFCURVE",
"825 1579 CURVE",
"891 1579 LINE",
"891 1604 LINE"
);
}
);
};
components = (
{
alignment = -1;
name = E;
},
{
alignment = -1;
name = grave;
transform = "{1, 0, 0, 1, 125, 338}";
}
);
layerId = "4C802D5D-2BAD-4759-8C93-835BB7B64EA1";
width = 1067;
},
{
background = {
paths = (
{
closed = 1;
nodes = (
"412 256 LINE",
"492 633 LINE",
"969 633 LINE",
"1024 887 LINE",
"547 887 LINE",
"614 1208 LINE",
"1126 1208 LINE",
"1180 1462 LINE",
"362 1462 LINE",
"53 0 LINE",
"870 0 LINE",
"924 256 LINE"
);
},
{
closed = 1;
nodes = (
"853 1707 OFFCURVE",
"815 1808 OFFCURVE",
"791 1907 CURVE",
"480 1907 LINE",
"480 1886 LINE",
"528 1794 OFFCURVE",
"627 1671 OFFCURVE",
"722 1579 CURVE",
"906 1579 LINE",
"906 1604 LINE"
);
}
);
};
components = (
{
alignment = -1;
name = E;
},
{
alignment = -1;
name = grave;
transform = "{1, 0, 0, 1, -28, 338}";
}
);
layerId = "80F7B5CA-46F0-48DD-AF7A-0C2E2531FBA7";
width = 1110;
},
{
background = {
paths = (
{
closed = 1;
nodes = (
"492 322 LINE",
"549 598 LINE",
"993 598 LINE",
"1065 915 LINE",
"621 915 LINE",
"668 1145 LINE",
"1145 1145 LINE",
"1210 1462 LINE",
"342 1462 LINE",
"33 0 LINE",
"901 0 LINE",
"969 322 LINE"
);
},
{
closed = 1;
nodes = (
"890 1701 OFFCURVE",
"858 1802 OFFCURVE",
"839 1907 CURVE",
"443 1907 LINE",
"443 1886 LINE",
"486 1801 OFFCURVE",
"588 1679 OFFCURVE",
"697 1579 CURVE",
"933 1579 LINE",
"933 1604 LINE"
);
}
);
};
components = (
{
alignment = -1;
name = E;
},
{
alignment = -1;
name = grave;
transform = "{1, 0, 0, 1, -42, 338}";
}
);
layerId = "0B5E954E-D3E5-4A16-AD17-8B1BCB8BDBD4";
width = 1151;
},
{
components = (
{
name = E;
},
{
name = grave;
transform = "{1, 0, 0, 1, -15, 338}";
}
);
layerId = "2317BC77-1FCA-42D3-9CA3-F7C1C5BFA6BA";
width = 1077;
}
);
note = Egrave;
unicode = 00C8;
},
{
glyphname = Emacron;
layers = (
{
background = {
paths = (
{
closed = 1;
nodes = (
"289 152 LINE",
"403 688 LINE",
"932 688 LINE",
"961 840 LINE",
"434 840 LINE",
"532 1309 LINE",
"1098 1309 LINE",
"1130 1462 LINE",
"395 1462 LINE",
"86 0 LINE",
"821 0 LINE",
"854 152 LINE"
);
},
{
closed = 1;
nodes = (
"1040 1579 LINE",
"1071 1720 LINE",
"526 1720 LINE",
"496 1579 LINE"
);
}
);
};
components = (
{
alignment = -1;
name = E;
},
{
name = macroncomb;
transform = "{1, 0, 0, 1, 349, 338}";
}
);
layerId = "6AA17817-FAD2-45D4-8E70-7A3A6A841083";
width = 1047;
},
{
background = {
paths = (
{
closed = 1;
nodes = (
"223 94 LINE",
"358 721 LINE",
"946 721 LINE",
"967 815 LINE",
"377 815 LINE",
"494 1368 LINE",
"1118 1368 LINE",
"1139 1462 LINE",
"412 1462 LINE",
"102 0 LINE",
"829 0 LINE",
"850 94 LINE"
);
},
{
closed = 1;
nodes = (
"1033 1583 LINE",
"1051 1671 LINE",
"543 1671 LINE",
"525 1583 LINE"
);
}
);
};
components = (
{
alignment = -1;
name = E;
},
{
alignment = 1;
name = macroncomb;
transform = "{1, 0, 0, 1, 377, 338}";
}
);
layerId = "4C802D5D-2BAD-4759-8C93-835BB7B64EA1";
width = 1067;
},
{
background = {
paths = (
{
closed = 1;
nodes = (
"412 256 LINE",
"492 633 LINE",
"969 633 LINE",
"1024 887 LINE",
"547 887 LINE",
"614 1208 LINE",
"1126 1208 LINE",
"1180 1462 LINE",
"362 1462 LINE",
"53 0 LINE",
"870 0 LINE",
"924 256 LINE"
);
},
{
closed = 1;
nodes = (
"1090 1579 LINE",
"1135 1790 LINE",
"516 1790 LINE",
"471 1579 LINE"
);
}
);
};
components = (
{
alignment = -1;
name = E;
},
{
alignment = 1;
name = macroncomb;
transform = "{1, 0, 0, 1, 326, 338}";
}
);
layerId = "80F7B5CA-46F0-48DD-AF7A-0C2E2531FBA7";
width = 1110;
},
{
background = {
paths = (
{
closed = 1;
nodes = (
"492 322 LINE",
"549 598 LINE",
"993 598 LINE",
"1065 915 LINE",
"621 915 LINE",
"668 1145 LINE",
"1145 1145 LINE",
"1210 1462 LINE",
"342 1462 LINE",
"33 0 LINE",
"901 0 LINE",
"969 322 LINE"
);
},
{
closed = 1;
nodes = (
"1122 1579 LINE",
"1171 1815 LINE",
"506 1815 LINE",
"455 1579 LINE"
);
}
);
};
components = (
{
alignment = -1;
name = E;
},
{
name = macroncomb;
transform = "{1, 0, 0, 1, 312, 338}";
}
);
layerId = "0B5E954E-D3E5-4A16-AD17-8B1BCB8BDBD4";
width = 1151;
},
{
components = (
{
name = E;
},
{
name = macroncomb;
transform = "{1, 0, 0, 1, 323, 356}";
}
);
layerId = "2317BC77-1FCA-42D3-9CA3-F7C1C5BFA6BA";
width = 1077;
}
);
note = Emacron;
unicode = 0112;
},
{
glyphname = Eogonek;
layers = (
{
background = {
paths = (
{
closed = 1;
nodes = (
"289 152 LINE",
"403 688 LINE",
"932 688 LINE",
"961 840 LINE",
"434 840 LINE",
"532 1309 LINE",
"1098 1309 LINE",
"1130 1462 LINE",
"395 1462 LINE",
"86 0 LINE",
"821 0 LINE",
"854 152 LINE"
);
},
{
closed = 1;
nodes = (
"595 -39 OFFCURVE",
"552 -71 OFFCURVE",
"525 -97 CURVE SMOOTH",
"472 -150 OFFCURVE",
"443 -208 OFFCURVE",
"443 -279 CURVE SMOOTH",
"443 -383 OFFCURVE",
"510 -440 OFFCURVE",
"621 -440 CURVE SMOOTH",
"666 -440 OFFCURVE",
"703 -435 OFFCURVE",
"731 -426 CURVE",
"731 -319 LINE",
"704 -325 OFFCURVE",
"677 -328 OFFCURVE",
"651 -328 CURVE SMOOTH",
"605 -328 OFFCURVE",
"582 -305 OFFCURVE",
"582 -258 CURVE SMOOTH",
"582 -230 OFFCURVE",
"589 -203 OFFCURVE",
"602 -177 CURVE SMOOTH",
"629 -126 OFFCURVE",
"663 -87 OFFCURVE",
"772 0 CURVE",
"656 0 LINE"
);
}
);
};
components = (
{
alignment = -1;
name = E;
},
{
alignment = -1;
name = ogonek;
transform = "{1, 0, 0, 1, 588, 0}";
}
);
layerId = "6AA17817-FAD2-45D4-8E70-7A3A6A841083";
width = 1047;
},
{
anchors = (
{
name = top;
position = "{729, 1462}";
}
);
background = {
paths = (
{
closed = 1;
nodes = (
"223 94 LINE",
"358 721 LINE",
"946 721 LINE",
"967 815 LINE",
"377 815 LINE",
"494 1368 LINE",
"1118 1368 LINE",
"1139 1462 LINE",
"412 1462 LINE",
"102 0 LINE",
"829 0 LINE",
"850 94 LINE"
);
},
{
closed = 1;
nodes = (
"509 -96 OFFCURVE",
"453 -176 OFFCURVE",
"453 -268 CURVE SMOOTH",
"453 -361 OFFCURVE",
"511 -414 OFFCURVE",
"611 -414 CURVE SMOOTH",
"649 -414 OFFCURVE",
"682 -409 OFFCURVE",
"709 -399 CURVE",
"709 -328 LINE",
"680 -335 OFFCURVE",
"655 -338 OFFCURVE",
"633 -338 CURVE SMOOTH",
"574 -338 OFFCURVE",
"545 -311 OFFCURVE",
"545 -256 CURVE SMOOTH",
"545 -185 OFFCURVE",
"586 -123 OFFCURVE",
"667 -60 CURVE SMOOTH",
"742 0 LINE",
"670 0 LINE"
);
}
);
};
components = (
{
alignment = -1;
name = E;
},
{
alignment = -1;
name = ogonek;
transform = "{1, 0, 0, 1, 588, 0}";
}
);
layerId = "4C802D5D-2BAD-4759-8C93-835BB7B64EA1";
width = 1067;
},
{
background = {
anchors = (
{
name = top;
position = "{747, 1462}";
}
);
paths = (
{
closed = 1;
nodes = (
"412 256 LINE",
"492 633 LINE",
"969 633 LINE",
"1024 887 LINE",
"547 887 LINE",
"614 1208 LINE",
"1126 1208 LINE",
"1180 1462 LINE",
"362 1462 LINE",
"53 0 LINE",
"870 0 LINE",
"924 256 LINE"
);
},
{
closed = 1;
nodes = (
"413 -103 OFFCURVE",
"358 -188 OFFCURVE",
"358 -297 CURVE SMOOTH",
"358 -414 OFFCURVE",
"443 -492 OFFCURVE",
"579 -492 CURVE SMOOTH",
"632 -492 OFFCURVE",
"687 -484 OFFCURVE",
"743 -467 CURVE",
"743 -291 LINE",
"704 -303 OFFCURVE",
"670 -309 OFFCURVE",
"641 -309 CURVE SMOOTH",
"604 -309 OFFCURVE",
"581 -287 OFFCURVE",
"581 -250 CURVE SMOOTH",
"581 -217 OFFCURVE",
"593 -183 OFFCURVE",
"617 -148 CURVE SMOOTH",
"641 -113 OFFCURVE",
"693 -64 OFFCURVE",
"772 0 CURVE",
"573 0 LINE"
);
}
);
};
components = (
{
alignment = -1;
name = E;
},
{
alignment = -1;
name = ogonek;
transform = "{1, 0, 0, 1, 530, 0}";
}
);
layerId = "80F7B5CA-46F0-48DD-AF7A-0C2E2531FBA7";
width = 1110;
},
{
background = {
paths = (
{
closed = 1;
nodes = (
"492 322 LINE",
"549 598 LINE",
"993 598 LINE",
"1065 915 LINE",
"621 915 LINE",
"668 1145 LINE",
"1145 1145 LINE",
"1210 1462 LINE",
"342 1462 LINE",
"33 0 LINE",
"901 0 LINE",
"969 322 LINE"
);
},
{
closed = 1;
nodes = (
"365 -101 OFFCURVE",
"304 -193 OFFCURVE",
"304 -309 CURVE SMOOTH",
"304 -436 OFFCURVE",
"402 -524 OFFCURVE",
"553 -524 CURVE SMOOTH",
"623 -524 OFFCURVE",
"689 -514 OFFCURVE",
"752 -494 CURVE",
"752 -272 LINE",
"705 -289 OFFCURVE",
"666 -297 OFFCURVE",
"635 -297 CURVE SMOOTH",
"600 -297 OFFCURVE",
"582 -273 OFFCURVE",
"582 -246 CURVE SMOOTH",
"582 -201 OFFCURVE",
"605 -158 OFFCURVE",
"646 -113 CURVE SMOOTH",
"666 -91 OFFCURVE",
"708 -53 OFFCURVE",
"773 0 CURVE",
"521 0 LINE"
);
}
);
};
components = (
{
alignment = -1;
name = E;
},
{
alignment = -1;
name = ogonek;
transform = "{1, 0, 0, 1, 494, 0}";
}
);
layerId = "0B5E954E-D3E5-4A16-AD17-8B1BCB8BDBD4";
width = 1151;
},
{
anchors = (
{
name = top;
position = "{732, 1462}";
}
);
components = (
{
name = E;
},
{
name = ogonek;
transform = "{1, 0, 0, 1, 559, 0}";
}
);
layerId = "2317BC77-1FCA-42D3-9CA3-F7C1C5BFA6BA";
width = 1077;
}
);
note = Eogonek;
unicode = 0118;
},
{
glyphname = F;
layers = (
{
layerId = "6AA17817-FAD2-45D4-8E70-7A3A6A841083";
paths = (
{
closed = 1;
nodes = (
"918 623 LINE",
"950 776 LINE",
"422 776 LINE",
"532 1309 LINE",
"1100 1309 LINE",
"1130 1462 LINE",
"395 1462 LINE",
"86 0 LINE",
"258 0 LINE",
"389 623 LINE"
);
}
);
width = 967;
},
{
anchors = (
{
name = bottom;
position = "{375, 0}";
},
{
name = top;
position = "{686, 1462}";
}
);
layerId = "4C802D5D-2BAD-4759-8C93-835BB7B64EA1";
paths = (
{
closed = 1;
nodes = (
"911 653 LINE",
"932 748 LINE",
"362 748 LINE",
"496 1368 LINE",
"1100 1368 LINE",
"1120 1462 LINE",
"412 1462 LINE",
"102 0 LINE",
"205 0 LINE",
"342 653 LINE"
);
}
);
width = 981;
},
{
anchors = (
{
name = bottom;
position = "{425, 0}";
},
{
name = top;
position = "{736, 1462}";
}
);
layerId = "80F7B5CA-46F0-48DD-AF7A-0C2E2531FBA7";
paths = (
{
closed = 1;
nodes = (
"952 578 LINE",
"1008 831 LINE",
"535 831 LINE",
"614 1208 LINE",
"1122 1208 LINE",
"1176 1462 LINE",
"362 1462 LINE",
"53 0 LINE",
"358 0 LINE",
"479 578 LINE"
);
}
);
width = 1087;
},
{
layerId = "0B5E954E-D3E5-4A16-AD17-8B1BCB8BDBD4";
paths = (
{
closed = 1;
nodes = (
"975 547 LINE",
"1044 866 LINE",
"608 866 LINE",
"666 1145 LINE",
"1137 1145 LINE",
"1204 1462 LINE",
"342 1462 LINE",
"33 0 LINE",
"424 0 LINE",
"537 547 LINE"
);
}
);
width = 1165;
},
{
anchors = (
{
name = bottom;
position = "{395, 0}";
},
{
name = top;
position = "{706, 1462}";
}
);
layerId = "2317BC77-1FCA-42D3-9CA3-F7C1C5BFA6BA";
paths = (
{
closed = 1;
nodes = (
"934 600 LINE",
"979 803 LINE",
"477 803 LINE",
"573 1257 LINE",
"1110 1257 LINE",
"1153 1462 LINE",
"379 1462 LINE",
"70 0 LINE",
"307 0 LINE",
"434 600 LINE"
);
}
);
width = 1026;
}
);
note = F;
unicode = 0046;
},
{
glyphname = G;
layers = (
{
anchors = (
{
name = bottom;
position = "{577, 0}";
},
{
name = top;
position = "{887, 1462}";
}
);
layerId = "6AA17817-FAD2-45D4-8E70-7A3A6A841083";
paths = (
{
closed = 1;
nodes = (
"1077 614 LINE",
"981 170 LINE",
"910 144 OFFCURVE",
"824 131 OFFCURVE",
"721 131 CURVE SMOOTH",
"476 131 OFFCURVE",
"332 286 OFFCURVE",
"332 539 CURVE SMOOTH",
"332 689 OFFCURVE",
"358 825 OFFCURVE",
"409 946 CURVE SMOOTH",
"512 1189 OFFCURVE",
"707 1331 OFFCURVE",
"932 1331 CURVE SMOOTH",
"1073 1331 OFFCURVE",
"1189 1292 OFFCURVE",
"1292 1247 CURVE",
"1358 1399 LINE",
"1219 1458 OFFCURVE",
"1088 1483 OFFCURVE",
"932 1483 CURVE SMOOTH",
"786 1483 OFFCURVE",
"653 1442 OFFCURVE",
"533 1361 CURVE SMOOTH",
"293 1197 OFFCURVE",
"150 887 OFFCURVE",
"150 528 CURVE SMOOTH",
"150 183 OFFCURVE",
"355 -20 OFFCURVE",
"707 -20 CURVE SMOOTH",
"842 -20 OFFCURVE",
"982 5 OFFCURVE",
"1126 55 CURVE",
"1280 766 LINE",
"821 766 LINE",
"788 614 LINE"
);
}
);
width = 1386;
},
{
anchors = (
{
name = bottom;
position = "{571, 0}";
},
{
name = top;
position = "{882, 1462}";
}
);
layerId = "4C802D5D-2BAD-4759-8C93-835BB7B64EA1";
paths = (
{
closed = 1;
nodes = (
"1141 645 LINE",
"1024 119 LINE",
"921 88 OFFCURVE",
"818 72 OFFCURVE",
"715 72 CURVE SMOOTH",
"432 72 OFFCURVE",
"274 242 OFFCURVE",
"274 547 CURVE SMOOTH",
"274 706 OFFCURVE",
"304 851 OFFCURVE",
"363 980 CURVE SMOOTH",
"482 1239 OFFCURVE",
"701 1389 OFFCURVE",
"946 1389 CURVE SMOOTH",
"1063 1389 OFFCURVE",
"1156 1372 OFFCURVE",
"1303 1311 CURVE",
"1341 1405 LINE",
"1216 1458 OFFCURVE",
"1105 1483 OFFCURVE",
"954 1483 CURVE SMOOTH",
"809 1483 OFFCURVE",
"678 1444 OFFCURVE",
"559 1366 CURVE SMOOTH",
"321 1210 OFFCURVE",
"170 900 OFFCURVE",
"170 547 CURVE SMOOTH",
"170 180 OFFCURVE",
"364 -20 OFFCURVE",
"707 -20 CURVE SMOOTH",
"836 -20 OFFCURVE",
"971 4 OFFCURVE",
"1112 53 CURVE",
"1262 735 LINE",
"856 735 LINE",
"838 645 LINE"
);
}
);
width = 1374;
},
{
anchors = (
{
name = bottom;
position = "{588, 0}";
},
{
name = top;
position = "{899, 1462}";
}
);
layerId = "80F7B5CA-46F0-48DD-AF7A-0C2E2531FBA7";
paths = (
{
closed = 1;
nodes = (
"965 563 LINE",
"899 264 LINE",
"836 248 OFFCURVE",
"780 240 OFFCURVE",
"729 240 CURVE SMOOTH",
"529 240 OFFCURVE",
"434 344 OFFCURVE",
"434 573 CURVE SMOOTH",
"434 691 OFFCURVE",
"457 801 OFFCURVE",
"503 904 CURVE SMOOTH",
"594 1108 OFFCURVE",
"761 1223 OFFCURVE",
"965 1223 CURVE SMOOTH",
"1081 1223 OFFCURVE",
"1175 1188 OFFCURVE",
"1274 1135 CURVE",
"1389 1386 LINE",
"1261 1452 OFFCURVE",
"1124 1485 OFFCURVE",
"979 1485 CURVE SMOOTH",
"810 1485 OFFCURVE",
"660 1446 OFFCURVE",
"531 1368 CURVE SMOOTH",
"272 1211 OFFCURVE",
"123 906 OFFCURVE",
"123 549 CURVE SMOOTH",
"123 182 OFFCURVE",
"319 -20 OFFCURVE",
"664 -20 CURVE SMOOTH",
"835 -20 OFFCURVE",
"976 -2 OFFCURVE",
"1155 59 CURVE",
"1317 821 LINE",
"754 821 LINE",
"698 563 LINE"
);
}
);
width = 1413;
},
{
anchors = (
{
name = bottom;
position = "{595, 0}";
},
{
name = top;
position = "{905, 1462}";
}
);
layerId = "0B5E954E-D3E5-4A16-AD17-8B1BCB8BDBD4";
paths = (
{
closed = 1;
nodes = (
"893 551 LINE",
"842 319 LINE",
"795 310 OFFCURVE",
"751 305 OFFCURVE",
"709 305 CURVE SMOOTH",
"570 305 OFFCURVE",
"500 393 OFFCURVE",
"500 569 CURVE SMOOTH",
"500 676 OFFCURVE",
"520 777 OFFCURVE",
"561 872 CURVE SMOOTH",
"641 1061 OFFCURVE",
"780 1159 OFFCURVE",
"956 1159 CURVE SMOOTH",
"1058 1159 OFFCURVE",
"1160 1129 OFFCURVE",
"1262 1069 CURVE",
"1409 1378 LINE",
"1288 1449 OFFCURVE",
"1138 1485 OFFCURVE",
"961 1485 CURVE SMOOTH",
"792 1485 OFFCURVE",
"643 1448 OFFCURVE",
"516 1373 CURVE SMOOTH",
"260 1223 OFFCURVE",
"104 919 OFFCURVE",
"104 563 CURVE SMOOTH",
"104 191 OFFCURVE",
"305 -20 OFFCURVE",
"653 -20 CURVE SMOOTH",
"834 -20 OFFCURVE",
"1007 7 OFFCURVE",
"1174 61 CURVE",
"1341 856 LINE",
"731 856 LINE",
"664 551 LINE"
);
}
);
width = 1430;
},
{
anchors = (
{
name = bottom;
position = "{582, 0}";
},
{
name = top;
position = "{893, 1462}";
}
);
layerId = "2317BC77-1FCA-42D3-9CA3-F7C1C5BFA6BA";
paths = (
{
closed = 1;
nodes = (
"1020 588 LINE",
"940 217 LINE",
"869 195 OFFCURVE",
"798 184 OFFCURVE",
"725 184 CURVE SMOOTH",
"506 184 OFFCURVE",
"383 311 OFFCURVE",
"383 555 CURVE SMOOTH",
"383 692 OFFCURVE",
"408 816 OFFCURVE",
"458 928 CURVE SMOOTH",
"557 1151 OFFCURVE",
"737 1276 OFFCURVE",
"948 1276 CURVE SMOOTH",
"1055 1276 OFFCURVE",
"1166 1247 OFFCURVE",
"1282 1190 CURVE",
"1372 1393 LINE",
"1235 1458 OFFCURVE",
"1102 1483 OFFCURVE",
"954 1483 CURVE SMOOTH",
"795 1483 OFFCURVE",
"653 1443 OFFCURVE",
"528 1362 CURVE SMOOTH",
"278 1201 OFFCURVE",
"135 891 OFFCURVE",
"135 539 CURVE SMOOTH",
"135 183 OFFCURVE",
"336 -20 OFFCURVE",
"684 -20 CURVE SMOOTH",
"860 -20 OFFCURVE",
"992 4 OFFCURVE",
"1141 57 CURVE",
"1298 793 LINE",
"786 793 LINE",
"743 588 LINE"
);
}
);
width = 1399;
}
);
note = G;
unicode = 0047;
},
{
glyphname = Gbreve;
layers = (
{
background = {
paths = (
{
closed = 1;
nodes = (
"1077 614 LINE",
"981 170 LINE",
"910 144 OFFCURVE",
"824 131 OFFCURVE",
"721 131 CURVE SMOOTH",
"476 131 OFFCURVE",
"332 286 OFFCURVE",
"332 539 CURVE SMOOTH",
"332 689 OFFCURVE",
"358 825 OFFCURVE",
"409 946 CURVE SMOOTH",
"512 1189 OFFCURVE",
"707 1331 OFFCURVE",
"932 1331 CURVE SMOOTH",
"1073 1331 OFFCURVE",
"1189 1292 OFFCURVE",
"1292 1247 CURVE",
"1358 1399 LINE",
"1219 1458 OFFCURVE",
"1088 1483 OFFCURVE",
"932 1483 CURVE SMOOTH",
"786 1483 OFFCURVE",
"653 1442 OFFCURVE",
"533 1361 CURVE SMOOTH",
"293 1197 OFFCURVE",
"150 887 OFFCURVE",
"150 528 CURVE SMOOTH",
"150 183 OFFCURVE",
"355 -20 OFFCURVE",
"707 -20 CURVE SMOOTH",
"842 -20 OFFCURVE",
"982 5 OFFCURVE",
"1126 55 CURVE",
"1280 766 LINE",
"821 766 LINE",
"788 614 LINE"
);
},
{
closed = 1;
nodes = (
"1107 1764 OFFCURVE",
"1040 1722 OFFCURVE",
"927 1722 CURVE SMOOTH",
"804 1722 OFFCURVE",
"761 1768 OFFCURVE",
"761 1847 CURVE",
"663 1847 LINE",
"661 1825 LINE",
"661 1804 LINE SMOOTH",
"661 1663 OFFCURVE",
"758 1579 OFFCURVE",
"909 1579 CURVE SMOOTH",
"1085 1579 OFFCURVE",
"1192 1663 OFFCURVE",
"1237 1847 CURVE",
"1130 1847 LINE"
);
}
);
};
components = (
{
alignment = -1;
name = G;
},
{
alignment = -1;
name = breve;
transform = "{1, 0, 0, 1, 186, 338}";
}
);
layerId = "6AA17817-FAD2-45D4-8E70-7A3A6A841083";
width = 1386;
},
{
background = {
paths = (
{
closed = 1;
nodes = (
"1141 645 LINE",
"1024 119 LINE",
"921 88 OFFCURVE",
"818 72 OFFCURVE",
"715 72 CURVE SMOOTH",
"432 72 OFFCURVE",
"274 242 OFFCURVE",
"274 547 CURVE SMOOTH",
"274 706 OFFCURVE",
"304 851 OFFCURVE",
"363 980 CURVE SMOOTH",
"482 1239 OFFCURVE",
"701 1389 OFFCURVE",
"946 1389 CURVE SMOOTH",
"1063 1389 OFFCURVE",
"1156 1372 OFFCURVE",
"1303 1311 CURVE",
"1341 1405 LINE",
"1216 1458 OFFCURVE",
"1105 1483 OFFCURVE",
"954 1483 CURVE SMOOTH",
"809 1483 OFFCURVE",
"678 1444 OFFCURVE",
"559 1366 CURVE SMOOTH",
"321 1210 OFFCURVE",
"170 900 OFFCURVE",
"170 547 CURVE SMOOTH",
"170 180 OFFCURVE",
"364 -20 OFFCURVE",
"707 -20 CURVE SMOOTH",
"836 -20 OFFCURVE",
"971 4 OFFCURVE",
"1112 53 CURVE",
"1262 735 LINE",
"856 735 LINE",
"838 645 LINE"
);
},
{
closed = 1;
nodes = (
"1112 1716 OFFCURVE",
"1045 1681 OFFCURVE",
"932 1681 CURVE SMOOTH",
"817 1681 OFFCURVE",
"774 1728 OFFCURVE",
"774 1819 CURVE",
"705 1819 LINE",
"703 1799 LINE",
"703 1778 LINE SMOOTH",
"703 1655 OFFCURVE",
"784 1585 OFFCURVE",
"924 1585 CURVE SMOOTH",
"1084 1585 OFFCURVE",
"1178 1659 OFFCURVE",
"1217 1819 CURVE",
"1145 1819 LINE"
);
}
);
};
components = (
{
alignment = -1;
name = G;
},
{
alignment = -1;
name = breve;
transform = "{1, 0, 0, 1, 209, 338}";
}
);
layerId = "4C802D5D-2BAD-4759-8C93-835BB7B64EA1";
width = 1374;
},
{
background = {
paths = (
{
closed = 1;
nodes = (
"965 563 LINE",
"899 264 LINE",
"836 248 OFFCURVE",
"780 240 OFFCURVE",
"729 240 CURVE SMOOTH",
"529 240 OFFCURVE",
"434 344 OFFCURVE",
"434 573 CURVE SMOOTH",
"434 691 OFFCURVE",
"457 801 OFFCURVE",
"503 904 CURVE SMOOTH",
"594 1108 OFFCURVE",
"761 1223 OFFCURVE",
"965 1223 CURVE SMOOTH",
"1081 1223 OFFCURVE",
"1175 1188 OFFCURVE",
"1274 1135 CURVE",
"1389 1386 LINE",
"1261 1452 OFFCURVE",
"1124 1485 OFFCURVE",
"979 1485 CURVE SMOOTH",
"810 1485 OFFCURVE",
"660 1446 OFFCURVE",
"531 1368 CURVE SMOOTH",
"272 1211 OFFCURVE",
"123 906 OFFCURVE",
"123 549 CURVE SMOOTH",
"123 182 OFFCURVE",
"319 -20 OFFCURVE",
"664 -20 CURVE SMOOTH",
"835 -20 OFFCURVE",
"976 -2 OFFCURVE",
"1155 59 CURVE",
"1317 821 LINE",
"754 821 LINE",
"698 563 LINE"
);
},
{
closed = 1;
nodes = (
"1091 1822 OFFCURVE",
"1024 1792 OFFCURVE",
"920 1792 CURVE SMOOTH",
"812 1792 OFFCURVE",
"766 1830 OFFCURVE",
"766 1917 CURVE",
"592 1917 LINE",
"588 1898 OFFCURVE",
"586 1876 OFFCURVE",
"586 1851 CURVE SMOOTH",
"586 1683 OFFCURVE",
"706 1579 OFFCURVE",
"910 1579 CURVE SMOOTH",
"1135 1579 OFFCURVE",
"1266 1692 OFFCURVE",
"1303 1917 CURVE",
"1114 1917 LINE"
);
}
);
};
components = (
{
alignment = -1;
name = G;
},
{
alignment = -1;
name = breve;
transform = "{1, 0, 0, 1, 156, 338}";
}
);
layerId = "80F7B5CA-46F0-48DD-AF7A-0C2E2531FBA7";
width = 1413;
},
{
background = {
paths = (
{
closed = 1;
nodes = (
"893 551 LINE",
"842 319 LINE",
"795 310 OFFCURVE",
"751 305 OFFCURVE",
"709 305 CURVE SMOOTH",
"570 305 OFFCURVE",
"500 393 OFFCURVE",
"500 569 CURVE SMOOTH",
"500 676 OFFCURVE",
"520 777 OFFCURVE",
"561 872 CURVE SMOOTH",
"641 1061 OFFCURVE",
"780 1159 OFFCURVE",
"956 1159 CURVE SMOOTH",
"1058 1159 OFFCURVE",
"1160 1129 OFFCURVE",
"1262 1069 CURVE",
"1409 1378 LINE",
"1288 1449 OFFCURVE",
"1138 1485 OFFCURVE",
"961 1485 CURVE SMOOTH",
"792 1485 OFFCURVE",
"643 1448 OFFCURVE",
"516 1373 CURVE SMOOTH",
"260 1223 OFFCURVE",
"104 919 OFFCURVE",
"104 563 CURVE SMOOTH",
"104 191 OFFCURVE",
"305 -20 OFFCURVE",
"653 -20 CURVE SMOOTH",
"834 -20 OFFCURVE",
"1007 7 OFFCURVE",
"1174 61 CURVE",
"1341 856 LINE",
"731 856 LINE",
"664 551 LINE"
);
},
{
closed = 1;
nodes = (
"1096 1865 OFFCURVE",
"1036 1821 OFFCURVE",
"923 1821 CURVE SMOOTH",
"824 1821 OFFCURVE",
"760 1863 OFFCURVE",
"760 1950 CURVE",
"543 1950 LINE",
"537 1938 OFFCURVE",
"534 1919 OFFCURVE",
"534 1894 CURVE SMOOTH",
"534 1697 OFFCURVE",
"668 1579 OFFCURVE",
"891 1579 CURVE SMOOTH",
"1156 1579 OFFCURVE",
"1304 1699 OFFCURVE",
"1345 1950 CURVE",
"1124 1950 LINE"
);
}
);
};
components = (
{
alignment = -1;
name = G;
},
{
alignment = -1;
name = breve;
transform = "{1, 0, 0, 1, 135, 338}";
}
);
layerId = "0B5E954E-D3E5-4A16-AD17-8B1BCB8BDBD4";
width = 1430;
},
{
components = (
{
name = G;
},
{
name = breve;
transform = "{1, 0, 0, 1, 170, 338}";
}
);
layerId = "2317BC77-1FCA-42D3-9CA3-F7C1C5BFA6BA";
width = 1399;
}
);
note = Gbreve;
unicode = 011E;
},
{
glyphname = Gcircumflex;
layers = (
{
background = {
paths = (
{
closed = 1;
nodes = (
"1077 614 LINE",
"981 170 LINE",
"910 144 OFFCURVE",
"824 131 OFFCURVE",
"721 131 CURVE SMOOTH",
"476 131 OFFCURVE",
"332 286 OFFCURVE",
"332 539 CURVE SMOOTH",
"332 689 OFFCURVE",
"358 825 OFFCURVE",
"409 946 CURVE SMOOTH",
"512 1189 OFFCURVE",
"707 1331 OFFCURVE",
"932 1331 CURVE SMOOTH",
"1073 1331 OFFCURVE",
"1189 1292 OFFCURVE",
"1292 1247 CURVE",
"1358 1399 LINE",
"1219 1458 OFFCURVE",
"1088 1483 OFFCURVE",
"932 1483 CURVE SMOOTH",
"786 1483 OFFCURVE",
"653 1442 OFFCURVE",
"533 1361 CURVE SMOOTH",
"293 1197 OFFCURVE",
"150 887 OFFCURVE",
"150 528 CURVE SMOOTH",
"150 183 OFFCURVE",
"355 -20 OFFCURVE",
"707 -20 CURVE SMOOTH",
"842 -20 OFFCURVE",
"982 5 OFFCURVE",
"1126 55 CURVE",
"1280 766 LINE",
"821 766 LINE",
"788 614 LINE"
);
},
{
closed = 1;
nodes = (
"1177 1672 LINE SMOOTH",
"1116 1763 OFFCURVE",
"1074 1841 OFFCURVE",
"1049 1907 CURVE",
"891 1907 LINE",
"876 1881 OFFCURVE",
"848 1847 OFFCURVE",
"809 1804 CURVE SMOOTH",
"769 1761 OFFCURVE",
"701 1695 OFFCURVE",
"604 1606 CURVE",
"604 1579 LINE",
"713 1579 LINE",
"785 1626 OFFCURVE",
"866 1689 OFFCURVE",
"955 1768 CURVE",
"1024 1674 OFFCURVE",
"1078 1611 OFFCURVE",
"1116 1579 CURVE",
"1219 1579 LINE",
"1219 1606 LINE"
);
}
);
};
components = (
{
alignment = -1;
name = G;
},
{
alignment = -1;
name = circumflex;
transform = "{1, 0, 0, 1, 205, 338}";
}
);
layerId = "6AA17817-FAD2-45D4-8E70-7A3A6A841083";
width = 1386;
},
{
background = {
paths = (
{
closed = 1;
nodes = (
"1141 645 LINE",
"1024 119 LINE",
"921 88 OFFCURVE",
"818 72 OFFCURVE",
"715 72 CURVE SMOOTH",
"432 72 OFFCURVE",
"274 242 OFFCURVE",
"274 547 CURVE SMOOTH",
"274 706 OFFCURVE",
"304 851 OFFCURVE",
"363 980 CURVE SMOOTH",
"482 1239 OFFCURVE",
"701 1389 OFFCURVE",
"946 1389 CURVE SMOOTH",
"1063 1389 OFFCURVE",
"1156 1372 OFFCURVE",
"1303 1311 CURVE",
"1341 1405 LINE",
"1216 1458 OFFCURVE",
"1105 1483 OFFCURVE",
"954 1483 CURVE SMOOTH",
"809 1483 OFFCURVE",
"678 1444 OFFCURVE",
"559 1366 CURVE SMOOTH",
"321 1210 OFFCURVE",
"170 900 OFFCURVE",
"170 547 CURVE SMOOTH",
"170 180 OFFCURVE",
"364 -20 OFFCURVE",
"707 -20 CURVE SMOOTH",
"836 -20 OFFCURVE",
"971 4 OFFCURVE",
"1112 53 CURVE",
"1262 735 LINE",
"856 735 LINE",
"838 645 LINE"
);
},
{
closed = 1;
nodes = (
"1120 1685 OFFCURVE",
"1043 1822 OFFCURVE",
"1012 1907 CURVE",
"948 1907 LINE",
"897 1830 OFFCURVE",
"754 1683 OFFCURVE",
"663 1608 CURVE",
"663 1579 LINE",
"717 1579 LINE",
"790 1626 OFFCURVE",
"894 1710 OFFCURVE",
"967 1786 CURVE",
"1028 1688 OFFCURVE",
"1081 1619 OFFCURVE",
"1128 1579 CURVE",
"1177 1579 LINE",
"1177 1608 LINE"
);
}
);
};
components = (
{
alignment = -1;
name = G;
},
{
alignment = -1;
name = circumflex;
transform = "{1, 0, 0, 1, 219, 338}";
}
);
layerId = "4C802D5D-2BAD-4759-8C93-835BB7B64EA1";
width = 1374;
},
{
background = {
paths = (
{
closed = 1;
nodes = (
"965 563 LINE",
"899 264 LINE",
"836 248 OFFCURVE",
"780 240 OFFCURVE",
"729 240 CURVE SMOOTH",
"529 240 OFFCURVE",
"434 344 OFFCURVE",
"434 573 CURVE SMOOTH",
"434 691 OFFCURVE",
"457 801 OFFCURVE",
"503 904 CURVE SMOOTH",
"594 1108 OFFCURVE",
"761 1223 OFFCURVE",
"965 1223 CURVE SMOOTH",
"1081 1223 OFFCURVE",
"1175 1188 OFFCURVE",
"1274 1135 CURVE",
"1389 1386 LINE",
"1261 1452 OFFCURVE",
"1124 1485 OFFCURVE",
"979 1485 CURVE SMOOTH",
"810 1485 OFFCURVE",
"660 1446 OFFCURVE",
"531 1368 CURVE SMOOTH",
"272 1211 OFFCURVE",
"123 906 OFFCURVE",
"123 549 CURVE SMOOTH",
"123 182 OFFCURVE",
"319 -20 OFFCURVE",
"664 -20 CURVE SMOOTH",
"835 -20 OFFCURVE",
"976 -2 OFFCURVE",
"1155 59 CURVE",
"1317 821 LINE",
"754 821 LINE",
"698 563 LINE"
);
},
{
closed = 1;
nodes = (
"1241 1700 OFFCURVE",
"1161 1835 OFFCURVE",
"1132 1907 CURVE",
"794 1907 LINE",
"725 1819 OFFCURVE",
"583 1680 OFFCURVE",
"499 1604 CURVE",
"499 1579 LINE",
"716 1579 LINE",
"801 1632 OFFCURVE",
"878 1688 OFFCURVE",
"948 1747 CURVE",
"1014 1670 OFFCURVE",
"1068 1614 OFFCURVE",
"1110 1579 CURVE",
"1308 1579 LINE",
"1308 1604 LINE"
);
}
);
};
components = (
{
alignment = -1;
name = G;
},
{
alignment = -1;
name = circumflex;
transform = "{1, 0, 0, 1, 188, 338}";
}
);
layerId = "80F7B5CA-46F0-48DD-AF7A-0C2E2531FBA7";
width = 1413;
},
{
background = {
paths = (
{
closed = 1;
nodes = (
"893 551 LINE",
"842 319 LINE",
"795 310 OFFCURVE",
"751 305 OFFCURVE",
"709 305 CURVE SMOOTH",
"570 305 OFFCURVE",
"500 393 OFFCURVE",
"500 569 CURVE SMOOTH",
"500 676 OFFCURVE",
"520 777 OFFCURVE",
"561 872 CURVE SMOOTH",
"641 1061 OFFCURVE",
"780 1159 OFFCURVE",
"956 1159 CURVE SMOOTH",
"1058 1159 OFFCURVE",
"1160 1129 OFFCURVE",
"1262 1069 CURVE",
"1409 1378 LINE",
"1288 1449 OFFCURVE",
"1138 1485 OFFCURVE",
"961 1485 CURVE SMOOTH",
"792 1485 OFFCURVE",
"643 1448 OFFCURVE",
"516 1373 CURVE SMOOTH",
"260 1223 OFFCURVE",
"104 919 OFFCURVE",
"104 563 CURVE SMOOTH",
"104 191 OFFCURVE",
"305 -20 OFFCURVE",
"653 -20 CURVE SMOOTH",
"834 -20 OFFCURVE",
"1007 7 OFFCURVE",
"1174 61 CURVE",
"1341 856 LINE",
"731 856 LINE",
"664 551 LINE"
);
},
{
closed = 1;
nodes = (
"1346 1689 OFFCURVE",
"1268 1828 OFFCURVE",
"1233 1907 CURVE",
"786 1907 LINE",
"722 1838 OFFCURVE",
"582 1698 OFFCURVE",
"477 1602 CURVE",
"477 1579 LINE",
"751 1579 LINE",
"818 1622 OFFCURVE",
"898 1680 OFFCURVE",
"991 1753 CURVE",
"1064 1664 OFFCURVE",
"1116 1606 OFFCURVE",
"1147 1579 CURVE",
"1413 1579 LINE",
"1413 1602 LINE"
);
}
);
};
components = (
{
alignment = -1;
name = G;
},
{
alignment = -1;
name = circumflex;
transform = "{1, 0, 0, 1, 223, 338}";
}
);
layerId = "0B5E954E-D3E5-4A16-AD17-8B1BCB8BDBD4";
width = 1430;
},
{
components = (
{
name = G;
},
{
name = circumflex;
transform = "{1, 0, 0, 1, 197, 338}";
}
);
layerId = "2317BC77-1FCA-42D3-9CA3-F7C1C5BFA6BA";
width = 1399;
}
);
note = Gcircumflex;
unicode = 011C;
},
{
glyphname = Gcommaaccent;
layers = (
{
components = (
{
name = G;
},
{
name = commaaccentcomb;
transform = "{1, 0, 0, 1, 569, 0}";
}
);
layerId = "6AA17817-FAD2-45D4-8E70-7A3A6A841083";
width = 1386;
},
{
background = {
paths = (
{
closed = 1;
nodes = (
"1141 645 LINE",
"1024 119 LINE",
"921 88 OFFCURVE",
"818 72 OFFCURVE",
"715 72 CURVE SMOOTH",
"432 72 OFFCURVE",
"274 242 OFFCURVE",
"274 547 CURVE SMOOTH",
"274 706 OFFCURVE",
"304 851 OFFCURVE",
"363 980 CURVE SMOOTH",
"482 1239 OFFCURVE",
"701 1389 OFFCURVE",
"946 1389 CURVE SMOOTH",
"1063 1389 OFFCURVE",
"1156 1372 OFFCURVE",
"1303 1311 CURVE",
"1341 1405 LINE",
"1216 1458 OFFCURVE",
"1105 1483 OFFCURVE",
"954 1483 CURVE SMOOTH",
"809 1483 OFFCURVE",
"678 1444 OFFCURVE",
"559 1366 CURVE SMOOTH",
"321 1210 OFFCURVE",
"170 900 OFFCURVE",
"170 547 CURVE SMOOTH",
"170 180 OFFCURVE",
"364 -20 OFFCURVE",
"707 -20 CURVE SMOOTH",
"836 -20 OFFCURVE",
"971 4 OFFCURVE",
"1112 53 CURVE",
"1262 735 LINE",
"856 735 LINE",
"838 645 LINE"
);
},
{
closed = 1;
nodes = (
"508 -453 LINE",
"589 -377 OFFCURVE",
"705 -198 OFFCURVE",
"717 -145 CURVE",
"717 -125 LINE",
"621 -125 LINE",
"590 -206 OFFCURVE",
"506 -367 OFFCURVE",
"461 -426 CURVE",
"461 -453 LINE"
);
}
);
};
components = (
{
name = G;
},
{
alignment = -1;
name = commaaccentcomb;
transform = "{1, 0, 0, 1, 668, 0}";
}
);
layerId = "4C802D5D-2BAD-4759-8C93-835BB7B64EA1";
width = 1374;
},
{
components = (
{
name = G;
},
{
name = commaaccentcomb;
transform = "{1, 0, 0, 1, 532, 0}";
}
);
layerId = "80F7B5CA-46F0-48DD-AF7A-0C2E2531FBA7";
width = 1413;
},
{
components = (
{
name = G;
},
{
name = commaaccentcomb;
transform = "{1, 0, 0, 1, 509, 0}";
}
);
layerId = "0B5E954E-D3E5-4A16-AD17-8B1BCB8BDBD4";
width = 1430;
},
{
components = (
{
name = G;
},
{
name = commaaccentcomb;
transform = "{1, 0, 0, 1, 550, 0}";
}
);
layerId = "2317BC77-1FCA-42D3-9CA3-F7C1C5BFA6BA";
width = 1399;
}
);
note = Gcommaaccent;
unicode = 0122;
},
{
glyphname = Gdotaccent;
layers = (
{
background = {
paths = (
{
closed = 1;
nodes = (
"1077 614 LINE",
"981 170 LINE",
"910 144 OFFCURVE",
"824 131 OFFCURVE",
"721 131 CURVE SMOOTH",
"476 131 OFFCURVE",
"332 286 OFFCURVE",
"332 539 CURVE SMOOTH",
"332 689 OFFCURVE",
"358 825 OFFCURVE",
"409 946 CURVE SMOOTH",
"512 1189 OFFCURVE",
"707 1331 OFFCURVE",
"932 1331 CURVE SMOOTH",
"1073 1331 OFFCURVE",
"1189 1292 OFFCURVE",
"1292 1247 CURVE",
"1358 1399 LINE",
"1219 1458 OFFCURVE",
"1088 1483 OFFCURVE",
"932 1483 CURVE SMOOTH",
"786 1483 OFFCURVE",
"653 1442 OFFCURVE",
"533 1361 CURVE SMOOTH",
"293 1197 OFFCURVE",
"150 887 OFFCURVE",
"150 528 CURVE SMOOTH",
"150 183 OFFCURVE",
"355 -20 OFFCURVE",
"707 -20 CURVE SMOOTH",
"842 -20 OFFCURVE",
"982 5 OFFCURVE",
"1126 55 CURVE",
"1280 766 LINE",
"821 766 LINE",
"788 614 LINE"
);
},
{
closed = 1;
nodes = (
"836 1654 OFFCURVE",
"877 1620 OFFCURVE",
"928 1620 CURVE SMOOTH",
"985 1620 OFFCURVE",
"1038 1678 OFFCURVE",
"1038 1751 CURVE SMOOTH",
"1038 1811 OFFCURVE",
"1009 1841 OFFCURVE",
"950 1841 CURVE SMOOTH",
"883 1841 OFFCURVE",
"836 1785 OFFCURVE",
"836 1714 CURVE SMOOTH"
);
}
);
};
components = (
{
alignment = -1;
name = G;
},
{
alignment = -1;
name = dotaccent;
transform = "{1, 0, 0, 1, 512, 338}";
}
);
layerId = "6AA17817-FAD2-45D4-8E70-7A3A6A841083";
width = 1386;
},
{
background = {
paths = (
{
closed = 1;
nodes = (
"1141 645 LINE",
"1024 119 LINE",
"921 88 OFFCURVE",
"818 72 OFFCURVE",
"715 72 CURVE SMOOTH",
"432 72 OFFCURVE",
"274 242 OFFCURVE",
"274 547 CURVE SMOOTH",
"274 706 OFFCURVE",
"304 851 OFFCURVE",
"363 980 CURVE SMOOTH",
"482 1239 OFFCURVE",
"701 1389 OFFCURVE",
"946 1389 CURVE SMOOTH",
"1063 1389 OFFCURVE",
"1156 1372 OFFCURVE",
"1303 1311 CURVE",
"1341 1405 LINE",
"1216 1458 OFFCURVE",
"1105 1483 OFFCURVE",
"954 1483 CURVE SMOOTH",
"809 1483 OFFCURVE",
"678 1444 OFFCURVE",
"559 1366 CURVE SMOOTH",
"321 1210 OFFCURVE",
"170 900 OFFCURVE",
"170 547 CURVE SMOOTH",
"170 180 OFFCURVE",
"364 -20 OFFCURVE",
"707 -20 CURVE SMOOTH",
"836 -20 OFFCURVE",
"971 4 OFFCURVE",
"1112 53 CURVE",
"1262 735 LINE",
"856 735 LINE",
"838 645 LINE"
);
},
{
closed = 1;
nodes = (
"869 1655 OFFCURVE",
"889 1630 OFFCURVE",
"928 1630 CURVE SMOOTH",
"975 1630 OFFCURVE",
"1008 1676 OFFCURVE",
"1008 1753 CURVE SMOOTH",
"1008 1801 OFFCURVE",
"989 1825 OFFCURVE",
"951 1825 CURVE SMOOTH",
"899 1825 OFFCURVE",
"869 1779 OFFCURVE",
"869 1704 CURVE SMOOTH"
);
}
);
};
components = (
{
alignment = -1;
name = G;
},
{
alignment = -1;
name = dotaccent;
transform = "{1, 0, 0, 1, 543, 338}";
}
);
layerId = "4C802D5D-2BAD-4759-8C93-835BB7B64EA1";
width = 1374;
},
{
background = {
paths = (
{
closed = 1;
nodes = (
"965 563 LINE",
"899 264 LINE",
"836 248 OFFCURVE",
"780 240 OFFCURVE",
"729 240 CURVE SMOOTH",
"529 240 OFFCURVE",
"434 344 OFFCURVE",
"434 573 CURVE SMOOTH",
"434 691 OFFCURVE",
"457 801 OFFCURVE",
"503 904 CURVE SMOOTH",
"594 1108 OFFCURVE",
"761 1223 OFFCURVE",
"965 1223 CURVE SMOOTH",
"1081 1223 OFFCURVE",
"1175 1188 OFFCURVE",
"1274 1135 CURVE",
"1389 1386 LINE",
"1261 1452 OFFCURVE",
"1124 1485 OFFCURVE",
"979 1485 CURVE SMOOTH",
"810 1485 OFFCURVE",
"660 1446 OFFCURVE",
"531 1368 CURVE SMOOTH",
"272 1211 OFFCURVE",
"123 906 OFFCURVE",
"123 549 CURVE SMOOTH",
"123 182 OFFCURVE",
"319 -20 OFFCURVE",
"664 -20 CURVE SMOOTH",
"835 -20 OFFCURVE",
"976 -2 OFFCURVE",
"1155 59 CURVE",
"1317 821 LINE",
"754 821 LINE",
"698 563 LINE"
);
},
{
closed = 1;
nodes = (
"777 1636 OFFCURVE",
"827 1595 OFFCURVE",
"928 1595 CURVE SMOOTH",
"1051 1595 OFFCURVE",
"1108 1667 OFFCURVE",
"1108 1774 CURVE SMOOTH",
"1108 1851 OFFCURVE",
"1056 1894 OFFCURVE",
"959 1894 CURVE SMOOTH",
"843 1894 OFFCURVE",
"777 1834 OFFCURVE",
"777 1718 CURVE SMOOTH"
);
}
);
};
components = (
{
alignment = -1;
name = G;
},
{
alignment = -1;
name = dotaccent;
transform = "{1, 0, 0, 1, 455, 338}";
}
);
layerId = "80F7B5CA-46F0-48DD-AF7A-0C2E2531FBA7";
width = 1413;
},
{
background = {
paths = (
{
closed = 1;
nodes = (
"893 551 LINE",
"842 319 LINE",
"795 310 OFFCURVE",
"751 305 OFFCURVE",
"709 305 CURVE SMOOTH",
"570 305 OFFCURVE",
"500 393 OFFCURVE",
"500 569 CURVE SMOOTH",
"500 676 OFFCURVE",
"520 777 OFFCURVE",
"561 872 CURVE SMOOTH",
"641 1061 OFFCURVE",
"780 1159 OFFCURVE",
"956 1159 CURVE SMOOTH",
"1058 1159 OFFCURVE",
"1160 1129 OFFCURVE",
"1262 1069 CURVE",
"1409 1378 LINE",
"1288 1449 OFFCURVE",
"1138 1485 OFFCURVE",
"961 1485 CURVE SMOOTH",
"792 1485 OFFCURVE",
"643 1448 OFFCURVE",
"516 1373 CURVE SMOOTH",
"260 1223 OFFCURVE",
"104 919 OFFCURVE",
"104 563 CURVE SMOOTH",
"104 191 OFFCURVE",
"305 -20 OFFCURVE",
"653 -20 CURVE SMOOTH",
"834 -20 OFFCURVE",
"1007 7 OFFCURVE",
"1174 61 CURVE",
"1341 856 LINE",
"731 856 LINE",
"664 551 LINE"
);
},
{
closed = 1;
nodes = (
"737 1627 OFFCURVE",
"795 1579 OFFCURVE",
"928 1579 CURVE SMOOTH",
"1079 1579 OFFCURVE",
"1155 1649 OFFCURVE",
"1155 1788 CURVE SMOOTH",
"1155 1879 OFFCURVE",
"1092 1929 OFFCURVE",
"965 1929 CURVE SMOOTH",
"813 1929 OFFCURVE",
"737 1859 OFFCURVE",
"737 1720 CURVE SMOOTH"
);
}
);
};
components = (
{
alignment = -1;
name = G;
},
{
alignment = -1;
name = dotaccent;
transform = "{1, 0, 0, 1, 418, 338}";
}
);
layerId = "0B5E954E-D3E5-4A16-AD17-8B1BCB8BDBD4";
width = 1430;
},
{
components = (
{
name = G;
},
{
name = dotaccentcomb;
transform = "{1, 0, 0, 1, 641, 356}";
}
);
layerId = "2317BC77-1FCA-42D3-9CA3-F7C1C5BFA6BA";
width = 1399;
}
);
note = Gdotaccent;
unicode = 0120;
},
{
glyphname = H;
layers = (
{
anchors = (
{
name = bottom;
position = "{579, 0}";
},
{
name = center;
position = "{734, 731}";
},
{
name = top;
position = "{889, 1462}";
},
{
name = topleft;
position = "{214, 1462}";
}
);
layerId = "6AA17817-FAD2-45D4-8E70-7A3A6A841083";
paths = (
{
closed = 1;
nodes = (
"1227 1462 LINE",
"1094 840 LINE",
"434 840 LINE",
"565 1462 LINE",
"395 1462 LINE",
"86 0 LINE",
"256 0 LINE",
"401 688 LINE",
"1061 688 LINE",
"918 0 LINE",
"1085 0 LINE",
"1395 1462 LINE"
);
}
);
width = 1389;
},
{
anchors = (
{
name = bottom;
position = "{567, 0}";
},
{
name = center;
position = "{723, 731}";
},
{
name = top;
position = "{878, 1462}";
},
{
name = topleft;
position = "{215, 1462}";
}
);
layerId = "4C802D5D-2BAD-4759-8C93-835BB7B64EA1";
paths = (
{
closed = 1;
nodes = (
"1272 1462 LINE",
"1135 813 LINE",
"375 813 LINE",
"514 1462 LINE",
"412 1462 LINE",
"102 0 LINE",
"205 0 LINE",
"354 719 LINE",
"1114 719 LINE",
"963 0 LINE",
"1063 0 LINE",
"1372 1462 LINE"
);
}
);
width = 1366;
},
{
anchors = (
{
name = bottom;
position = "{598, 0}";
},
{
name = center;
position = "{754, 731}";
},
{
name = top;
position = "{909, 1462}";
},
{
name = topleft;
position = "{212, 1462}";
}
);
layerId = "80F7B5CA-46F0-48DD-AF7A-0C2E2531FBA7";
paths = (
{
closed = 1;
nodes = (
"1139 1462 LINE",
"1018 889 LINE",
"547 889 LINE",
"668 1462 LINE",
"362 1462 LINE",
"53 0 LINE",
"358 0 LINE",
"492 631 LINE",
"963 631 LINE",
"829 0 LINE",
"1135 0 LINE",
"1444 1462 LINE"
);
}
);
width = 1434;
},
{
anchors = (
{
name = bottom;
position = "{611, 0}";
},
{
name = center;
position = "{766, 731}";
},
{
name = top;
position = "{921, 1462}";
},
{
name = topleft;
position = "{210, 1462}";
}
);
layerId = "0B5E954E-D3E5-4A16-AD17-8B1BCB8BDBD4";
paths = (
{
closed = 1;
nodes = (
"1081 1462 LINE",
"969 920 LINE",
"621 920 LINE",
"733 1462 LINE",
"342 1462 LINE",
"33 0 LINE",
"424 0 LINE",
"551 596 LINE",
"897 596 LINE",
"772 0 LINE",
"1163 0 LINE",
"1473 1462 LINE"
);
}
);
width = 1462;
},
{
anchors = (
{
name = bottom;
position = "{588, 0}";
},
{
name = center;
position = "{744, 731}";
},
{
name = top;
position = "{899, 1462}";
},
{
name = topleft;
position = "{213, 1462}";
}
);
layerId = "2317BC77-1FCA-42D3-9CA3-F7C1C5BFA6BA";
paths = (
{
closed = 1;
nodes = (
"1182 1462 LINE",
"1055 864 LINE",
"489 864 LINE",
"616 1462 LINE",
"379 1462 LINE",
"70 0 LINE",
"307 0 LINE",
"446 659 LINE",
"1012 659 LINE",
"872 0 LINE",
"1110 0 LINE",
"1419 1462 LINE"
);
}
);
width = 1411;
}
);
note = H;
unicode = 0048;
},
{
glyphname = Hbar;
layers = (
{
layerId = "6AA17817-FAD2-45D4-8E70-7A3A6A841083";
paths = (
{
closed = 1;
nodes = (
"1227 1462 LINE",
"1171 1212 LINE",
"512 1212 LINE",
"565 1462 LINE",
"395 1462 LINE",
"342 1212 LINE",
"156 1212 LINE",
"125 1069 LINE",
"311 1069 LINE",
"86 0 LINE",
"256 0 LINE",
"401 688 LINE",
"1061 688 LINE",
"918 0 LINE",
"1090 0 LINE",
"1315 1069 LINE",
"1505 1069 LINE",
"1534 1212 LINE",
"1348 1212 LINE",
"1399 1462 LINE"
);
},
{
closed = 1;
nodes = (
"481 1069 LINE",
"1143 1069 LINE",
"1094 840 LINE",
"434 840 LINE"
);
}
);
width = 1389;
},
{
layerId = "4C802D5D-2BAD-4759-8C93-835BB7B64EA1";
paths = (
{
closed = 1;
nodes = (
"1272 1462 LINE",
"1212 1184 LINE",
"455 1184 LINE",
"514 1462 LINE",
"412 1462 LINE",
"352 1184 LINE",
"162 1184 LINE",
"141 1094 LINE",
"334 1094 LINE",
"102 0 LINE",
"205 0 LINE",
"354 719 LINE",
"1114 719 LINE",
"963 0 LINE",
"1063 0 LINE",
"1294 1094 LINE",
"1491 1094 LINE",
"1511 1184 LINE",
"1313 1184 LINE",
"1372 1462 LINE"
);
},
{
closed = 1;
nodes = (
"434 1094 LINE",
"1194 1094 LINE",
"1135 813 LINE",
"375 813 LINE"
);
}
);
width = 1366;
},
{
layerId = "80F7B5CA-46F0-48DD-AF7A-0C2E2531FBA7";
paths = (
{
closed = 1;
nodes = (
"1139 1462 LINE",
"1098 1268 LINE",
"627 1268 LINE",
"668 1462 LINE",
"362 1462 LINE",
"322 1268 LINE",
"143 1268 LINE",
"102 1069 LINE",
"279 1069 LINE",
"53 0 LINE",
"358 0 LINE",
"492 631 LINE",
"963 631 LINE",
"829 0 LINE",
"1135 0 LINE",
"1360 1069 LINE",
"1540 1069 LINE",
"1581 1268 LINE",
"1403 1268 LINE",
"1444 1462 LINE"
);
},
{
closed = 1;
nodes = (
"584 1069 LINE",
"1055 1069 LINE",
"1018 889 LINE",
"547 889 LINE"
);
}
);
width = 1434;
},
{
layerId = "0B5E954E-D3E5-4A16-AD17-8B1BCB8BDBD4";
paths = (
{
closed = 1;
nodes = (
"1081 1462 LINE",
"1049 1305 LINE",
"702 1305 LINE",
"733 1462 LINE",
"342 1462 LINE",
"307 1305 LINE",
"135 1305 LINE",
"88 1069 LINE",
"258 1069 LINE",
"33 0 LINE",
"424 0 LINE",
"551 594 LINE",
"897 594 LINE",
"772 0 LINE",
"1163 0 LINE",
"1389 1069 LINE",
"1563 1069 LINE",
"1612 1305 LINE",
"1440 1305 LINE",
"1473 1462 LINE"
);
},
{
closed = 1;
nodes = (
"649 1069 LINE",
"997 1069 LINE",
"969 920 LINE",
"621 920 LINE"
);
}
);
width = 1462;
},
{
layerId = "2317BC77-1FCA-42D3-9CA3-F7C1C5BFA6BA";
paths = (
{
closed = 1;
nodes = (
"1182 1462 LINE",
"1135 1239 LINE",
"569 1239 LINE",
"616 1462 LINE",
"379 1462 LINE",
"332 1239 LINE",
"150 1239 LINE",
"113 1069 LINE",
"295 1069 LINE",
"70 0 LINE",
"307 0 LINE",
"446 659 LINE",
"1012 659 LINE",
"872 0 LINE",
"1112 0 LINE",
"1337 1069 LINE",
"1522 1069 LINE",
"1556 1239 LINE",
"1374 1239 LINE",
"1421 1462 LINE"
);
},
{
closed = 1;
nodes = (
"532 1069 LINE",
"1098 1069 LINE",
"1055 864 LINE",
"489 864 LINE"
);
}
);
width = 1411;
}
);
note = Hbar;
unicode = 0126;
},
{
glyphname = Hcircumflex;
layers = (
{
background = {
paths = (
{
closed = 1;
nodes = (
"1227 1462 LINE",
"1094 840 LINE",
"434 840 LINE",
"565 1462 LINE",
"395 1462 LINE",
"86 0 LINE",
"256 0 LINE",
"401 688 LINE",
"1061 688 LINE",
"918 0 LINE",
"1085 0 LINE",
"1395 1462 LINE"
);
},
{
closed = 1;
nodes = (
"1158 1672 LINE SMOOTH",
"1097 1763 OFFCURVE",
"1055 1841 OFFCURVE",
"1030 1907 CURVE",
"872 1907 LINE",
"857 1881 OFFCURVE",
"829 1847 OFFCURVE",
"790 1804 CURVE SMOOTH",
"750 1761 OFFCURVE",
"682 1695 OFFCURVE",
"585 1606 CURVE",
"585 1579 LINE",
"694 1579 LINE",
"766 1626 OFFCURVE",
"847 1689 OFFCURVE",
"936 1768 CURVE",
"1005 1674 OFFCURVE",
"1059 1611 OFFCURVE",
"1097 1579 CURVE",
"1200 1579 LINE",
"1200 1606 LINE"
);
}
);
};
components = (
{
alignment = -1;
name = H;
},
{
alignment = -1;
name = circumflex;
transform = "{1, 0, 0, 1, 186, 338}";
}
);
layerId = "6AA17817-FAD2-45D4-8E70-7A3A6A841083";
width = 1389;
},
{
background = {
paths = (
{
closed = 1;
nodes = (
"1272 1462 LINE",
"1135 813 LINE",
"375 813 LINE",
"514 1462 LINE",
"412 1462 LINE",
"102 0 LINE",
"205 0 LINE",
"354 719 LINE",
"1114 719 LINE",
"963 0 LINE",
"1063 0 LINE",
"1372 1462 LINE"
);
},
{
closed = 1;
nodes = (
"1091 1685 OFFCURVE",
"1014 1822 OFFCURVE",
"983 1907 CURVE",
"919 1907 LINE",
"868 1830 OFFCURVE",
"725 1683 OFFCURVE",
"634 1608 CURVE",
"634 1579 LINE",
"688 1579 LINE",
"761 1626 OFFCURVE",
"865 1710 OFFCURVE",
"938 1786 CURVE",
"999 1688 OFFCURVE",
"1052 1619 OFFCURVE",
"1099 1579 CURVE",
"1148 1579 LINE",
"1148 1608 LINE"
);
}
);
};
components = (
{
alignment = -1;
name = H;
},
{
alignment = -1;
name = circumflex;
transform = "{1, 0, 0, 1, 190, 338}";
}
);
layerId = "4C802D5D-2BAD-4759-8C93-835BB7B64EA1";
width = 1366;
},
{
background = {
paths = (
{
closed = 1;
nodes = (
"1139 1462 LINE",
"1018 889 LINE",
"547 889 LINE",
"668 1462 LINE",
"362 1462 LINE",
"53 0 LINE",
"358 0 LINE",
"492 631 LINE",
"963 631 LINE",
"829 0 LINE",
"1135 0 LINE",
"1444 1462 LINE"
);
},
{
closed = 1;
nodes = (
"1237 1700 OFFCURVE",
"1157 1835 OFFCURVE",
"1128 1907 CURVE",
"790 1907 LINE",
"721 1819 OFFCURVE",
"579 1680 OFFCURVE",
"495 1604 CURVE",
"495 1579 LINE",
"712 1579 LINE",
"797 1632 OFFCURVE",
"874 1688 OFFCURVE",
"944 1747 CURVE",
"1010 1670 OFFCURVE",
"1064 1614 OFFCURVE",
"1106 1579 CURVE",
"1304 1579 LINE",
"1304 1604 LINE"
);
}
);
};
components = (
{
alignment = -1;
name = H;
},
{
alignment = -1;
name = circumflex;
transform = "{1, 0, 0, 1, 184, 338}";
}
);
layerId = "80F7B5CA-46F0-48DD-AF7A-0C2E2531FBA7";
width = 1434;
},
{
background = {
paths = (
{
closed = 1;
nodes = (
"1081 1462 LINE",
"969 920 LINE",
"621 920 LINE",
"733 1462 LINE",
"342 1462 LINE",
"33 0 LINE",
"424 0 LINE",
"551 596 LINE",
"897 596 LINE",
"772 0 LINE",
"1163 0 LINE",
"1473 1462 LINE"
);
},
{
closed = 1;
nodes = (
"1305 1689 OFFCURVE",
"1227 1828 OFFCURVE",
"1192 1907 CURVE",
"745 1907 LINE",
"681 1838 OFFCURVE",
"541 1698 OFFCURVE",
"436 1602 CURVE",
"436 1579 LINE",
"710 1579 LINE",
"777 1622 OFFCURVE",
"857 1680 OFFCURVE",
"950 1753 CURVE",
"1023 1664 OFFCURVE",
"1075 1606 OFFCURVE",
"1106 1579 CURVE",
"1372 1579 LINE",
"1372 1602 LINE"
);
}
);
};
components = (
{
alignment = -1;
name = H;
},
{
alignment = -1;
name = circumflex;
transform = "{1, 0, 0, 1, 182, 338}";
}
);
layerId = "0B5E954E-D3E5-4A16-AD17-8B1BCB8BDBD4";
width = 1462;
},
{
components = (
{
name = H;
},
{
name = circumflex;
transform = "{1, 0, 0, 1, 184, 338}";
}
);
layerId = "2317BC77-1FCA-42D3-9CA3-F7C1C5BFA6BA";
width = 1411;
}
);
note = Hcircumflex;
unicode = 0124;
},
{
glyphname = I;
layers = (
{
anchors = (
{
name = bottom;
position = "{164, 0}";
},
{
name = ogonek;
position = "{387, 10}";
},
{
name = top;
position = "{474, 1462}";
},
{
name = topleft;
position = "{214, 1462}";
}
);
layerId = "6AA17817-FAD2-45D4-8E70-7A3A6A841083";
paths = (
{
closed = 1;
nodes = (
"565 1462 LINE",
"397 1462 LINE",
"86 0 LINE",
"254 0 LINE"
);
}
);
width = 559;
},
{
anchors = (
{
name = bottom;
position = "{136, 0}";
},
{
name = ogonek;
position = "{338, 10}";
},
{
name = top;
position = "{447, 1462}";
},
{
name = topleft;
position = "{215, 1462}";
}
);
layerId = "4C802D5D-2BAD-4759-8C93-835BB7B64EA1";
paths = (
{
closed = 1;
nodes = (
"510 1462 LINE",
"412 1462 LINE",
"102 0 LINE",
"201 0 LINE"
);
}
);
width = 504;
},
{
anchors = (
{
name = bottom;
position = "{211, 0}";
},
{
name = ogonek;
position = "{474, 10}";
},
{
name = top;
position = "{522, 1462}";
},
{
name = topleft;
position = "{212, 1462}";
}
);
layerId = "80F7B5CA-46F0-48DD-AF7A-0C2E2531FBA7";
paths = (
{
closed = 1;
nodes = (
"670 1462 LINE",
"365 1462 LINE",
"53 0 LINE",
"358 0 LINE"
);
}
);
width = 659;
},
{
anchors = (
{
name = bottom;
position = "{244, 0}";
},
{
name = ogonek;
position = "{534, 10}";
},
{
name = top;
position = "{554, 1462}";
},
{
name = topleft;
position = "{210, 1462}";
}
);
layerId = "0B5E954E-D3E5-4A16-AD17-8B1BCB8BDBD4";
paths = (
{
closed = 1;
nodes = (
"737 1462 LINE",
"340 1462 LINE",
"31 0 LINE",
"428 0 LINE"
);
}
);
width = 727;
},
{
anchors = (
{
name = bottom;
position = "{186, 0}";
},
{
name = ogonek;
position = "{429, 10}";
},
{
name = top;
position = "{497, 1462}";
},
{
name = topleft;
position = "{213, 1462}";
}
);
layerId = "2317BC77-1FCA-42D3-9CA3-F7C1C5BFA6BA";
paths = (
{
closed = 1;
nodes = (
"616 1462 LINE",
"381 1462 LINE",
"70 0 LINE",
"305 0 LINE"
);
}
);
width = 608;
}
);
note = I;
unicode = 0049;
},
{
glyphname = IJ;
layers = (
{
background = {
paths = (
{
closed = 1;
nodes = (
"565 1462 LINE",
"397 1462 LINE",
"86 0 LINE",
"254 0 LINE"
);
},
{
closed = 1;
nodes = (
"622 -385 OFFCURVE",
"762 -259 OFFCURVE",
"815 -6 CURVE SMOOTH",
"1124 1462 LINE",
"954 1462 LINE",
"647 12 LINE SMOOTH",
"614 -148 OFFCURVE",
"524 -233 OFFCURVE",
"391 -233 CURVE SMOOTH",
"340 -233 OFFCURVE",
"292 -226 OFFCURVE",
"246 -213 CURVE",
"240 -360 LINE",
"272 -377 OFFCURVE",
"323 -385 OFFCURVE",
"393 -385 CURVE SMOOTH"
);
}
);
};
components = (
{
alignment = -1;
name = I;
},
{
alignment = -1;
name = J;
transform = "{1, 0, 0, 1, 559, 0}";
}
);
layerId = "6AA17817-FAD2-45D4-8E70-7A3A6A841083";
width = 1106;
},
{
layerId = "4C802D5D-2BAD-4759-8C93-835BB7B64EA1";
paths = (
{
closed = 1;
nodes = (
"510 1462 LINE",
"412 1462 LINE",
"102 0 LINE",
"201 0 LINE"
);
},
{
closed = 1;
nodes = (
"525 -360 OFFCURVE",
"643 -256 OFFCURVE",
"690 -29 CURVE SMOOTH",
"1004 1462 LINE",
"899 1462 LINE",
"590 -23 LINE SMOOTH",
"557 -184 OFFCURVE",
"470 -264 OFFCURVE",
"328 -264 CURVE SMOOTH",
"275 -264 OFFCURVE",
"229 -257 OFFCURVE",
"191 -244 CURVE",
"180 -336 LINE",
"201 -347 OFFCURVE",
"260 -360 OFFCURVE",
"324 -360 CURVE SMOOTH"
);
}
);
width = 997;
},
{
background = {
paths = (
{
closed = 1;
nodes = (
"670 1462 LINE",
"365 1462 LINE",
"53 0 LINE",
"358 0 LINE"
);
},
{
closed = 1;
nodes = (
"821 -430 OFFCURVE",
"977 -288 OFFCURVE",
"1046 39 CURVE SMOOTH",
"1349 1462 LINE",
"1044 1462 LINE",
"751 82 LINE SMOOTH",
"714 -93 OFFCURVE",
"633 -170 OFFCURVE",
"501 -170 CURVE SMOOTH",
"450 -170 OFFCURVE",
"396 -163 OFFCURVE",
"337 -150 CURVE",
"337 -403 LINE",
"399 -421 OFFCURVE",
"461 -430 OFFCURVE",
"524 -430 CURVE SMOOTH"
);
}
);
};
components = (
{
alignment = -1;
name = I;
},
{
alignment = -1;
name = J;
transform = "{1, 0, 0, 1, 659, 0}";
}
);
layerId = "80F7B5CA-46F0-48DD-AF7A-0C2E2531FBA7";
width = 1337;
},
{
background = {
paths = (
{
closed = 1;
nodes = (
"737 1462 LINE",
"340 1462 LINE",
"31 0 LINE",
"428 0 LINE"
);
},
{
closed = 1;
nodes = (
"732 -461 OFFCURVE",
"830 -444 OFFCURVE",
"905 -409 CURVE SMOOTH",
"1055 -340 OFFCURVE",
"1143 -199 OFFCURVE",
"1200 68 CURVE SMOOTH",
"1499 1462 LINE",
"1108 1462 LINE",
"819 117 LINE SMOOTH",
"780 -64 OFFCURVE",
"716 -137 OFFCURVE",
"573 -137 CURVE SMOOTH",
"523 -137 OFFCURVE",
"465 -129 OFFCURVE",
"399 -113 CURVE",
"399 -432 LINE",
"470 -451 OFFCURVE",
"541 -461 OFFCURVE",
"612 -461 CURVE SMOOTH"
);
}
);
};
components = (
{
alignment = -1;
name = I;
},
{
alignment = -1;
name = J;
transform = "{1, 0, 0, 1, 727, 0}";
}
);
layerId = "0B5E954E-D3E5-4A16-AD17-8B1BCB8BDBD4";
width = 1489;
},
{
components = (
{
name = I;
},
{
name = J;
transform = "{1, 0, 0, 1, 608, 0}";
}
);
layerId = "2317BC77-1FCA-42D3-9CA3-F7C1C5BFA6BA";
width = 1220;
}
);
note = IJ;
unicode = 0132;
},
{
glyphname = Iacute;
layers = (
{
background = {
paths = (
{
closed = 1;
nodes = (
"565 1462 LINE",
"397 1462 LINE",
"86 0 LINE",
"254 0 LINE"
);
},
{
closed = 1;
nodes = (
"517 1579 LINE",
"617 1651 OFFCURVE",
"783 1821 OFFCURVE",
"834 1886 CURVE",
"834 1907 LINE",
"644 1907 LINE",
"595 1830 OFFCURVE",
"487 1686 OFFCURVE",
"412 1606 CURVE",
"412 1579 LINE"
);
}
);
};
components = (
{
alignment = -1;
name = I;
},
{
alignment = -1;
name = acute;
transform = "{1, 0, 0, 1, -120, 338}";
}
);
layerId = "6AA17817-FAD2-45D4-8E70-7A3A6A841083";
width = 559;
},
{
background = {
paths = (
{
closed = 1;
nodes = (
"510 1462 LINE",
"412 1462 LINE",
"102 0 LINE",
"201 0 LINE"
);
},
{
closed = 1;
nodes = (
"486 1579 LINE",
"601 1651 OFFCURVE",
"768 1796 OFFCURVE",
"836 1884 CURVE",
"836 1907 LINE",
"699 1907 LINE",
"639 1808 OFFCURVE",
"507 1668 OFFCURVE",
"419 1600 CURVE",
"419 1579 LINE"
);
}
);
};
components = (
{
alignment = -1;
name = I;
},
{
alignment = -1;
name = acute;
transform = "{1, 0, 0, 1, -161, 338}";
}
);
layerId = "4C802D5D-2BAD-4759-8C93-835BB7B64EA1";
width = 504;
},
{
background = {
paths = (
{
closed = 1;
nodes = (
"670 1462 LINE",
"365 1462 LINE",
"53 0 LINE",
"358 0 LINE"
);
},
{
closed = 1;
nodes = (
"623 1579 LINE",
"738 1662 OFFCURVE",
"910 1815 OFFCURVE",
"971 1890 CURVE",
"971 1907 LINE",
"636 1907 LINE",
"541 1764 OFFCURVE",
"467 1663 OFFCURVE",
"414 1604 CURVE",
"414 1579 LINE"
);
}
);
};
components = (
{
alignment = -1;
name = I;
},
{
alignment = -1;
name = acute;
transform = "{1, 0, 0, 1, -69, 338}";
}
);
layerId = "80F7B5CA-46F0-48DD-AF7A-0C2E2531FBA7";
width = 659;
},
{
background = {
paths = (
{
closed = 1;
nodes = (
"737 1462 LINE",
"340 1462 LINE",
"31 0 LINE",
"428 0 LINE"
);
},
{
closed = 1;
nodes = (
"629 1579 LINE",
"761 1650 OFFCURVE",
"1006 1820 OFFCURVE",
"1066 1892 CURVE",
"1066 1907 LINE",
"627 1907 LINE",
"521 1772 OFFCURVE",
"427 1670 OFFCURVE",
"345 1602 CURVE",
"345 1579 LINE"
);
}
);
};
components = (
{
alignment = -1;
name = I;
},
{
alignment = -1;
name = acute;
transform = "{1, 0, 0, 1, -106, 338}";
}
);
layerId = "0B5E954E-D3E5-4A16-AD17-8B1BCB8BDBD4";
width = 727;
},
{
components = (
{
name = I;
},
{
name = acute;
transform = "{1, 0, 0, 1, -93, 338}";
}
);
layerId = "2317BC77-1FCA-42D3-9CA3-F7C1C5BFA6BA";
width = 608;
}
);
note = Iacute;
unicode = 00CD;
},
{
glyphname = Ibreve;
layers = (
{
background = {
paths = (
{
closed = 1;
nodes = (
"565 1462 LINE",
"397 1462 LINE",
"86 0 LINE",
"254 0 LINE"
);
},
{
closed = 1;
nodes = (
"703 1764 OFFCURVE",
"636 1722 OFFCURVE",
"523 1722 CURVE SMOOTH",
"400 1722 OFFCURVE",
"357 1768 OFFCURVE",
"357 1847 CURVE",
"259 1847 LINE",
"257 1825 LINE",
"257 1804 LINE SMOOTH",
"257 1663 OFFCURVE",
"354 1579 OFFCURVE",
"505 1579 CURVE SMOOTH",
"681 1579 OFFCURVE",
"788 1663 OFFCURVE",
"833 1847 CURVE",
"726 1847 LINE"
);
}
);
};
components = (
{
alignment = -1;
name = I;
},
{
alignment = -1;
name = breve;
transform = "{1, 0, 0, 1, -218, 338}";
}
);
layerId = "6AA17817-FAD2-45D4-8E70-7A3A6A841083";
width = 559;
},
{
background = {
paths = (
{
closed = 1;
nodes = (
"510 1462 LINE",
"412 1462 LINE",
"102 0 LINE",
"201 0 LINE"
);
},
{
closed = 1;
nodes = (
"664 1716 OFFCURVE",
"597 1681 OFFCURVE",
"484 1681 CURVE SMOOTH",
"369 1681 OFFCURVE",
"326 1728 OFFCURVE",
"326 1819 CURVE",
"257 1819 LINE",
"255 1799 LINE",
"255 1778 LINE SMOOTH",
"255 1655 OFFCURVE",
"336 1585 OFFCURVE",
"476 1585 CURVE SMOOTH",
"636 1585 OFFCURVE",
"730 1659 OFFCURVE",
"769 1819 CURVE",
"697 1819 LINE"
);
}
);
};
components = (
{
alignment = -1;
name = I;
},
{
alignment = -1;
name = breve;
transform = "{1, 0, 0, 1, -239, 338}";
}
);
layerId = "4C802D5D-2BAD-4759-8C93-835BB7B64EA1";
width = 504;
},
{
background = {
paths = (
{
closed = 1;
nodes = (
"670 1462 LINE",
"365 1462 LINE",
"53 0 LINE",
"358 0 LINE"
);
},
{
closed = 1;
nodes = (
"731 1822 OFFCURVE",
"664 1792 OFFCURVE",
"560 1792 CURVE SMOOTH",
"452 1792 OFFCURVE",
"406 1830 OFFCURVE",
"406 1917 CURVE",
"232 1917 LINE",
"228 1898 OFFCURVE",
"226 1876 OFFCURVE",
"226 1851 CURVE SMOOTH",
"226 1683 OFFCURVE",
"346 1579 OFFCURVE",
"550 1579 CURVE SMOOTH",
"775 1579 OFFCURVE",
"906 1692 OFFCURVE",
"943 1917 CURVE",
"754 1917 LINE"
);
}
);
};
components = (
{
alignment = -1;
name = I;
},
{
alignment = -1;
name = breve;
transform = "{1, 0, 0, 1, -204, 338}";
}
);
layerId = "80F7B5CA-46F0-48DD-AF7A-0C2E2531FBA7";
width = 659;
},
{
background = {
paths = (
{
closed = 1;
nodes = (
"737 1462 LINE",
"340 1462 LINE",
"31 0 LINE",
"428 0 LINE"
);
},
{
closed = 1;
nodes = (
"745 1865 OFFCURVE",
"685 1821 OFFCURVE",
"572 1821 CURVE SMOOTH",
"473 1821 OFFCURVE",
"409 1863 OFFCURVE",
"409 1950 CURVE",
"192 1950 LINE",
"186 1938 OFFCURVE",
"183 1919 OFFCURVE",
"183 1894 CURVE SMOOTH",
"183 1697 OFFCURVE",
"317 1579 OFFCURVE",
"540 1579 CURVE SMOOTH",
"805 1579 OFFCURVE",
"953 1699 OFFCURVE",
"994 1950 CURVE",
"773 1950 LINE"
);
}
);
};
components = (
{
alignment = -1;
name = I;
},
{
alignment = -1;
name = breve;
transform = "{1, 0, 0, 1, -216, 338}";
}
);
layerId = "0B5E954E-D3E5-4A16-AD17-8B1BCB8BDBD4";
width = 727;
},
{
components = (
{
name = I;
},
{
name = breve;
transform = "{1, 0, 0, 1, -210, 338}";
}
);
layerId = "2317BC77-1FCA-42D3-9CA3-F7C1C5BFA6BA";
width = 608;
}
);
note = Ibreve;
unicode = 012C;
},
{
glyphname = Icircumflex;
layers = (
{
background = {
paths = (
{
closed = 1;
nodes = (
"565 1462 LINE",
"397 1462 LINE",
"86 0 LINE",
"254 0 LINE"
);
},
{
closed = 1;
nodes = (
"766 1672 LINE SMOOTH",
"705 1763 OFFCURVE",
"663 1841 OFFCURVE",
"638 1907 CURVE",
"480 1907 LINE",
"465 1881 OFFCURVE",
"437 1847 OFFCURVE",
"398 1804 CURVE SMOOTH",
"358 1761 OFFCURVE",
"290 1695 OFFCURVE",
"193 1606 CURVE",
"193 1579 LINE",
"302 1579 LINE",
"374 1626 OFFCURVE",
"455 1689 OFFCURVE",
"544 1768 CURVE",
"613 1674 OFFCURVE",
"667 1611 OFFCURVE",
"705 1579 CURVE",
"808 1579 LINE",
"808 1606 LINE"
);
}
);
};
components = (
{
alignment = -1;
name = I;
},
{
alignment = -1;
name = circumflex;
transform = "{1, 0, 0, 1, -206, 338}";
}
);
layerId = "6AA17817-FAD2-45D4-8E70-7A3A6A841083";
width = 559;
},
{
background = {
paths = (
{
closed = 1;
nodes = (
"510 1462 LINE",
"412 1462 LINE",
"102 0 LINE",
"201 0 LINE"
);
},
{
closed = 1;
nodes = (
"681 1685 OFFCURVE",
"604 1822 OFFCURVE",
"573 1907 CURVE",
"509 1907 LINE",
"458 1830 OFFCURVE",
"315 1683 OFFCURVE",
"224 1608 CURVE",
"224 1579 LINE",
"278 1579 LINE",
"351 1626 OFFCURVE",
"455 1710 OFFCURVE",
"528 1786 CURVE",
"589 1688 OFFCURVE",
"642 1619 OFFCURVE",
"689 1579 CURVE",
"738 1579 LINE",
"738 1608 LINE"
);
}
);
};
components = (
{
alignment = -1;
name = I;
},
{
alignment = -1;
name = circumflex;
transform = "{1, 0, 0, 1, -220, 338}";
}
);
layerId = "4C802D5D-2BAD-4759-8C93-835BB7B64EA1";
width = 504;
},
{
background = {
paths = (
{
closed = 1;
nodes = (
"670 1462 LINE",
"365 1462 LINE",
"53 0 LINE",
"358 0 LINE"
);
},
{
closed = 1;
nodes = (
"870 1700 OFFCURVE",
"790 1835 OFFCURVE",
"761 1907 CURVE",
"423 1907 LINE",
"354 1819 OFFCURVE",
"212 1680 OFFCURVE",
"128 1604 CURVE",
"128 1579 LINE",
"345 1579 LINE",
"430 1632 OFFCURVE",
"507 1688 OFFCURVE",
"577 1747 CURVE",
"643 1670 OFFCURVE",
"697 1614 OFFCURVE",
"739 1579 CURVE",
"937 1579 LINE",
"937 1604 LINE"
);
}
);
};
components = (
{
alignment = -1;
name = I;
},
{
alignment = -1;
name = circumflex;
transform = "{1, 0, 0, 1, -183, 338}";
}
);
layerId = "80F7B5CA-46F0-48DD-AF7A-0C2E2531FBA7";
width = 659;
},
{
background = {
paths = (
{
closed = 1;
nodes = (
"737 1462 LINE",
"340 1462 LINE",
"31 0 LINE",
"428 0 LINE"
);
},
{
closed = 1;
nodes = (
"948 1689 OFFCURVE",
"870 1828 OFFCURVE",
"835 1907 CURVE",
"388 1907 LINE",
"324 1838 OFFCURVE",
"184 1698 OFFCURVE",
"79 1602 CURVE",
"79 1579 LINE",
"353 1579 LINE",
"420 1622 OFFCURVE",
"500 1680 OFFCURVE",
"593 1753 CURVE",
"666 1664 OFFCURVE",
"718 1606 OFFCURVE",
"749 1579 CURVE",
"1015 1579 LINE",
"1015 1602 LINE"
);
}
);
};
components = (
{
alignment = -1;
name = I;
},
{
alignment = -1;
name = circumflex;
transform = "{1, 0, 0, 1, -175, 338}";
}
);
layerId = "0B5E954E-D3E5-4A16-AD17-8B1BCB8BDBD4";
width = 727;
},
{
components = (
{
name = I;
},
{
name = circumflex;
transform = "{1, 0, 0, 1, -194, 338}";
}
);
layerId = "2317BC77-1FCA-42D3-9CA3-F7C1C5BFA6BA";
width = 608;
}
);
note = Icircumflex;
unicode = 00CE;
},
{
glyphname = Idieresis;
layers = (
{
background = {
paths = (
{
closed = 1;
nodes = (
"565 1462 LINE",
"397 1462 LINE",
"86 0 LINE",
"254 0 LINE"
);
},
{
closed = 1;
nodes = (
"265 1663 OFFCURVE",
"300 1632 OFFCURVE",
"347 1632 CURVE SMOOTH",
"399 1632 OFFCURVE",
"445 1684 OFFCURVE",
"445 1749 CURVE SMOOTH",
"445 1802 OFFCURVE",
"419 1829 OFFCURVE",
"367 1829 CURVE SMOOTH",
"306 1829 OFFCURVE",
"265 1777 OFFCURVE",
"265 1716 CURVE SMOOTH"
);
},
{
closed = 1;
nodes = (
"629 1663 OFFCURVE",
"664 1632 OFFCURVE",
"711 1632 CURVE SMOOTH",
"763 1632 OFFCURVE",
"809 1684 OFFCURVE",
"809 1749 CURVE SMOOTH",
"809 1802 OFFCURVE",
"783 1829 OFFCURVE",
"732 1829 CURVE SMOOTH",
"669 1829 OFFCURVE",
"629 1777 OFFCURVE",
"629 1716 CURVE SMOOTH"
);
}
);
};
components = (
{
alignment = -1;
name = I;
},
{
alignment = -1;
name = dieresis;
transform = "{1, 0, 0, 1, -192, 338}";
}
);
layerId = "6AA17817-FAD2-45D4-8E70-7A3A6A841083";
width = 559;
},
{
background = {
paths = (
{
closed = 1;
nodes = (
"510 1462 LINE",
"412 1462 LINE",
"102 0 LINE",
"201 0 LINE"
);
},
{
closed = 1;
nodes = (
"604 1662 OFFCURVE",
"622 1641 OFFCURVE",
"659 1641 CURVE SMOOTH",
"704 1641 OFFCURVE",
"735 1683 OFFCURVE",
"735 1747 CURVE SMOOTH",
"735 1790 OFFCURVE",
"717 1811 OFFCURVE",
"681 1811 CURVE SMOOTH",
"633 1811 OFFCURVE",
"604 1769 OFFCURVE",
"604 1704 CURVE SMOOTH"
);
},
{
closed = 1;
nodes = (
"260 1662 OFFCURVE",
"278 1641 OFFCURVE",
"315 1641 CURVE SMOOTH",
"360 1641 OFFCURVE",
"391 1683 OFFCURVE",
"391 1747 CURVE SMOOTH",
"391 1790 OFFCURVE",
"373 1811 OFFCURVE",
"337 1811 CURVE SMOOTH",
"289 1811 OFFCURVE",
"260 1769 OFFCURVE",
"260 1704 CURVE SMOOTH"
);
}
);
};
components = (
{
alignment = -1;
name = I;
},
{
alignment = -1;
name = dieresis;
transform = "{1, 0, 0, 1, -232, 338}";
}
);
layerId = "4C802D5D-2BAD-4759-8C93-835BB7B64EA1";
width = 504;
},
{
background = {
paths = (
{
closed = 1;
nodes = (
"670 1462 LINE",
"365 1462 LINE",
"53 0 LINE",
"358 0 LINE"
);
},
{
closed = 1;
nodes = (
"222 1647 OFFCURVE",
"267 1610 OFFCURVE",
"357 1610 CURVE SMOOTH",
"466 1610 OFFCURVE",
"517 1673 OFFCURVE",
"517 1770 CURVE SMOOTH",
"517 1842 OFFCURVE",
"473 1878 OFFCURVE",
"384 1878 CURVE SMOOTH",
"281 1878 OFFCURVE",
"222 1824 OFFCURVE",
"222 1720 CURVE SMOOTH"
);
},
{
closed = 1;
nodes = (
"624 1647 OFFCURVE",
"669 1610 OFFCURVE",
"759 1610 CURVE SMOOTH",
"867 1610 OFFCURVE",
"919 1673 OFFCURVE",
"919 1770 CURVE SMOOTH",
"919 1839 OFFCURVE",
"873 1878 OFFCURVE",
"786 1878 CURVE SMOOTH",
"682 1878 OFFCURVE",
"624 1824 OFFCURVE",
"624 1720 CURVE SMOOTH"
);
}
);
};
components = (
{
alignment = -1;
name = I;
},
{
alignment = -1;
name = dieresis;
transform = "{1, 0, 0, 1, -175, 338}";
}
);
layerId = "80F7B5CA-46F0-48DD-AF7A-0C2E2531FBA7";
width = 659;
},
{
background = {
paths = (
{
closed = 1;
nodes = (
"737 1462 LINE",
"340 1462 LINE",
"31 0 LINE",
"428 0 LINE"
);
},
{
closed = 1;
nodes = (
"159 1635 OFFCURVE",
"212 1595 OFFCURVE",
"329 1595 CURVE SMOOTH",
"463 1595 OFFCURVE",
"530 1658 OFFCURVE",
"530 1784 CURVE SMOOTH",
"530 1867 OFFCURVE",
"473 1909 OFFCURVE",
"360 1909 CURVE SMOOTH",
"226 1909 OFFCURVE",
"159 1847 OFFCURVE",
"159 1722 CURVE SMOOTH"
);
},
{
closed = 1;
nodes = (
"646 1635 OFFCURVE",
"699 1595 OFFCURVE",
"816 1595 CURVE SMOOTH",
"949 1595 OFFCURVE",
"1015 1655 OFFCURVE",
"1015 1784 CURVE SMOOTH",
"1015 1867 OFFCURVE",
"959 1909 OFFCURVE",
"847 1909 CURVE SMOOTH",
"713 1909 OFFCURVE",
"646 1847 OFFCURVE",
"646 1722 CURVE SMOOTH"
);
}
);
};
components = (
{
alignment = -1;
name = I;
},
{
alignment = -1;
name = dieresis;
transform = "{1, 0, 0, 1, -177, 338}";
}
);
layerId = "0B5E954E-D3E5-4A16-AD17-8B1BCB8BDBD4";
width = 727;
},
{
components = (
{
name = I;
},
{
name = dieresis;
transform = "{1, 0, 0, 1, -183, 338}";
}
);
layerId = "2317BC77-1FCA-42D3-9CA3-F7C1C5BFA6BA";
width = 608;
}
);
note = Idieresis;
unicode = 00CF;
},
{
glyphname = Idotaccent;
layers = (
{
background = {
paths = (
{
closed = 1;
nodes = (
"565 1462 LINE",
"397 1462 LINE",
"86 0 LINE",
"254 0 LINE"
);
},
{
closed = 1;
nodes = (
"426 1654 OFFCURVE",
"467 1620 OFFCURVE",
"518 1620 CURVE SMOOTH",
"575 1620 OFFCURVE",
"628 1678 OFFCURVE",
"628 1751 CURVE SMOOTH",
"628 1811 OFFCURVE",
"599 1841 OFFCURVE",
"540 1841 CURVE SMOOTH",
"473 1841 OFFCURVE",
"426 1785 OFFCURVE",
"426 1714 CURVE SMOOTH"
);
}
);
};
components = (
{
alignment = -1;
name = I;
},
{
alignment = -1;
name = dotaccent;
transform = "{1, 0, 0, 1, 102, 338}";
}
);
layerId = "6AA17817-FAD2-45D4-8E70-7A3A6A841083";
width = 559;
},
{
background = {
paths = (
{
closed = 1;
nodes = (
"510 1462 LINE",
"412 1462 LINE",
"102 0 LINE",
"201 0 LINE"
);
},
{
closed = 1;
nodes = (
"439 1655 OFFCURVE",
"459 1630 OFFCURVE",
"498 1630 CURVE SMOOTH",
"545 1630 OFFCURVE",
"578 1676 OFFCURVE",
"578 1753 CURVE SMOOTH",
"578 1801 OFFCURVE",
"559 1825 OFFCURVE",
"521 1825 CURVE SMOOTH",
"469 1825 OFFCURVE",
"439 1779 OFFCURVE",
"439 1704 CURVE SMOOTH"
);
}
);
};
components = (
{
alignment = -1;
name = I;
},
{
alignment = -1;
name = dotaccent;
transform = "{1, 0, 0, 1, 113, 338}";
}
);
layerId = "4C802D5D-2BAD-4759-8C93-835BB7B64EA1";
width = 504;
},
{
background = {
paths = (
{
closed = 1;
nodes = (
"670 1462 LINE",
"365 1462 LINE",
"53 0 LINE",
"358 0 LINE"
);
},
{
closed = 1;
nodes = (
"410 1636 OFFCURVE",
"460 1595 OFFCURVE",
"561 1595 CURVE SMOOTH",
"684 1595 OFFCURVE",
"741 1667 OFFCURVE",
"741 1774 CURVE SMOOTH",
"741 1851 OFFCURVE",
"689 1894 OFFCURVE",
"592 1894 CURVE SMOOTH",
"476 1894 OFFCURVE",
"410 1834 OFFCURVE",
"410 1718 CURVE SMOOTH"
);
}
);
};
components = (
{
alignment = -1;
name = I;
},
{
alignment = -1;
name = dotaccent;
transform = "{1, 0, 0, 1, 88, 338}";
}
);
layerId = "80F7B5CA-46F0-48DD-AF7A-0C2E2531FBA7";
width = 659;
},
{
background = {
paths = (
{
closed = 1;
nodes = (
"737 1462 LINE",
"340 1462 LINE",
"31 0 LINE",
"428 0 LINE"
);
},
{
closed = 1;
nodes = (
"368 1627 OFFCURVE",
"426 1579 OFFCURVE",
"559 1579 CURVE SMOOTH",
"710 1579 OFFCURVE",
"786 1649 OFFCURVE",
"786 1788 CURVE SMOOTH",
"786 1879 OFFCURVE",
"723 1929 OFFCURVE",
"596 1929 CURVE SMOOTH",
"444 1929 OFFCURVE",
"368 1859 OFFCURVE",
"368 1720 CURVE SMOOTH"
);
}
);
};
components = (
{
alignment = -1;
name = I;
},
{
alignment = -1;
name = dotaccent;
transform = "{1, 0, 0, 1, 49, 338}";
}
);
layerId = "0B5E954E-D3E5-4A16-AD17-8B1BCB8BDBD4";
width = 727;
},
{
components = (
{
name = I;
},
{
name = dotaccent;
transform = "{1, 0, 0, 1, 94, 338}";
}
);
layerId = "2317BC77-1FCA-42D3-9CA3-F7C1C5BFA6BA";
width = 608;
}
);
note = Idotaccent;
unicode = 0130;
},
{
glyphname = Igrave;
layers = (
{
background = {
paths = (
{
closed = 1;
nodes = (
"565 1462 LINE",
"397 1462 LINE",
"86 0 LINE",
"254 0 LINE"
);
},
{
closed = 1;
nodes = (
"524 1715 OFFCURVE",
"475 1816 OFFCURVE",
"446 1907 CURVE",
"265 1907 LINE",
"265 1886 LINE",
"302 1806 OFFCURVE",
"408 1660 OFFCURVE",
"489 1579 CURVE",
"593 1579 LINE",
"593 1604 LINE"
);
}
);
};
components = (
{
alignment = -1;
name = I;
},
{
alignment = -1;
name = grave;
transform = "{1, 0, 0, 1, -310, 338}";
}
);
layerId = "6AA17817-FAD2-45D4-8E70-7A3A6A841083";
width = 559;
},
{
background = {
paths = (
{
closed = 1;
nodes = (
"510 1462 LINE",
"412 1462 LINE",
"102 0 LINE",
"201 0 LINE"
);
},
{
closed = 1;
nodes = (
"446 1720 OFFCURVE",
"392 1821 OFFCURVE",
"361 1907 CURVE",
"246 1907 LINE",
"246 1886 LINE",
"293 1793 OFFCURVE",
"392 1648 OFFCURVE",
"459 1579 CURVE",
"525 1579 LINE",
"525 1604 LINE"
);
}
);
};
components = (
{
alignment = -1;
name = I;
},
{
alignment = -1;
name = grave;
transform = "{1, 0, 0, 1, -241, 338}";
}
);
layerId = "4C802D5D-2BAD-4759-8C93-835BB7B64EA1";
width = 504;
},
{
background = {
paths = (
{
closed = 1;
nodes = (
"670 1462 LINE",
"365 1462 LINE",
"53 0 LINE",
"358 0 LINE"
);
},
{
closed = 1;
nodes = (
"614 1707 OFFCURVE",
"576 1808 OFFCURVE",
"552 1907 CURVE",
"241 1907 LINE",
"241 1886 LINE",
"289 1794 OFFCURVE",
"388 1671 OFFCURVE",
"483 1579 CURVE",
"667 1579 LINE",
"667 1604 LINE"
);
}
);
};
components = (
{
alignment = -1;
name = I;
},
{
alignment = -1;
name = grave;
transform = "{1, 0, 0, 1, -267, 338}";
}
);
layerId = "80F7B5CA-46F0-48DD-AF7A-0C2E2531FBA7";
width = 659;
},
{
background = {
paths = (
{
closed = 1;
nodes = (
"737 1462 LINE",
"340 1462 LINE",
"31 0 LINE",
"428 0 LINE"
);
},
{
closed = 1;
nodes = (
"706 1701 OFFCURVE",
"674 1802 OFFCURVE",
"655 1907 CURVE",
"259 1907 LINE",
"259 1886 LINE",
"302 1801 OFFCURVE",
"404 1679 OFFCURVE",
"513 1579 CURVE",
"749 1579 LINE",
"749 1604 LINE"
);
}
);
};
components = (
{
alignment = -1;
name = I;
},
{
alignment = -1;
name = grave;
transform = "{1, 0, 0, 1, -226, 338}";
}
);
layerId = "0B5E954E-D3E5-4A16-AD17-8B1BCB8BDBD4";
width = 727;
},
{
components = (
{
name = I;
},
{
name = grave;
transform = "{1, 0, 0, 1, -288, 338}";
}
);
layerId = "2317BC77-1FCA-42D3-9CA3-F7C1C5BFA6BA";
width = 608;
}
);
note = Igrave;
unicode = 00CC;
},
{
glyphname = Imacron;
layers = (
{
background = {
paths = (
{
closed = 1;
nodes = (
"565 1462 LINE",
"397 1462 LINE",
"86 0 LINE",
"254 0 LINE"
);
},
{
closed = 1;
nodes = (
"767 1579 LINE",
"798 1720 LINE",
"253 1720 LINE",
"223 1579 LINE"
);
}
);
};
components = (
{
alignment = -1;
name = I;
},
{
name = macroncomb;
transform = "{1, 0, 0, 1, 76, 338}";
}
);
layerId = "6AA17817-FAD2-45D4-8E70-7A3A6A841083";
width = 559;
},
{
background = {
paths = (
{
closed = 1;
nodes = (
"510 1462 LINE",
"412 1462 LINE",
"102 0 LINE",
"201 0 LINE"
);
},
{
closed = 1;
nodes = (
"722 1583 LINE",
"740 1671 LINE",
"232 1671 LINE",
"214 1583 LINE"
);
}
);
};
components = (
{
alignment = -1;
name = I;
},
{
name = macroncomb;
transform = "{1, 0, 0, 1, 63, 342}";
}
);
layerId = "4C802D5D-2BAD-4759-8C93-835BB7B64EA1";
width = 504;
},
{
background = {
paths = (
{
closed = 1;
nodes = (
"670 1462 LINE",
"365 1462 LINE",
"53 0 LINE",
"358 0 LINE"
);
},
{
closed = 1;
nodes = (
"849 1579 LINE",
"894 1790 LINE",
"275 1790 LINE",
"230 1579 LINE"
);
}
);
};
components = (
{
alignment = -1;
name = I;
},
{
name = macroncomb;
transform = "{1, 0, 0, 1, 85, 338}";
}
);
layerId = "80F7B5CA-46F0-48DD-AF7A-0C2E2531FBA7";
width = 659;
},
{
background = {
paths = (
{
closed = 1;
nodes = (
"737 1462 LINE",
"340 1462 LINE",
"31 0 LINE",
"428 0 LINE"
);
},
{
closed = 1;
nodes = (
"879 1579 LINE",
"928 1815 LINE",
"263 1815 LINE",
"212 1579 LINE"
);
}
);
};
components = (
{
alignment = -1;
name = I;
},
{
name = macroncomb;
transform = "{1, 0, 0, 1, 69, 338}";
}
);
layerId = "0B5E954E-D3E5-4A16-AD17-8B1BCB8BDBD4";
width = 727;
},
{
components = (
{
name = I;
},
{
name = macroncomb;
transform = "{1, 0, 0, 1, 88, 356}";
}
);
layerId = "2317BC77-1FCA-42D3-9CA3-F7C1C5BFA6BA";
width = 608;
}
);
note = Imacron;
unicode = 012A;
},
